SplineFontDB: 3.2
FontName: Reijima-Thin
FullName: Reijima Thin
FamilyName: Reijima Thin
Weight: Thin
Copyright: Copyright (c) 2019 by Coji Morishita. All rights reserved.
Version: 1.000
ItalicAngle: 0
UnderlinePosition: -100
UnderlineWidth: 50
Ascent: 860
Descent: 140
InvalidEm: 0
sfntRevision: 0x00010000
LayerCount: 2
Layer: 0 1 "Back" 1
Layer: 1 1 "Fore" 0
XUID: [1021 531 -1996577725 13722277]
StyleMap: 0x0040
FSType: 8
OS2Version: 4
OS2_WeightWidthSlopeOnly: 0
OS2_UseTypoMetrics: 1
CreationTime: 1575364793
ModificationTime: 1707276801
PfmFamily: 81
TTFWeight: 100
TTFWidth: 5
LineGap: 0
VLineGap: 1000
Panose: 0 0 2 0 0 0 0 0 0 0
OS2TypoAscent: 960
OS2TypoAOffset: 0
OS2TypoDescent: -230
OS2TypoDOffset: 0
OS2TypoLinegap: 200
OS2WinAscent: 1060
OS2WinAOffset: 0
OS2WinDescent: 330
OS2WinDOffset: 0
HheadAscent: 1060
HheadAOffset: 0
HheadDescent: -330
HheadDOffset: 0
OS2SubXSize: 650
OS2SubYSize: 600
OS2SubXOff: 0
OS2SubYOff: 75
OS2SupXSize: 650
OS2SupYSize: 600
OS2SupXOff: 0
OS2SupYOff: 350
OS2StrikeYSize: 50
OS2StrikeYPos: 312
OS2CapHeight: 730
OS2XHeight: 520
OS2Vendor: 'M+  '
OS2CodePages: 20020193.00000000
OS2UnicodeRanges: 20000007.00060000.00000000.00000000
Lookup: 1 0 0 "'aalt' Access All Alternates in Latin lookup 0" { "'aalt' Access All Alternates in Latin lookup 0 subtable"  } ['aalt' ('DFLT' <'dflt' > 'latn' <'AZE ' 'CAT ' 'CRT ' 'KAZ ' 'MOL ' 'ROM ' 'TAT ' 'TRK ' 'dflt' > ) ]
Lookup: 3 0 0 "'aalt' Access All Alternates in Latin lookup 1" { "'aalt' Access All Alternates in Latin lookup 1 subtable"  } ['aalt' ('DFLT' <'dflt' > 'latn' <'AZE ' 'CAT ' 'CRT ' 'KAZ ' 'MOL ' 'ROM ' 'TAT ' 'TRK ' 'dflt' > ) ]
Lookup: 6 0 0 "'ccmp' Glyph Composition/Decomposition in Latin lookup 2" { "'ccmp' Glyph Composition/Decomposition in Latin lookup 2 contextual 0"  "'ccmp' Glyph Composition/Decomposition in Latin lookup 2 contextual 1"  } ['ccmp' ('DFLT' <'dflt' > 'latn' <'AZE ' 'CAT ' 'CRT ' 'KAZ ' 'MOL ' 'ROM ' 'TAT ' 'TRK ' 'dflt' > ) ]

StartChar: .notdef
Encoding: 65536 -1 0
Width: 500
Flags: W
LayerCount: 2
Fore
SplineSet
410 -140 m 1,0,-1
 93 -140 l 1,1,-1
 93 860 l 1,2,-1
 410 860 l 1,3,-1
 410 -140 l 1,0,-1
168 793 m 1,4,-1
 168 760 l 1,5,-1
 233 760 l 1,6,-1
 233 723 l 1,7,-1
 167 723 l 1,8,-1
 167 690 l 1,9,-1
 333 690 l 1,10,-1
 333 723 l 1,11,-1
 267 723 l 1,12,-1
 267 760 l 1,13,-1
 333 760 l 1,14,-1
 333 793 l 1,15,-1
 168 793 l 1,4,-1
167 664 m 1,16,-1
 167 560 l 1,17,-1
 333 560 l 1,18,-1
 333 594 l 1,19,-1
 267 594 l 1,20,-1
 267 664 l 1,21,-1
 167 664 l 1,16,-1
233 594 m 1,22,-1
 200 594 l 1,23,-1
 200 630 l 1,24,-1
 233 630 l 1,25,-1
 233 594 l 1,22,-1
167 533 m 1,26,-1
 167 500 l 1,27,-1
 233 500 l 1,28,-1
 233 463 l 1,29,-1
 167 463 l 1,30,-1
 167 430 l 1,31,-1
 267 430 l 1,32,-1
 267 500 l 1,33,-1
 333 500 l 1,34,-1
 333 533 l 1,35,-1
 167 533 l 1,26,-1
300 473 m 1,36,-1
 300 407 l 1,37,-1
 167 407 l 1,38,-1
 167 373 l 1,39,-1
 333 373 l 1,40,-1
 333 473 l 1,41,-1
 300 473 l 1,36,-1
233 351 m 1,42,-1
 233 295 l 1,43,-1
 267 295 l 1,44,-1
 267 318 l 1,45,-1
 300 318 l 1,46,-1
 300 271 l 1,47,-1
 200 271 l 1,48,-1
 200 351 l 1,49,-1
 167 351 l 1,50,-1
 167 238 l 1,51,-1
 333 238 l 1,52,-1
 333 351 l 1,53,-1
 233 351 l 1,42,-1
167 178 m 1,54,-1
 167 65 l 1,55,-1
 333 65 l 1,56,-1
 333 178 l 1,57,-1
 167 178 l 1,54,-1
300 98 m 1,58,-1
 200 98 l 1,59,-1
 200 145 l 1,60,-1
 300 145 l 1,61,-1
 300 98 l 1,58,-1
167 42 m 1,62,-1
 167 9 l 1,63,-1
 237 9 l 1,64,-1
 167 -38 l 1,65,-1
 167 -71 l 1,66,-1
 333 -71 l 1,67,-1
 333 -38 l 1,68,-1
 231 -38 l 1,69,-1
 301 9 l 1,70,-1
 333 9 l 1,71,-1
 333 42 l 1,72,-1
 167 42 l 1,62,-1
EndSplineSet
EndChar

StartChar: A
Encoding: 65 65 2
Width: 648
GlyphClass: 2
Flags: W
AnchorPoint: "Anchor-6" 324 730 basechar 0
AnchorPoint: "Anchor-5" 629 0 basechar 0
AnchorPoint: "Anchor-4" 324 0 basechar 0
LayerCount: 2
Fore
SplineSet
607 0 m 1,0,-1
 513 237 l 1,1,-1
 135 237 l 1,2,-1
 41 0 l 1,3,-1
 19 0 l 1,4,-1
 309 730 l 1,5,-1
 339 730 l 1,6,-1
 629 0 l 1,7,-1
 607 0 l 1,0,-1
143 257 m 1,8,-1
 505 257 l 1,9,-1
 325 711 l 1,10,-1
 323 711 l 1,11,-1
 143 257 l 1,8,-1
EndSplineSet
Substitution2: "Single Substitution lookup 21 subtable" ordfeminine
Substitution2: "'aalt' Access All Alternates in Latin lookup 0 subtable" ordfeminine
EndChar

StartChar: Aogonek
Encoding: 260 260 23
Width: 648
GlyphClass: 2
Flags: W
AnchorPoint: "Anchor-6" 324 730 basechar 0
AnchorPoint: "Anchor-5" 629 0 basechar 0
AnchorPoint: "Anchor-4" 324 0 basechar 0
LayerCount: 2
Fore
SplineSet
716 -199 m 1,0,1
 671 -220 671 -220 615 -220 c 0,2,3
 541 -220 541 -220 514 -194 c 128,-1,4
 487 -168 487 -168 487 -135 c 0,5,6
 487 -97 487 -97 517.5 -60 c 128,-1,7
 548 -23 548 -23 604 8 c 1,8,-1
 513 237 l 1,9,-1
 135 237 l 1,10,-1
 41 0 l 1,11,-1
 19 0 l 1,12,-1
 309 730 l 1,13,-1
 339 730 l 1,14,-1
 629 0 l 1,15,16
 570 -32 570 -32 538.5 -66.5 c 128,-1,17
 507 -101 507 -101 507 -135 c 0,18,19
 507 -172 507 -172 538.5 -186 c 128,-1,20
 570 -200 570 -200 615 -200 c 0,21,22
 667 -200 667 -200 708 -181 c 1,23,-1
 716 -199 l 1,0,1
143 257 m 1,24,-1
 505 257 l 1,25,-1
 325 711 l 1,26,-1
 323 711 l 1,27,-1
 143 257 l 1,24,-1
EndSplineSet
EndChar

StartChar: Aring
Encoding: 197 197 24
Width: 648
GlyphClass: 2
Flags: W
AnchorPoint: "Anchor-6" 324 905 basechar 0
AnchorPoint: "Anchor-5" 629 0 basechar 0
AnchorPoint: "Anchor-4" 324 0 basechar 0
LayerCount: 2
Fore
SplineSet
513 237 m 1,0,-1
 135 237 l 1,1,-1
 41 0 l 1,2,-1
 19 0 l 1,3,-1
 306 721 l 1,4,5
 260 728 260 728 229.5 763 c 128,-1,6
 199 798 199 798 199 845 c 0,7,8
 199 897 199 897 235.5 933.5 c 128,-1,9
 272 970 272 970 324 970 c 256,10,11
 376 970 376 970 412.5 933.5 c 128,-1,12
 449 897 449 897 449 845 c 0,13,14
 449 798 449 798 418.5 763 c 128,-1,15
 388 728 388 728 342 721 c 1,16,-1
 629 0 l 1,17,-1
 607 0 l 1,18,-1
 513 237 l 1,0,-1
250 771 m 128,-1,20
 281 740 281 740 324 740 c 0,21,22
 368 740 368 740 398.5 771 c 128,-1,23
 429 802 429 802 429 845 c 0,24,25
 429 889 429 889 398.5 919.5 c 128,-1,26
 368 950 368 950 324 950 c 0,27,28
 281 950 281 950 250 919.5 c 128,-1,29
 219 889 219 889 219 845 c 0,30,19
 219 802 219 802 250 771 c 128,-1,20
143 257 m 1,31,-1
 505 257 l 1,32,-1
 325 711 l 1,33,-1
 323 711 l 1,34,-1
 143 257 l 1,31,-1
EndSplineSet
EndChar

StartChar: Aringacute
Encoding: 506 506 25
Width: 648
GlyphClass: 2
Flags: W
AnchorPoint: "Anchor-6" 324 905 basechar 0
AnchorPoint: "Anchor-5" 629 0 basechar 0
AnchorPoint: "Anchor-4" 324 0 basechar 0
LayerCount: 2
Fore
SplineSet
513 237 m 1,0,-1
 135 237 l 1,1,-1
 41 0 l 1,2,-1
 19 0 l 1,3,-1
 306 721 l 1,4,5
 260 728 260 728 229.5 763 c 128,-1,6
 199 798 199 798 199 845 c 0,7,8
 199 877 199 877 214 904 c 128,-1,9
 229 931 229 931 254 949 c 1,10,-1
 373 1155 l 1,11,-1
 396 1155 l 1,12,-1
 286 964 l 1,13,14
 304 970 304 970 324 970 c 0,15,16
 376 970 376 970 412.5 933.5 c 128,-1,17
 449 897 449 897 449 845 c 0,18,19
 449 798 449 798 418.5 763 c 128,-1,20
 388 728 388 728 342 721 c 1,21,-1
 629 0 l 1,22,-1
 607 0 l 1,23,-1
 513 237 l 1,0,-1
250 771 m 128,-1,25
 281 740 281 740 324 740 c 0,26,27
 368 740 368 740 398.5 771 c 128,-1,28
 429 802 429 802 429 845 c 0,29,30
 429 889 429 889 398.5 919.5 c 128,-1,31
 368 950 368 950 324 950 c 0,32,33
 281 950 281 950 250 919.5 c 128,-1,34
 219 889 219 889 219 845 c 0,35,24
 219 802 219 802 250 771 c 128,-1,25
143 257 m 1,36,-1
 505 257 l 1,37,-1
 325 711 l 1,38,-1
 323 711 l 1,39,-1
 143 257 l 1,36,-1
EndSplineSet
EndChar

StartChar: AE
Encoding: 198 198 27
Width: 804
GlyphClass: 2
Flags: W
AnchorPoint: "Anchor-6" 440 730 basechar 0
AnchorPoint: "Anchor-4" 440 0 basechar 0
LayerCount: 2
Fore
SplineSet
733 710 m 1,0,-1
 433 710 l 1,1,-1
 433 400 l 1,2,-1
 713 400 l 1,3,-1
 713 380 l 1,4,-1
 433 380 l 1,5,-1
 433 20 l 1,6,-1
 733 20 l 1,7,-1
 733 0 l 1,8,-1
 413 0 l 1,9,-1
 413 237 l 1,10,-1
 159 237 l 1,11,-1
 42 0 l 1,12,-1
 19 0 l 1,13,-1
 381 730 l 1,14,-1
 733 730 l 1,15,-1
 733 710 l 1,0,-1
169 257 m 1,16,-1
 413 257 l 1,17,-1
 413 710 l 1,18,-1
 393 710 l 1,19,-1
 169 257 l 1,16,-1
EndSplineSet
EndChar

StartChar: B
Encoding: 66 66 29
Width: 613
Flags: W
LayerCount: 2
Fore
SplineSet
530 327.5 m 128,-1,1
 575 281 575 281 575 200 c 0,2,3
 575 97 575 97 501.5 48.5 c 128,-1,4
 428 0 428 0 275 0 c 2,5,-1
 95 0 l 1,6,-1
 95 730 l 1,7,-1
 275 730 l 2,8,9
 535 730 535 730 535 555 c 0,10,11
 535 425 535 425 391 392 c 1,12,-1
 391 390 l 1,13,0
 485 374 485 374 530 327.5 c 128,-1,1
115 710 m 1,14,-1
 115 400 l 1,15,-1
 275 400 l 2,16,17
 397 400 397 400 456 438 c 128,-1,18
 515 476 515 476 515 555 c 256,19,20
 515 634 515 634 456 672 c 128,-1,21
 397 710 397 710 275 710 c 2,22,-1
 115 710 l 1,14,-1
487.5 63.5 m 128,-1,24
 555 107 555 107 555 200 c 256,25,26
 555 293 555 293 487.5 336.5 c 128,-1,27
 420 380 420 380 275 380 c 2,28,-1
 115 380 l 1,29,-1
 115 20 l 1,30,-1
 275 20 l 2,31,23
 420 20 420 20 487.5 63.5 c 128,-1,24
EndSplineSet
EndChar

StartChar: C
Encoding: 67 67 30
Width: 684
GlyphClass: 2
Flags: W
AnchorPoint: "Anchor-6" 380 730 basechar 0
AnchorPoint: "Anchor-4" 380 0 basechar 0
LayerCount: 2
Fore
SplineSet
215.5 36.5 m 128,-1,1
 135 83 135 83 91 168 c 128,-1,2
 47 253 47 253 47 365 c 256,3,4
 47 477 47 477 91 562 c 128,-1,5
 135 647 135 647 215.5 693.5 c 128,-1,6
 296 740 296 740 403 740 c 0,7,8
 530 740 530 740 627 675 c 1,9,-1
 616 658 l 1,10,11
 524 720 524 720 403 720 c 0,12,13
 302 720 302 720 226 676.5 c 128,-1,14
 150 633 150 633 108.5 552.5 c 128,-1,15
 67 472 67 472 67 365 c 256,16,17
 67 258 67 258 108 177.5 c 128,-1,18
 149 97 149 97 225 53.5 c 128,-1,19
 301 10 301 10 403 10 c 0,20,21
 524 10 524 10 616 72 c 1,22,-1
 627 55 l 1,23,24
 530 -10 530 -10 403 -10 c 0,25,0
 296 -10 296 -10 215.5 36.5 c 128,-1,1
EndSplineSet
EndChar

StartChar: Ccedilla
Encoding: 199 199 33
Width: 684
GlyphClass: 2
Flags: W
AnchorPoint: "Anchor-6" 380 730 basechar 0
AnchorPoint: "Anchor-4" 380 0 basechar 0
LayerCount: 2
Fore
SplineSet
627 55 m 1,0,1
 530 -10 530 -10 405 -10 c 1,2,3
 494 -70 494 -70 494 -136 c 0,4,5
 494 -169 494 -169 467 -195 c 128,-1,6
 440 -221 440 -221 366 -221 c 0,7,8
 310 -221 310 -221 265 -200 c 1,9,-1
 273 -182 l 1,10,11
 314 -201 314 -201 366 -201 c 0,12,13
 411 -201 411 -201 442.5 -187 c 128,-1,14
 474 -173 474 -173 474 -136 c 0,15,16
 474 -104 474 -104 446 -71.5 c 128,-1,17
 418 -39 418 -39 365 -8 c 1,18,19
 269 0 269 0 197 48 c 128,-1,20
 125 96 125 96 86 178 c 128,-1,21
 47 260 47 260 47 365 c 0,22,23
 47 477 47 477 91 562 c 128,-1,24
 135 647 135 647 215.5 693.5 c 128,-1,25
 296 740 296 740 403 740 c 0,26,27
 530 740 530 740 627 675 c 1,28,-1
 616 658 l 1,29,30
 524 720 524 720 403 720 c 0,31,32
 302 720 302 720 226 676.5 c 128,-1,33
 150 633 150 633 108.5 552.5 c 128,-1,34
 67 472 67 472 67 365 c 256,35,36
 67 258 67 258 108 177.5 c 128,-1,37
 149 97 149 97 225 53.5 c 128,-1,38
 301 10 301 10 403 10 c 0,39,40
 524 10 524 10 616 72 c 1,41,-1
 627 55 l 1,0,1
EndSplineSet
EndChar

StartChar: D
Encoding: 68 68 36
Width: 672
GlyphClass: 2
Flags: W
AnchorPoint: "Anchor-6" 336 730 basechar 0
AnchorPoint: "Anchor-4" 336 0 basechar 0
LayerCount: 2
Fore
SplineSet
255 730 m 2,0,1
 437 730 437 730 531 637 c 128,-1,2
 625 544 625 544 625 365 c 256,3,4
 625 186 625 186 531 93 c 128,-1,5
 437 0 437 0 255 0 c 2,6,-1
 95 0 l 1,7,-1
 95 730 l 1,8,-1
 255 730 l 2,0,1
517 107 m 128,-1,10
 605 194 605 194 605 365 c 256,11,12
 605 536 605 536 517 623 c 128,-1,13
 429 710 429 710 255 710 c 2,14,-1
 115 710 l 1,15,-1
 115 20 l 1,16,-1
 255 20 l 2,17,9
 429 20 429 20 517 107 c 128,-1,10
EndSplineSet
EndChar

StartChar: Eth
Encoding: 208 208 38
Width: 718
GlyphClass: 2
Flags: W
AnchorPoint: "Anchor-6" 382 730 basechar 0
AnchorPoint: "Anchor-4" 382 0 basechar 0
LayerCount: 2
Fore
SplineSet
577 637 m 128,-1,1
 671 544 671 544 671 365 c 256,2,3
 671 186 671 186 577 93 c 128,-1,4
 483 0 483 0 301 0 c 2,5,-1
 141 0 l 1,6,-1
 141 355 l 1,7,-1
 31 355 l 1,8,-1
 31 375 l 1,9,-1
 141 375 l 1,10,-1
 141 730 l 1,11,-1
 301 730 l 2,12,0
 483 730 483 730 577 637 c 128,-1,1
563 107 m 128,-1,14
 651 194 651 194 651 365 c 256,15,16
 651 536 651 536 563 623 c 128,-1,17
 475 710 475 710 301 710 c 2,18,-1
 161 710 l 1,19,-1
 161 375 l 1,20,-1
 441 375 l 1,21,-1
 441 355 l 1,22,-1
 161 355 l 1,23,-1
 161 20 l 1,24,-1
 301 20 l 2,25,13
 475 20 475 20 563 107 c 128,-1,14
EndSplineSet
EndChar

StartChar: E
Encoding: 69 69 42
Width: 586
GlyphClass: 2
Flags: W
AnchorPoint: "Anchor-6" 310 730 basechar 0
AnchorPoint: "Anchor-5" 515 0 basechar 0
AnchorPoint: "Anchor-4" 310 0 basechar 0
LayerCount: 2
Fore
SplineSet
95 730 m 1,0,-1
 515 730 l 1,1,-1
 515 710 l 1,2,-1
 115 710 l 1,3,-1
 115 400 l 1,4,-1
 495 400 l 1,5,-1
 495 380 l 1,6,-1
 115 380 l 1,7,-1
 115 20 l 1,8,-1
 515 20 l 1,9,-1
 515 0 l 1,10,-1
 95 0 l 1,11,-1
 95 730 l 1,0,-1
EndSplineSet
EndChar

StartChar: Eogonek
Encoding: 280 280 60
Width: 586
GlyphClass: 2
Flags: W
AnchorPoint: "Anchor-6" 310 730 basechar 0
AnchorPoint: "Anchor-5" 515 0 basechar 0
AnchorPoint: "Anchor-4" 310 0 basechar 0
LayerCount: 2
Fore
SplineSet
602 -199 m 1,0,1
 557 -220 557 -220 501 -220 c 0,2,3
 427 -220 427 -220 400 -194 c 128,-1,4
 373 -168 373 -168 373 -135 c 0,5,6
 373 -100 373 -100 399.5 -65 c 128,-1,7
 426 -30 426 -30 476 0 c 1,8,-1
 95 0 l 1,9,-1
 95 730 l 1,10,-1
 515 730 l 1,11,-1
 515 710 l 1,12,-1
 115 710 l 1,13,-1
 115 400 l 1,14,-1
 495 400 l 1,15,-1
 495 380 l 1,16,-1
 115 380 l 1,17,-1
 115 20 l 1,18,-1
 515 20 l 1,19,-1
 515 0 l 1,20,21
 456 -32 456 -32 424.5 -66.5 c 128,-1,22
 393 -101 393 -101 393 -135 c 0,23,24
 393 -172 393 -172 424.5 -186 c 128,-1,25
 456 -200 456 -200 501 -200 c 0,26,27
 553 -200 553 -200 594 -181 c 1,28,-1
 602 -199 l 1,0,1
EndSplineSet
EndChar

StartChar: F
Encoding: 70 70 62
Width: 567
Flags: W
LayerCount: 2
Fore
SplineSet
95 730 m 1,0,-1
 515 730 l 1,1,-1
 515 710 l 1,2,-1
 115 710 l 1,3,-1
 115 400 l 1,4,-1
 495 400 l 1,5,-1
 495 380 l 1,6,-1
 115 380 l 1,7,-1
 115 0 l 1,8,-1
 95 0 l 1,9,-1
 95 730 l 1,0,-1
EndSplineSet
EndChar

StartChar: G
Encoding: 71 71 63
Width: 778
GlyphClass: 2
Flags: W
AnchorPoint: "Anchor-6" 410 730 basechar 0
AnchorPoint: "Anchor-4" 410 0 basechar 0
LayerCount: 2
Fore
SplineSet
697 400 m 1,0,-1
 697 44 l 1,1,2
 645 19 645 19 572.5 4.5 c 128,-1,3
 500 -10 500 -10 431 -10 c 0,4,5
 312 -10 312 -10 225.5 35 c 128,-1,6
 139 80 139 80 93 164.5 c 128,-1,7
 47 249 47 249 47 365 c 256,8,9
 47 481 47 481 93 565.5 c 128,-1,10
 139 650 139 650 225.5 695 c 128,-1,11
 312 740 312 740 431 740 c 0,12,13
 568 740 568 740 670 680 c 1,14,-1
 660 663 l 1,15,16
 562 720 562 720 431 720 c 0,17,18
 318 720 318 720 236 678 c 128,-1,19
 154 636 154 636 110.5 556 c 128,-1,20
 67 476 67 476 67 365 c 256,21,22
 67 254 67 254 110.5 174 c 128,-1,23
 154 94 154 94 236 52 c 128,-1,24
 318 10 318 10 431 10 c 0,25,26
 494 10 494 10 560.5 22.5 c 128,-1,27
 627 35 627 35 677 57 c 1,28,-1
 677 380 l 1,29,-1
 356 380 l 1,30,-1
 356 400 l 1,31,-1
 697 400 l 1,0,-1
EndSplineSet
EndChar

StartChar: H
Encoding: 72 72 69
Width: 700
GlyphClass: 2
Flags: W
AnchorPoint: "Anchor-6" 350 730 basechar 0
AnchorPoint: "Anchor-4" 350 0 basechar 0
LayerCount: 2
Fore
SplineSet
585 730 m 1,0,-1
 605 730 l 1,1,-1
 605 0 l 1,2,-1
 585 0 l 1,3,-1
 585 380 l 1,4,-1
 115 380 l 1,5,-1
 115 0 l 1,6,-1
 95 0 l 1,7,-1
 95 730 l 1,8,-1
 115 730 l 1,9,-1
 115 400 l 1,10,-1
 585 400 l 1,11,-1
 585 730 l 1,0,-1
EndSplineSet
EndChar

StartChar: Hbar
Encoding: 294 294 70
Width: 760
GlyphClass: 2
Flags: W
AnchorPoint: "Anchor-6" 380 730 basechar 0
AnchorPoint: "Anchor-4" 380 0 basechar 0
LayerCount: 2
Fore
SplineSet
730 606 m 1,0,-1
 730 586 l 1,1,-1
 635 586 l 1,2,-1
 635 0 l 1,3,-1
 615 0 l 1,4,-1
 615 380 l 1,5,-1
 145 380 l 1,6,-1
 145 0 l 1,7,-1
 125 0 l 1,8,-1
 125 586 l 1,9,-1
 30 586 l 1,10,-1
 30 606 l 1,11,-1
 125 606 l 1,12,-1
 125 730 l 1,13,-1
 145 730 l 1,14,-1
 145 606 l 1,15,-1
 615 606 l 1,16,-1
 615 730 l 1,17,-1
 635 730 l 1,18,-1
 635 606 l 1,19,-1
 730 606 l 1,0,-1
615 400 m 1,20,-1
 615 586 l 1,21,-1
 145 586 l 1,22,-1
 145 400 l 1,23,-1
 615 400 l 1,20,-1
EndSplineSet
EndChar

StartChar: I
Encoding: 73 73 72
Width: 230
GlyphClass: 2
Flags: W
AnchorPoint: "Anchor-6" 115 730 basechar 0
AnchorPoint: "Anchor-5" 125 0 basechar 0
AnchorPoint: "Anchor-4" 115 0 basechar 0
LayerCount: 2
Fore
SplineSet
105 730 m 1,0,-1
 125 730 l 1,1,-1
 125 0 l 1,2,-1
 105 0 l 1,3,-1
 105 730 l 1,0,-1
EndSplineSet
EndChar

StartChar: Iogonek
Encoding: 302 302 84
Width: 230
GlyphClass: 2
Flags: W
AnchorPoint: "Anchor-6" 115 730 basechar 0
AnchorPoint: "Anchor-5" 125 0 basechar 0
AnchorPoint: "Anchor-4" 115 0 basechar 0
LayerCount: 2
Fore
SplineSet
212 -199 m 1,0,1
 167 -220 167 -220 111 -220 c 0,2,3
 37 -220 37 -220 10 -194 c 128,-1,4
 -17 -168 -17 -168 -17 -135 c 0,5,6
 -17 -96 -17 -96 15 -58.5 c 128,-1,7
 47 -21 47 -21 105 11 c 1,8,-1
 105 730 l 1,9,-1
 125 730 l 1,10,-1
 125 0 l 1,11,12
 66 -32 66 -32 34.5 -66.5 c 128,-1,13
 3 -101 3 -101 3 -135 c 0,14,15
 3 -172 3 -172 34.5 -186 c 128,-1,16
 66 -200 66 -200 111 -200 c 0,17,18
 163 -200 163 -200 204 -181 c 1,19,-1
 212 -199 l 1,0,1
EndSplineSet
EndChar

StartChar: J
Encoding: 74 74 86
Width: 549
GlyphClass: 2
Flags: W
AnchorPoint: "Anchor-6" 275 730 basechar 0
AnchorPoint: "Anchor-4" 275 0 basechar 0
LayerCount: 2
Fore
SplineSet
109 6 m 128,-1,1
 54 22 54 22 14 50 c 1,2,-1
 26 66 l 1,3,4
 64 40 64 40 116 25 c 128,-1,5
 168 10 168 10 223 10 c 0,6,7
 336 10 336 10 390 76 c 128,-1,8
 444 142 444 142 444 280 c 2,9,-1
 444 730 l 1,10,-1
 464 730 l 1,11,-1
 464 280 l 2,12,13
 464 134 464 134 404.5 62 c 128,-1,14
 345 -10 345 -10 223 -10 c 0,15,0
 164 -10 164 -10 109 6 c 128,-1,1
EndSplineSet
EndChar

StartChar: K
Encoding: 75 75 88
Width: 604
GlyphClass: 2
Flags: W
AnchorPoint: "Anchor-6" 280 730 basechar 0
AnchorPoint: "Anchor-4" 280 0 basechar 0
LayerCount: 2
Fore
SplineSet
95 730 m 1,0,-1
 115 730 l 1,1,-1
 115 404 l 1,2,-1
 117 404 l 1,3,-1
 532 730 l 1,4,-1
 565 730 l 1,5,-1
 130 390 l 1,6,-1
 575 0 l 1,7,-1
 545 0 l 1,8,-1
 117 376 l 1,9,-1
 115 376 l 1,10,-1
 115 0 l 1,11,-1
 95 0 l 1,12,-1
 95 730 l 1,0,-1
EndSplineSet
EndChar

StartChar: L
Encoding: 76 76 90
Width: 583
GlyphClass: 2
Flags: W
AnchorPoint: "Anchor-7" 563 730 basechar 0
AnchorPoint: "Anchor-6" 292 730 basechar 0
AnchorPoint: "Anchor-4" 292 0 basechar 0
LayerCount: 2
Fore
SplineSet
95 730 m 1,0,-1
 115 730 l 1,1,-1
 115 20 l 1,2,-1
 535 20 l 1,3,-1
 535 0 l 1,4,-1
 95 0 l 1,5,-1
 95 730 l 1,0,-1
EndSplineSet
EndChar

StartChar: Lslash
Encoding: 321 321 97
Width: 665
GlyphClass: 2
Flags: W
AnchorPoint: "Anchor-7" 645 730 basechar 0
AnchorPoint: "Anchor-6" 374 730 basechar 0
AnchorPoint: "Anchor-4" 374 0 basechar 0
LayerCount: 2
Fore
SplineSet
197 20 m 1,0,-1
 617 20 l 1,1,-1
 617 0 l 1,2,-1
 177 0 l 1,3,-1
 177 350 l 1,4,-1
 26 281 l 1,5,-1
 18 299 l 1,6,-1
 177 371 l 1,7,-1
 177 730 l 1,8,-1
 197 730 l 1,9,-1
 197 380 l 1,10,-1
 348 449 l 1,11,-1
 356 431 l 1,12,-1
 197 359 l 1,13,-1
 197 20 l 1,0,-1
EndSplineSet
EndChar

StartChar: M
Encoding: 77 77 98
Width: 850
Flags: W
LayerCount: 2
Fore
SplineSet
95 730 m 1,0,-1
 126 730 l 1,1,-1
 424 174 l 1,2,-1
 426 174 l 1,3,-1
 724 730 l 1,4,-1
 755 730 l 1,5,-1
 755 0 l 1,6,-1
 735 0 l 1,7,-1
 735 709 l 1,8,-1
 733 709 l 1,9,-1
 437 155 l 1,10,-1
 413 155 l 1,11,-1
 117 709 l 1,12,-1
 115 709 l 1,13,-1
 115 0 l 1,14,-1
 95 0 l 1,15,-1
 95 730 l 1,0,-1
EndSplineSet
EndChar

StartChar: N
Encoding: 78 78 99
Width: 710
GlyphClass: 2
Flags: W
AnchorPoint: "Anchor-6" 355 730 basechar 0
AnchorPoint: "Anchor-4" 355 0 basechar 0
LayerCount: 2
Fore
SplineSet
95 730 m 1,0,-1
 127 730 l 1,1,-1
 593 21 l 1,2,-1
 595 21 l 1,3,-1
 595 730 l 1,4,-1
 615 730 l 1,5,-1
 615 0 l 1,6,-1
 583 0 l 1,7,-1
 117 709 l 1,8,-1
 115 709 l 1,9,-1
 115 0 l 1,10,-1
 95 0 l 1,11,-1
 95 730 l 1,0,-1
EndSplineSet
EndChar

StartChar: Eng
Encoding: 330 330 104
Width: 710
GlyphClass: 2
Flags: W
AnchorPoint: "Anchor-6" 355 730 basechar 0
AnchorPoint: "Anchor-4" 355 0 basechar 0
LayerCount: 2
Fore
SplineSet
615 730 m 1,0,-1
 615 -61 l 2,1,2
 615 -138 615 -138 581.5 -174.5 c 128,-1,3
 548 -211 548 -211 475 -211 c 0,4,5
 435 -211 435 -211 395 -196 c 1,6,-1
 402 -177 l 1,7,8
 436 -191 436 -191 475 -191 c 0,9,10
 539 -191 539 -191 567 -160.5 c 128,-1,11
 595 -130 595 -130 595 -61 c 2,12,-1
 595 -18 l 1,13,-1
 117 709 l 1,14,-1
 115 709 l 1,15,-1
 115 0 l 1,16,-1
 95 0 l 1,17,-1
 95 730 l 1,18,-1
 127 730 l 1,19,-1
 593 21 l 1,20,-1
 595 21 l 1,21,-1
 595 730 l 1,22,-1
 615 730 l 1,0,-1
EndSplineSet
EndChar

StartChar: O
Encoding: 79 79 107
Width: 794
GlyphClass: 2
Flags: W
AnchorPoint: "Anchor-7" 584 690 basechar 0
AnchorPoint: "Anchor-6" 397 730 basechar 0
AnchorPoint: "Anchor-5" 446 0 basechar 0
AnchorPoint: "Anchor-4" 397 0 basechar 0
LayerCount: 2
Fore
SplineSet
214.5 37 m 128,-1,1
 135 84 135 84 91 169.5 c 128,-1,2
 47 255 47 255 47 365 c 256,3,4
 47 475 47 475 91 560.5 c 128,-1,5
 135 646 135 646 214.5 693 c 128,-1,6
 294 740 294 740 397 740 c 256,7,8
 500 740 500 740 579.5 693 c 128,-1,9
 659 646 659 646 703 560.5 c 128,-1,10
 747 475 747 475 747 365 c 256,11,12
 747 255 747 255 703 169.5 c 128,-1,13
 659 84 659 84 579.5 37 c 128,-1,14
 500 -10 500 -10 397 -10 c 256,15,0
 294 -10 294 -10 214.5 37 c 128,-1,1
569.5 54.5 m 128,-1,17
 644 99 644 99 685.5 179.5 c 128,-1,18
 727 260 727 260 727 365 c 256,19,20
 727 470 727 470 685.5 550.5 c 128,-1,21
 644 631 644 631 569.5 675.5 c 128,-1,22
 495 720 495 720 397 720 c 256,23,24
 299 720 299 720 224.5 675.5 c 128,-1,25
 150 631 150 631 108.5 550.5 c 128,-1,26
 67 470 67 470 67 365 c 256,27,28
 67 260 67 260 108.5 179.5 c 128,-1,29
 150 99 150 99 224.5 54.5 c 128,-1,30
 299 10 299 10 397 10 c 256,31,16
 495 10 495 10 569.5 54.5 c 128,-1,17
EndSplineSet
Substitution2: "Single Substitution lookup 21 subtable" ordmasculine
Substitution2: "'aalt' Access All Alternates in Latin lookup 0 subtable" ordmasculine
EndChar

StartChar: Ohorn
Encoding: 416 416 123
Width: 804
GlyphClass: 2
Flags: W
AnchorPoint: "Anchor-7" 749 845 basechar 0
AnchorPoint: "Anchor-6" 397 730 basechar 0
AnchorPoint: "Anchor-5" 446 0 basechar 0
AnchorPoint: "Anchor-4" 397 0 basechar 0
LayerCount: 2
Fore
SplineSet
716.5 530.5 m 128,-1,1
 747 456 747 456 747 365 c 0,2,3
 747 255 747 255 703 169.5 c 128,-1,4
 659 84 659 84 579.5 37 c 128,-1,5
 500 -10 500 -10 397 -10 c 256,6,7
 294 -10 294 -10 214.5 37 c 128,-1,8
 135 84 135 84 91 169.5 c 128,-1,9
 47 255 47 255 47 365 c 256,10,11
 47 475 47 475 91 560.5 c 128,-1,12
 135 646 135 646 214.5 693 c 128,-1,13
 294 740 294 740 397 740 c 0,14,15
 504 740 504 740 586 689 c 0,16,17
 614 675 614 675 644 675 c 0,18,19
 709 675 709 675 709 753 c 0,20,21
 709 776 709 776 704 801.5 c 128,-1,22
 699 827 699 827 692 845 c 1,23,-1
 713 845 l 1,24,25
 729 797 729 797 729 753 c 0,26,27
 729 706 729 706 707 680.5 c 128,-1,28
 685 655 685 655 644 655 c 0,29,30
 635 655 635 655 630 656 c 1,31,0
 686 605 686 605 716.5 530.5 c 128,-1,1
569.5 54.5 m 128,-1,33
 644 99 644 99 685.5 179.5 c 128,-1,34
 727 260 727 260 727 365 c 256,35,36
 727 470 727 470 685.5 550.5 c 128,-1,37
 644 631 644 631 569.5 675.5 c 128,-1,38
 495 720 495 720 397 720 c 256,39,40
 299 720 299 720 224.5 675.5 c 128,-1,41
 150 631 150 631 108.5 550.5 c 128,-1,42
 67 470 67 470 67 365 c 256,43,44
 67 260 67 260 108.5 179.5 c 128,-1,45
 150 99 150 99 224.5 54.5 c 128,-1,46
 299 10 299 10 397 10 c 256,47,32
 495 10 495 10 569.5 54.5 c 128,-1,33
EndSplineSet
EndChar

StartChar: uni01EA
Encoding: 490 490 132
Width: 794
GlyphClass: 2
Flags: W
AnchorPoint: "Anchor-7" 584 690 basechar 0
AnchorPoint: "Anchor-6" 397 730 basechar 0
AnchorPoint: "Anchor-5" 446 0 basechar 0
AnchorPoint: "Anchor-4" 397 0 basechar 0
LayerCount: 2
Fore
SplineSet
351.5 -71 m 128,-1,1
 324 -103 324 -103 324 -135 c 0,2,3
 324 -172 324 -172 355.5 -186 c 128,-1,4
 387 -200 387 -200 432 -200 c 0,5,6
 484 -200 484 -200 525 -181 c 1,7,-1
 533 -199 l 1,8,9
 488 -220 488 -220 432 -220 c 0,10,11
 358 -220 358 -220 331 -194 c 128,-1,12
 304 -168 304 -168 304 -135 c 256,13,14
 304 -102 304 -102 327 -70 c 128,-1,15
 350 -38 350 -38 392 -10 c 1,16,17
 290 -9 290 -9 211.5 38.5 c 128,-1,18
 133 86 133 86 90 171 c 128,-1,19
 47 256 47 256 47 365 c 0,20,21
 47 475 47 475 91 560.5 c 128,-1,22
 135 646 135 646 214.5 693 c 128,-1,23
 294 740 294 740 397 740 c 256,24,25
 500 740 500 740 579.5 693 c 128,-1,26
 659 646 659 646 703 560.5 c 128,-1,27
 747 475 747 475 747 365 c 0,28,29
 747 261 747 261 707.5 179 c 128,-1,30
 668 97 668 97 596.5 48 c 128,-1,31
 525 -1 525 -1 431 -9 c 1,32,0
 379 -39 379 -39 351.5 -71 c 128,-1,1
108.5 179.5 m 128,-1,34
 150 99 150 99 224.5 54.5 c 128,-1,35
 299 10 299 10 397 10 c 256,36,37
 495 10 495 10 569.5 54.5 c 128,-1,38
 644 99 644 99 685.5 179.5 c 128,-1,39
 727 260 727 260 727 365 c 256,40,41
 727 470 727 470 685.5 550.5 c 128,-1,42
 644 631 644 631 569.5 675.5 c 128,-1,43
 495 720 495 720 397 720 c 256,44,45
 299 720 299 720 224.5 675.5 c 128,-1,46
 150 631 150 631 108.5 550.5 c 128,-1,47
 67 470 67 470 67 365 c 256,48,33
 67 260 67 260 108.5 179.5 c 128,-1,34
EndSplineSet
EndChar

StartChar: Oslash
Encoding: 216 216 133
Width: 794
GlyphClass: 2
Flags: W
AnchorPoint: "Anchor-7" 584 690 basechar 0
AnchorPoint: "Anchor-6" 397 730 basechar 0
AnchorPoint: "Anchor-5" 446 0 basechar 0
AnchorPoint: "Anchor-4" 397 0 basechar 0
LayerCount: 2
Fore
SplineSet
716 532.5 m 128,-1,1
 747 457 747 457 747 365 c 0,2,3
 747 255 747 255 703 169.5 c 128,-1,4
 659 84 659 84 579.5 37 c 128,-1,5
 500 -10 500 -10 397 -10 c 0,6,7
 272 -10 272 -10 181 59 c 1,8,-1
 125 -16 l 1,9,-1
 109 -4 l 1,10,-1
 166 72 l 1,11,12
 109 122 109 122 78 197.5 c 128,-1,13
 47 273 47 273 47 365 c 0,14,15
 47 475 47 475 91 560.5 c 128,-1,16
 135 646 135 646 214.5 693 c 128,-1,17
 294 740 294 740 397 740 c 0,18,19
 522 740 522 740 613 671 c 1,20,-1
 669 746 l 1,21,-1
 685 734 l 1,22,-1
 628 658 l 1,23,0
 685 608 685 608 716 532.5 c 128,-1,1
96 207 m 128,-1,25
 125 136 125 136 178 88 c 1,26,-1
 601 655 l 1,27,28
 516 720 516 720 397 720 c 0,29,30
 299 720 299 720 224.5 675.5 c 128,-1,31
 150 631 150 631 108.5 550.5 c 128,-1,32
 67 470 67 470 67 365 c 0,33,24
 67 278 67 278 96 207 c 128,-1,25
569.5 54.5 m 128,-1,35
 644 99 644 99 685.5 179.5 c 128,-1,36
 727 260 727 260 727 365 c 0,37,38
 727 452 727 452 698 523 c 128,-1,39
 669 594 669 594 616 642 c 1,40,-1
 193 75 l 1,41,42
 278 10 278 10 397 10 c 0,43,34
 495 10 495 10 569.5 54.5 c 128,-1,35
EndSplineSet
EndChar

StartChar: OE
Encoding: 338 338 137
Width: 977
GlyphClass: 2
Flags: W
AnchorPoint: "Anchor-6" 701 730 basechar 0
AnchorPoint: "Anchor-5" 906 0 basechar 0
AnchorPoint: "Anchor-4" 701 0 basechar 0
LayerCount: 2
Fore
SplineSet
506 710 m 1,0,-1
 506 400 l 1,1,-1
 886 400 l 1,2,-1
 886 380 l 1,3,-1
 506 380 l 1,4,-1
 506 20 l 1,5,-1
 906 20 l 1,6,-1
 906 0 l 1,7,-1
 486 0 l 1,8,9
 439 -10 439 -10 397 -10 c 0,10,11
 294 -10 294 -10 214.5 37 c 128,-1,12
 135 84 135 84 91 169.5 c 128,-1,13
 47 255 47 255 47 365 c 256,14,15
 47 475 47 475 91 560.5 c 128,-1,16
 135 646 135 646 214.5 693 c 128,-1,17
 294 740 294 740 397 740 c 0,18,19
 439 740 439 740 486 730 c 1,20,-1
 906 730 l 1,21,-1
 906 710 l 1,22,-1
 506 710 l 1,0,-1
108.5 179.5 m 128,-1,24
 150 99 150 99 224.5 54.5 c 128,-1,25
 299 10 299 10 397 10 c 0,26,27
 446 10 446 10 486 20 c 1,28,-1
 486 710 l 1,29,30
 446 720 446 720 397 720 c 0,31,32
 299 720 299 720 224.5 675.5 c 128,-1,33
 150 631 150 631 108.5 550.5 c 128,-1,34
 67 470 67 470 67 365 c 256,35,23
 67 260 67 260 108.5 179.5 c 128,-1,24
EndSplineSet
EndChar

StartChar: P
Encoding: 80 80 138
Width: 564
Flags: W
LayerCount: 2
Fore
SplineSet
465.5 680 m 128,-1,1
 535 630 535 630 535 520 c 256,2,3
 535 410 535 410 465.5 360 c 128,-1,4
 396 310 396 310 245 310 c 2,5,-1
 115 310 l 1,6,-1
 115 0 l 1,7,-1
 95 0 l 1,8,-1
 95 730 l 1,9,-1
 245 730 l 2,10,0
 396 730 396 730 465.5 680 c 128,-1,1
451.5 374.5 m 128,-1,12
 515 419 515 419 515 520 c 256,13,14
 515 621 515 621 451.5 665.5 c 128,-1,15
 388 710 388 710 245 710 c 2,16,-1
 115 710 l 1,17,-1
 115 330 l 1,18,-1
 245 330 l 2,19,11
 388 330 388 330 451.5 374.5 c 128,-1,12
EndSplineSet
EndChar

StartChar: Thorn
Encoding: 222 222 139
Width: 564
Flags: W
LayerCount: 2
Fore
SplineSet
465.5 535 m 128,-1,1
 535 485 535 485 535 375 c 256,2,3
 535 265 535 265 465.5 215 c 128,-1,4
 396 165 396 165 245 165 c 2,5,-1
 115 165 l 1,6,-1
 115 0 l 1,7,-1
 95 0 l 1,8,-1
 95 730 l 1,9,-1
 115 730 l 1,10,-1
 115 585 l 1,11,-1
 245 585 l 2,12,0
 396 585 396 585 465.5 535 c 128,-1,1
451.5 229.5 m 128,-1,14
 515 274 515 274 515 375 c 256,15,16
 515 476 515 476 451.5 520.5 c 128,-1,17
 388 565 388 565 245 565 c 2,18,-1
 115 565 l 1,19,-1
 115 185 l 1,20,-1
 245 185 l 2,21,13
 388 185 388 185 451.5 229.5 c 128,-1,14
EndSplineSet
EndChar

StartChar: Q
Encoding: 81 81 140
Width: 808
Flags: W
LayerCount: 2
Fore
SplineSet
397 -10 m 0,1,2
 294 -10 294 -10 214.5 37 c 128,-1,3
 135 84 135 84 91 169.5 c 128,-1,4
 47 255 47 255 47 365 c 256,5,6
 47 475 47 475 91 560.5 c 128,-1,7
 135 646 135 646 214.5 693 c 128,-1,8
 294 740 294 740 397 740 c 256,9,10
 500 740 500 740 579.5 693 c 128,-1,11
 659 646 659 646 703 560.5 c 128,-1,12
 747 475 747 475 747 365 c 0,13,14
 747 229 747 229 680.5 133 c 128,-1,15
 614 37 614 37 501 5 c 1,16,-1
 501 3 l 1,17,18
 671 -17 671 -17 761 -102 c 1,19,-1
 747 -116 l 1,20,0
 636 -10 636 -10 397 -10 c 0,1,2
569.5 54.5 m 128,-1,22
 644 99 644 99 685.5 179.5 c 128,-1,23
 727 260 727 260 727 365 c 256,24,25
 727 470 727 470 685.5 550.5 c 128,-1,26
 644 631 644 631 569.5 675.5 c 128,-1,27
 495 720 495 720 397 720 c 256,28,29
 299 720 299 720 224.5 675.5 c 128,-1,30
 150 631 150 631 108.5 550.5 c 128,-1,31
 67 470 67 470 67 365 c 256,32,33
 67 260 67 260 108.5 179.5 c 128,-1,34
 150 99 150 99 224.5 54.5 c 128,-1,35
 299 10 299 10 397 10 c 256,36,21
 495 10 495 10 569.5 54.5 c 128,-1,22
EndSplineSet
EndChar

StartChar: R
Encoding: 82 82 141
Width: 593
GlyphClass: 2
Flags: W
AnchorPoint: "Anchor-6" 290 730 basechar 0
AnchorPoint: "Anchor-4" 290 0 basechar 0
LayerCount: 2
Fore
SplineSet
206 350 m 1,0,-1
 115 350 l 1,1,-1
 115 0 l 1,2,-1
 95 0 l 1,3,-1
 95 730 l 1,4,-1
 265 730 l 2,5,6
 407 730 407 730 471 685 c 128,-1,7
 535 640 535 640 535 540 c 256,8,9
 535 440 535 440 471 395 c 128,-1,10
 407 350 407 350 265 350 c 2,11,-1
 234 350 l 1,12,-1
 555 0 l 1,13,-1
 527 0 l 1,14,-1
 206 350 l 1,0,-1
115 370 m 1,15,-1
 265 370 l 2,16,17
 399 370 399 370 457 410 c 128,-1,18
 515 450 515 450 515 540 c 256,19,20
 515 630 515 630 457 670 c 128,-1,21
 399 710 399 710 265 710 c 2,22,-1
 115 710 l 1,23,-1
 115 370 l 1,15,-1
EndSplineSet
EndChar

StartChar: S
Encoding: 83 83 147
Width: 597
GlyphClass: 2
Flags: W
AnchorPoint: "Anchor-6" 296 730 basechar 0
AnchorPoint: "Anchor-4" 296 0 basechar 0
LayerCount: 2
Fore
SplineSet
173 5 m 128,-1,1
 115 20 115 20 66 48 c 1,2,-1
 77 66 l 1,3,4
 123 39 123 39 178.5 24.5 c 128,-1,5
 234 10 234 10 293 10 c 0,6,7
 396 10 396 10 454 55.5 c 128,-1,8
 512 101 512 101 512 183 c 0,9,10
 512 241 512 241 482.5 275.5 c 128,-1,11
 453 310 453 310 410 328.5 c 128,-1,12
 367 347 367 347 292 368 c 0,13,14
 218 389 218 389 173.5 408 c 128,-1,15
 129 427 129 427 98 463.5 c 128,-1,16
 67 500 67 500 67 561 c 0,17,18
 67 644 67 644 127 692 c 128,-1,19
 187 740 187 740 293 740 c 0,20,21
 351 740 351 740 414 726 c 128,-1,22
 477 712 477 712 515 690 c 1,23,-1
 504 672 l 1,24,25
 469 693 469 693 409.5 706.5 c 128,-1,26
 350 720 350 720 293 720 c 0,27,28
 196 720 196 720 141.5 678 c 128,-1,29
 87 636 87 636 86 561 c 0,30,31
 86 508 86 508 114 475 c 128,-1,32
 142 442 142 442 184 424.5 c 128,-1,33
 226 407 226 407 298 387 c 0,34,35
 373 366 373 366 419.5 346 c 128,-1,36
 466 326 466 326 498.5 287 c 128,-1,37
 531 248 531 248 531 183 c 0,38,39
 532 92 532 92 468.5 41 c 128,-1,40
 405 -10 405 -10 293 -10 c 0,41,0
 231 -10 231 -10 173 5 c 128,-1,1
EndSplineSet
EndChar

StartChar: Scedilla
Encoding: 350 350 150
Width: 597
GlyphClass: 2
Flags: W
AnchorPoint: "Anchor-6" 296 730 basechar 0
AnchorPoint: "Anchor-4" 296 0 basechar 0
LayerCount: 2
Fore
SplineSet
477.5 49 m 128,-1,1
 423 -1 423 -1 325 -9 c 1,2,3
 369 -38 369 -38 392.5 -70.5 c 128,-1,4
 416 -103 416 -103 416 -136 c 256,5,6
 416 -169 416 -169 389 -195 c 128,-1,7
 362 -221 362 -221 288 -221 c 0,8,9
 232 -221 232 -221 187 -200 c 1,10,-1
 195 -182 l 1,11,12
 236 -201 236 -201 288 -201 c 0,13,14
 333 -201 333 -201 364.5 -187 c 128,-1,15
 396 -173 396 -173 396 -136 c 0,16,17
 396 -73 396 -73 290 -10 c 1,18,19
 228 -9 228 -9 170.5 5.5 c 128,-1,20
 113 20 113 20 66 48 c 1,21,-1
 77 66 l 1,22,23
 123 39 123 39 178.5 24.5 c 128,-1,24
 234 10 234 10 293 10 c 0,25,26
 396 10 396 10 454 55.5 c 128,-1,27
 512 101 512 101 512 183 c 0,28,29
 512 241 512 241 482.5 275.5 c 128,-1,30
 453 310 453 310 410 328.5 c 128,-1,31
 367 347 367 347 292 368 c 0,32,33
 218 389 218 389 173.5 408 c 128,-1,34
 129 427 129 427 98 463.5 c 128,-1,35
 67 500 67 500 67 561 c 0,36,37
 67 644 67 644 127 692 c 128,-1,38
 187 740 187 740 293 740 c 0,39,40
 351 740 351 740 414 726 c 128,-1,41
 477 712 477 712 515 690 c 1,42,-1
 504 672 l 1,43,44
 469 693 469 693 409.5 706.5 c 128,-1,45
 350 720 350 720 293 720 c 0,46,47
 196 720 196 720 141.5 678 c 128,-1,48
 87 636 87 636 86 561 c 0,49,50
 86 508 86 508 114 475 c 128,-1,51
 142 442 142 442 184 424.5 c 128,-1,52
 226 407 226 407 298 387 c 0,53,54
 373 366 373 366 419.5 346 c 128,-1,55
 466 326 466 326 498.5 287 c 128,-1,56
 531 248 531 248 531 183 c 0,57,0
 532 99 532 99 477.5 49 c 128,-1,1
EndSplineSet
Substitution2: "'locl' Localized Forms in Latin lookup 4 subtable" uni0218
Substitution2: "'aalt' Access All Alternates in Latin lookup 0 subtable" uni0218
EndChar

StartChar: uni1E9E
Encoding: 7838 7838 153
Width: 642
Flags: W
LayerCount: 2
Fore
SplineSet
241 7 m 1,1,-1
 247 26 l 1,2,3
 301 10 301 10 366 10 c 0,4,5
 478 10 478 10 536.5 53.5 c 128,-1,6
 595 97 595 97 595 180 c 256,7,8
 595 263 595 263 537 306.5 c 128,-1,9
 479 350 479 350 369 350 c 2,10,-1
 349 350 l 1,11,-1
 349 379 l 1,12,-1
 508 572 l 1,13,14
 506 647 506 647 460 683.5 c 128,-1,15
 414 720 414 720 323 720 c 0,16,17
 216 720 216 720 165.5 668 c 128,-1,18
 115 616 115 616 115 505 c 2,19,-1
 115 0 l 1,20,-1
 95 0 l 1,21,-1
 95 505 l 2,22,23
 95 624 95 624 151 682 c 128,-1,24
 207 740 207 740 323 740 c 0,25,26
 528 740 528 740 528 565 c 1,27,-1
 369 372 l 1,28,-1
 369 370 l 1,29,30
 487 370 487 370 551 321 c 128,-1,31
 615 272 615 272 615 180 c 256,32,33
 615 88 615 88 550.5 39 c 128,-1,34
 486 -10 486 -10 366 -10 c 0,35,0
 299 -10 299 -10 241 7 c 1,1,-1
EndSplineSet
EndChar

StartChar: uni018F
Encoding: 399 399 154
Width: 752
Flags: W
LayerCount: 2
Fore
SplineSet
612 643 m 128,-1,1
 705 546 705 546 705 365 c 0,2,3
 705 248 705 248 666 163.5 c 128,-1,4
 627 79 627 79 552.5 34.5 c 128,-1,5
 478 -10 478 -10 375 -10 c 256,6,7
 272 -10 272 -10 197.5 34.5 c 128,-1,8
 123 79 123 79 84 163.5 c 128,-1,9
 45 248 45 248 45 365 c 2,10,-1
 45 368 l 1,11,-1
 685 368 l 1,12,13
 684 540 684 540 596.5 630 c 128,-1,14
 509 720 509 720 345 720 c 0,15,16
 276 720 276 720 208 704 c 128,-1,17
 140 688 140 688 84 658 c 1,18,-1
 75 676 l 1,19,20
 132 706 132 706 203 723 c 128,-1,21
 274 740 274 740 345 740 c 0,22,0
 519 740 519 740 612 643 c 128,-1,1
599.5 98.5 m 128,-1,24
 681 187 681 187 685 348 c 1,25,-1
 65 348 l 1,26,27
 69 187 69 187 150.5 98.5 c 128,-1,28
 232 10 232 10 375 10 c 256,29,23
 518 10 518 10 599.5 98.5 c 128,-1,24
EndSplineSet
EndChar

StartChar: T
Encoding: 84 84 155
Width: 616
GlyphClass: 2
Flags: W
AnchorPoint: "Anchor-8" 298 0 basechar 0
AnchorPoint: "Anchor-6" 308 730 basechar 0
AnchorPoint: "Anchor-4" 308 0 basechar 0
LayerCount: 2
Fore
SplineSet
298 710 m 1,0,-1
 28 710 l 1,1,-1
 28 730 l 1,2,-1
 588 730 l 1,3,-1
 588 710 l 1,4,-1
 318 710 l 1,5,-1
 318 0 l 1,6,-1
 298 0 l 1,7,-1
 298 710 l 1,0,-1
EndSplineSet
EndChar

StartChar: Tbar
Encoding: 358 358 156
Width: 672
GlyphClass: 2
Flags: W
AnchorPoint: "Anchor-8" 326 0 basechar 0
AnchorPoint: "Anchor-6" 336 730 basechar 0
AnchorPoint: "Anchor-4" 336 0 basechar 0
LayerCount: 2
Fore
SplineSet
616 710 m 1,0,-1
 346 710 l 1,1,-1
 346 325 l 1,2,-1
 546 325 l 1,3,-1
 546 305 l 1,4,-1
 346 305 l 1,5,-1
 346 0 l 1,6,-1
 326 0 l 1,7,-1
 326 305 l 1,8,-1
 126 305 l 1,9,-1
 126 325 l 1,10,-1
 326 325 l 1,11,-1
 326 710 l 1,12,-1
 56 710 l 1,13,-1
 56 730 l 1,14,-1
 616 730 l 1,15,-1
 616 710 l 1,0,-1
EndSplineSet
EndChar

StartChar: uni0162
Encoding: 354 354 158
Width: 616
GlyphClass: 2
Flags: W
AnchorPoint: "Anchor-8" 298 0 basechar 0
AnchorPoint: "Anchor-6" 308 730 basechar 0
AnchorPoint: "Anchor-4" 308 0 basechar 0
LayerCount: 2
Fore
SplineSet
318 710 m 1,0,-1
 318 11 l 1,1,2
 376 -21 376 -21 408 -58.5 c 128,-1,3
 440 -96 440 -96 440 -135 c 0,4,5
 440 -168 440 -168 413 -194 c 128,-1,6
 386 -220 386 -220 312 -220 c 0,7,8
 256 -220 256 -220 211 -199 c 1,9,-1
 219 -181 l 1,10,11
 260 -200 260 -200 312 -200 c 0,12,13
 357 -200 357 -200 388.5 -186 c 128,-1,14
 420 -172 420 -172 420 -135 c 0,15,16
 420 -101 420 -101 388.5 -66.5 c 128,-1,17
 357 -32 357 -32 298 0 c 1,18,-1
 298 710 l 1,19,-1
 28 710 l 1,20,-1
 28 730 l 1,21,-1
 588 730 l 1,22,-1
 588 710 l 1,23,-1
 318 710 l 1,0,-1
EndSplineSet
Substitution2: "'locl' Localized Forms in Latin lookup 4 subtable" uni021A
Substitution2: "'aalt' Access All Alternates in Latin lookup 0 subtable" uni021A
EndChar

StartChar: U
Encoding: 85 85 160
Width: 690
GlyphClass: 2
Flags: W
AnchorPoint: "Anchor-7" 605 690 basechar 0
AnchorPoint: "Anchor-6" 345 730 basechar 0
AnchorPoint: "Anchor-5" 454 10 basechar 0
AnchorPoint: "Anchor-4" 345 0 basechar 0
LayerCount: 2
Fore
SplineSet
150.5 60.5 m 128,-1,1
 85 131 85 131 85 270 c 2,2,-1
 85 730 l 1,3,-1
 105 730 l 1,4,-1
 105 270 l 2,5,6
 105 10 105 10 345 10 c 256,7,8
 585 10 585 10 585 270 c 2,9,-1
 585 730 l 1,10,-1
 605 730 l 1,11,-1
 605 270 l 2,12,13
 605 131 605 131 539.5 60.5 c 128,-1,14
 474 -10 474 -10 345 -10 c 256,15,0
 216 -10 216 -10 150.5 60.5 c 128,-1,1
EndSplineSet
EndChar

StartChar: Uhorn
Encoding: 431 431 169
Width: 730
GlyphClass: 2
Flags: W
AnchorPoint: "Anchor-7" 770 845 basechar 0
AnchorPoint: "Anchor-6" 345 730 basechar 0
AnchorPoint: "Anchor-5" 454 10 basechar 0
AnchorPoint: "Anchor-4" 345 0 basechar 0
LayerCount: 2
Fore
SplineSet
750 753 m 0,1,2
 750 706 750 706 728 680.5 c 128,-1,3
 706 655 706 655 665 655 c 0,4,5
 636 655 636 655 605 668 c 1,6,-1
 605 270 l 2,7,8
 605 131 605 131 539.5 60.5 c 128,-1,9
 474 -10 474 -10 345 -10 c 256,10,11
 216 -10 216 -10 150.5 60.5 c 128,-1,12
 85 131 85 131 85 270 c 2,13,-1
 85 730 l 1,14,-1
 105 730 l 1,15,-1
 105 270 l 2,16,17
 105 10 105 10 345 10 c 256,18,19
 585 10 585 10 585 270 c 2,20,-1
 585 730 l 1,21,-1
 605 730 l 1,22,-1
 605 690 l 1,23,24
 635 675 635 675 665 675 c 0,25,26
 730 675 730 675 730 753 c 0,27,28
 730 776 730 776 725 801.5 c 128,-1,29
 720 827 720 827 713 845 c 1,30,-1
 734 845 l 1,31,0
 750 797 750 797 750 753 c 0,1,2
EndSplineSet
EndChar

StartChar: Uogonek
Encoding: 370 370 178
Width: 690
GlyphClass: 2
Flags: W
AnchorPoint: "Anchor-7" 605 690 basechar 0
AnchorPoint: "Anchor-6" 345 730 basechar 0
AnchorPoint: "Anchor-5" 454 10 basechar 0
AnchorPoint: "Anchor-4" 345 0 basechar 0
LayerCount: 2
Fore
SplineSet
359.5 -61.5 m 128,-1,1
 332 -94 332 -94 332 -125 c 0,2,3
 332 -162 332 -162 363.5 -176 c 128,-1,4
 395 -190 395 -190 440 -190 c 0,5,6
 492 -190 492 -190 533 -171 c 1,7,-1
 541 -189 l 1,8,9
 496 -210 496 -210 440 -210 c 0,10,11
 366 -210 366 -210 339 -184 c 128,-1,12
 312 -158 312 -158 312 -125 c 0,13,14
 312 -95 312 -95 332 -65 c 128,-1,15
 352 -35 352 -35 389 -8 c 1,16,17
 361 -10 361 -10 345 -10 c 0,18,19
 216 -10 216 -10 150.5 60.5 c 128,-1,20
 85 131 85 131 85 270 c 2,21,-1
 85 730 l 1,22,-1
 105 730 l 1,23,-1
 105 270 l 2,24,25
 105 10 105 10 345 10 c 256,26,27
 585 10 585 10 585 270 c 2,28,-1
 585 730 l 1,29,-1
 605 730 l 1,30,-1
 605 270 l 2,31,32
 605 160 605 160 563 92 c 128,-1,33
 521 24 521 24 439 2 c 1,34,0
 387 -29 387 -29 359.5 -61.5 c 128,-1,1
EndSplineSet
EndChar

StartChar: V
Encoding: 86 86 181
Width: 648
Flags: W
LayerCount: 2
Fore
SplineSet
19 730 m 1,0,-1
 41 730 l 1,1,-1
 323 20 l 1,2,-1
 325 20 l 1,3,-1
 607 730 l 1,4,-1
 629 730 l 1,5,-1
 339 0 l 1,6,-1
 309 0 l 1,7,-1
 19 730 l 1,0,-1
EndSplineSet
EndChar

StartChar: W
Encoding: 87 87 182
Width: 890
GlyphClass: 2
Flags: W
AnchorPoint: "Anchor-6" 445 730 basechar 0
AnchorPoint: "Anchor-4" 445 0 basechar 0
LayerCount: 2
Fore
SplineSet
446 713 m 1,0,-1
 444 713 l 1,1,-1
 251 0 l 1,2,-1
 219 0 l 1,3,-1
 30 730 l 1,4,-1
 51 730 l 1,5,-1
 234 17 l 1,6,-1
 236 17 l 1,7,-1
 429 730 l 1,8,-1
 461 730 l 1,9,-1
 654 17 l 1,10,-1
 656 17 l 1,11,-1
 839 730 l 1,12,-1
 860 730 l 1,13,-1
 671 0 l 1,14,-1
 639 0 l 1,15,-1
 446 713 l 1,0,-1
EndSplineSet
EndChar

StartChar: X
Encoding: 88 88 187
Width: 688
Flags: W
LayerCount: 2
Fore
SplineSet
332 369 m 1,0,-1
 70 730 l 1,1,-1
 95 730 l 1,2,-1
 343 387 l 1,3,-1
 345 387 l 1,4,-1
 593 730 l 1,5,-1
 618 730 l 1,6,-1
 356 369 l 1,7,-1
 624 0 l 1,8,-1
 599 0 l 1,9,-1
 345 352 l 1,10,-1
 343 352 l 1,11,-1
 89 0 l 1,12,-1
 64 0 l 1,13,-1
 332 369 l 1,0,-1
EndSplineSet
EndChar

StartChar: Y
Encoding: 89 89 188
Width: 622
GlyphClass: 2
Flags: W
AnchorPoint: "Anchor-6" 311 730 basechar 0
AnchorPoint: "Anchor-4" 311 0 basechar 0
LayerCount: 2
Fore
SplineSet
301 317 m 1,0,-1
 11 730 l 1,1,-1
 35 730 l 1,2,-1
 310 338 l 1,3,-1
 312 338 l 1,4,-1
 587 730 l 1,5,-1
 611 730 l 1,6,-1
 321 317 l 1,7,-1
 321 0 l 1,8,-1
 301 0 l 1,9,-1
 301 317 l 1,0,-1
EndSplineSet
EndChar

StartChar: Z
Encoding: 90 90 197
Width: 632
GlyphClass: 2
Flags: W
AnchorPoint: "Anchor-6" 316 730 basechar 0
AnchorPoint: "Anchor-4" 316 0 basechar 0
LayerCount: 2
Fore
SplineSet
76 20 m 1,0,-1
 530 708 l 1,1,-1
 530 710 l 1,2,-1
 76 710 l 1,3,-1
 76 730 l 1,4,-1
 556 730 l 1,5,-1
 556 710 l 1,6,-1
 102 22 l 1,7,-1
 102 20 l 1,8,-1
 556 20 l 1,9,-1
 556 0 l 1,10,-1
 76 0 l 1,11,-1
 76 20 l 1,0,-1
EndSplineSet
EndChar

StartChar: a
Encoding: 97 97 201
Width: 511
GlyphClass: 2
Flags: W
AnchorPoint: "Anchor-6" 240 520 basechar 0
AnchorPoint: "Anchor-5" 434 0 basechar 0
AnchorPoint: "Anchor-4" 240 0 basechar 0
LayerCount: 2
Fore
SplineSet
393 484 m 128,-1,1
 434 438 434 438 434 330 c 2,2,-1
 434 0 l 1,3,-1
 414 0 l 1,4,-1
 414 116 l 1,5,-1
 412 116 l 1,6,7
 385 58 385 58 330 24 c 128,-1,8
 275 -10 275 -10 205 -10 c 0,9,10
 128 -10 128 -10 81 31 c 128,-1,11
 34 72 34 72 34 140 c 0,12,13
 34 229 34 229 116.5 277 c 128,-1,14
 199 325 199 325 351 325 c 2,15,-1
 414 325 l 1,16,-1
 414 330 l 2,17,18
 414 397 414 397 398.5 436 c 128,-1,19
 383 475 383 475 349 492.5 c 128,-1,20
 315 510 315 510 256 510 c 0,21,22
 153 510 153 510 63 462 c 1,23,-1
 54 480 l 1,24,25
 149 530 149 530 256 530 c 0,26,0
 352 530 352 530 393 484 c 128,-1,1
312 36 m 128,-1,28
 360 62 360 62 387 107.5 c 128,-1,29
 414 153 414 153 414 210 c 2,30,-1
 414 305 l 1,31,-1
 351 305 l 2,32,33
 208 305 208 305 131 262.5 c 128,-1,34
 54 220 54 220 54 140 c 0,35,36
 54 81 54 81 95 45.5 c 128,-1,37
 136 10 136 10 205 10 c 0,38,27
 264 10 264 10 312 36 c 128,-1,28
EndSplineSet
Substitution2: "Single Substitution lookup 21 subtable" ordfeminine
Substitution2: "'aalt' Access All Alternates in Latin lookup 0 subtable" ordfeminine
EndChar

StartChar: aogonek
Encoding: 261 261 222
Width: 511
GlyphClass: 2
Flags: W
AnchorPoint: "Anchor-6" 240 520 basechar 0
AnchorPoint: "Anchor-5" 434 0 basechar 0
AnchorPoint: "Anchor-4" 240 0 basechar 0
LayerCount: 2
Fore
SplineSet
521 -199 m 1,0,1
 476 -220 476 -220 420 -220 c 0,2,3
 346 -220 346 -220 319 -194 c 128,-1,4
 292 -168 292 -168 292 -135 c 0,5,6
 292 -96 292 -96 324 -58.5 c 128,-1,7
 356 -21 356 -21 414 11 c 1,8,-1
 414 116 l 1,9,-1
 412 116 l 1,10,11
 385 58 385 58 330 24 c 128,-1,12
 275 -10 275 -10 205 -10 c 0,13,14
 128 -10 128 -10 81 31 c 128,-1,15
 34 72 34 72 34 140 c 0,16,17
 34 229 34 229 116.5 277 c 128,-1,18
 199 325 199 325 351 325 c 2,19,-1
 414 325 l 1,20,-1
 414 330 l 2,21,22
 414 397 414 397 398.5 436 c 128,-1,23
 383 475 383 475 349 492.5 c 128,-1,24
 315 510 315 510 256 510 c 0,25,26
 153 510 153 510 63 462 c 1,27,-1
 54 480 l 1,28,29
 149 530 149 530 256 530 c 0,30,31
 352 530 352 530 393 484 c 128,-1,32
 434 438 434 438 434 330 c 2,33,-1
 434 0 l 1,34,35
 375 -32 375 -32 343.5 -66.5 c 128,-1,36
 312 -101 312 -101 312 -135 c 0,37,38
 312 -172 312 -172 343.5 -186 c 128,-1,39
 375 -200 375 -200 420 -200 c 0,40,41
 472 -200 472 -200 513 -181 c 1,42,-1
 521 -199 l 1,0,1
312 36 m 128,-1,44
 360 62 360 62 387 107.5 c 128,-1,45
 414 153 414 153 414 210 c 2,46,-1
 414 305 l 1,47,-1
 351 305 l 2,48,49
 208 305 208 305 131 262.5 c 128,-1,50
 54 220 54 220 54 140 c 0,51,52
 54 81 54 81 95 45.5 c 128,-1,53
 136 10 136 10 205 10 c 0,54,43
 264 10 264 10 312 36 c 128,-1,44
EndSplineSet
EndChar

StartChar: aring
Encoding: 229 229 223
Width: 511
GlyphClass: 2
Flags: W
AnchorPoint: "Anchor-6" 240 710 basechar 0
AnchorPoint: "Anchor-5" 434 0 basechar 0
AnchorPoint: "Anchor-4" 240 0 basechar 0
LayerCount: 2
Fore
SplineSet
397 479.5 m 128,-1,1
 434 433 434 433 434 330 c 2,2,-1
 434 0 l 1,3,-1
 414 0 l 1,4,-1
 414 116 l 1,5,-1
 412 116 l 1,6,7
 385 58 385 58 330 24 c 128,-1,8
 275 -10 275 -10 205 -10 c 0,9,10
 128 -10 128 -10 81 31 c 128,-1,11
 34 72 34 72 34 140 c 0,12,13
 34 229 34 229 116.5 277 c 128,-1,14
 199 325 199 325 351 325 c 2,15,-1
 414 325 l 1,16,-1
 414 330 l 2,17,18
 414 397 414 397 398.5 436 c 128,-1,19
 383 475 383 475 349 492.5 c 128,-1,20
 315 510 315 510 256 510 c 0,21,22
 153 510 153 510 63 462 c 1,23,-1
 54 480 l 1,24,25
 129 519 129 519 213 528 c 1,26,27
 171 537 171 537 143 571 c 128,-1,28
 115 605 115 605 115 650 c 0,29,30
 115 702 115 702 151.5 738.5 c 128,-1,31
 188 775 188 775 240 775 c 256,32,33
 292 775 292 775 328.5 738.5 c 128,-1,34
 365 702 365 702 365 650 c 0,35,36
 365 607 365 607 339.5 574 c 128,-1,37
 314 541 314 541 274 530 c 1,38,0
 360 526 360 526 397 479.5 c 128,-1,1
166 576 m 128,-1,40
 197 545 197 545 240 545 c 0,41,42
 284 545 284 545 314.5 576 c 128,-1,43
 345 607 345 607 345 650 c 0,44,45
 345 694 345 694 314.5 724.5 c 128,-1,46
 284 755 284 755 240 755 c 0,47,48
 197 755 197 755 166 724.5 c 128,-1,49
 135 694 135 694 135 650 c 0,50,39
 135 607 135 607 166 576 c 128,-1,40
312 36 m 128,-1,52
 360 62 360 62 387 107.5 c 128,-1,53
 414 153 414 153 414 210 c 2,54,-1
 414 305 l 1,55,-1
 351 305 l 2,56,57
 208 305 208 305 131 262.5 c 128,-1,58
 54 220 54 220 54 140 c 0,59,60
 54 81 54 81 95 45.5 c 128,-1,61
 136 10 136 10 205 10 c 0,62,51
 264 10 264 10 312 36 c 128,-1,52
EndSplineSet
EndChar

StartChar: aringacute
Encoding: 507 507 224
Width: 511
GlyphClass: 2
Flags: W
AnchorPoint: "Anchor-6" 240 710 basechar 0
AnchorPoint: "Anchor-5" 434 0 basechar 0
AnchorPoint: "Anchor-4" 240 0 basechar 0
LayerCount: 2
Fore
SplineSet
397 479.5 m 128,-1,1
 434 433 434 433 434 330 c 2,2,-1
 434 0 l 1,3,-1
 414 0 l 1,4,-1
 414 116 l 1,5,-1
 412 116 l 1,6,7
 385 58 385 58 330 24 c 128,-1,8
 275 -10 275 -10 205 -10 c 0,9,10
 128 -10 128 -10 81 31 c 128,-1,11
 34 72 34 72 34 140 c 0,12,13
 34 229 34 229 116.5 277 c 128,-1,14
 199 325 199 325 351 325 c 2,15,-1
 414 325 l 1,16,-1
 414 330 l 2,17,18
 414 397 414 397 398.5 436 c 128,-1,19
 383 475 383 475 349 492.5 c 128,-1,20
 315 510 315 510 256 510 c 0,21,22
 153 510 153 510 63 462 c 1,23,-1
 54 480 l 1,24,25
 129 519 129 519 213 528 c 1,26,27
 171 537 171 537 143 571 c 128,-1,28
 115 605 115 605 115 650 c 0,29,30
 115 682 115 682 130 709 c 128,-1,31
 145 736 145 736 170 754 c 1,32,-1
 289 960 l 1,33,-1
 312 960 l 1,34,-1
 202 769 l 1,35,36
 220 775 220 775 240 775 c 0,37,38
 292 775 292 775 328.5 738.5 c 128,-1,39
 365 702 365 702 365 650 c 0,40,41
 365 607 365 607 339.5 574 c 128,-1,42
 314 541 314 541 274 530 c 1,43,0
 360 526 360 526 397 479.5 c 128,-1,1
166 576 m 128,-1,45
 197 545 197 545 240 545 c 0,46,47
 284 545 284 545 314.5 576 c 128,-1,48
 345 607 345 607 345 650 c 0,49,50
 345 694 345 694 314.5 724.5 c 128,-1,51
 284 755 284 755 240 755 c 0,52,53
 197 755 197 755 166 724.5 c 128,-1,54
 135 694 135 694 135 650 c 0,55,44
 135 607 135 607 166 576 c 128,-1,45
312 36 m 128,-1,57
 360 62 360 62 387 107.5 c 128,-1,58
 414 153 414 153 414 210 c 2,59,-1
 414 305 l 1,60,-1
 351 305 l 2,61,62
 208 305 208 305 131 262.5 c 128,-1,63
 54 220 54 220 54 140 c 0,64,65
 54 81 54 81 95 45.5 c 128,-1,66
 136 10 136 10 205 10 c 0,67,56
 264 10 264 10 312 36 c 128,-1,57
EndSplineSet
EndChar

StartChar: ae
Encoding: 230 230 226
Width: 895
GlyphClass: 2
Flags: W
AnchorPoint: "Anchor-6" 448 520 basechar 0
AnchorPoint: "Anchor-4" 448 0 basechar 0
LayerCount: 2
Fore
SplineSet
854 258 m 1,0,-1
 434 258 l 1,1,2
 435 138 435 138 492 74 c 128,-1,3
 549 10 549 10 654 10 c 0,4,5
 699 10 699 10 743 21.5 c 128,-1,6
 787 33 787 33 824 53 c 1,7,-1
 834 36 l 1,8,9
 796 14 796 14 749 2 c 128,-1,10
 702 -10 702 -10 654 -10 c 0,11,12
 566 -10 566 -10 508 32 c 128,-1,13
 450 74 450 74 427 154 c 1,14,15
 409 81 409 81 348.5 35.5 c 128,-1,16
 288 -10 288 -10 205 -10 c 0,17,18
 128 -10 128 -10 81 31 c 128,-1,19
 34 72 34 72 34 140 c 0,20,21
 34 229 34 229 116.5 277 c 128,-1,22
 199 325 199 325 351 325 c 2,23,-1
 414 325 l 1,24,-1
 414 330 l 2,25,26
 414 397 414 397 398.5 436 c 128,-1,27
 383 475 383 475 349 492.5 c 128,-1,28
 315 510 315 510 256 510 c 0,29,30
 153 510 153 510 63 462 c 1,31,-1
 54 480 l 1,32,33
 149 530 149 530 256 530 c 0,34,35
 340 530 340 530 381 495.5 c 128,-1,36
 422 461 422 461 431 383 c 1,37,38
 454 455 454 455 506 492.5 c 128,-1,39
 558 530 558 530 634 530 c 0,40,41
 739 530 739 530 796.5 459.5 c 128,-1,42
 854 389 854 389 854 260 c 2,43,-1
 854 258 l 1,0,-1
490 450.5 m 128,-1,45
 438 391 438 391 434 278 c 1,46,-1
 834 278 l 1,47,48
 830 391 830 391 778 450.5 c 128,-1,49
 726 510 726 510 634 510 c 256,50,44
 542 510 542 510 490 450.5 c 128,-1,45
414 305 m 1,51,-1
 351 305 l 2,52,53
 208 305 208 305 131 262.5 c 128,-1,54
 54 220 54 220 54 140 c 0,55,56
 54 81 54 81 95 45.5 c 128,-1,57
 136 10 136 10 205 10 c 0,58,59
 264 10 264 10 312 36 c 128,-1,60
 360 62 360 62 387 107.5 c 128,-1,61
 414 153 414 153 414 210 c 2,62,-1
 414 305 l 1,51,-1
EndSplineSet
EndChar

StartChar: b
Encoding: 98 98 228
Width: 552
Flags: W
LayerCount: 2
Fore
SplineSet
449 458 m 128,-1,1
 505 386 505 386 505 260 c 256,2,3
 505 134 505 134 449 62 c 128,-1,4
 393 -10 393 -10 295 -10 c 0,5,6
 229 -10 229 -10 180 24.5 c 128,-1,7
 131 59 131 59 107 120 c 1,8,-1
 105 120 l 1,9,-1
 105 0 l 1,10,-1
 85 0 l 1,11,-1
 85 750 l 1,12,-1
 105 750 l 1,13,-1
 105 400 l 1,14,-1
 107 400 l 1,15,16
 131 461 131 461 180 495.5 c 128,-1,17
 229 530 229 530 295 530 c 0,18,0
 393 530 393 530 449 458 c 128,-1,1
434.5 76.5 m 128,-1,20
 485 143 485 143 485 260 c 256,21,22
 485 377 485 377 434.5 443.5 c 128,-1,23
 384 510 384 510 295 510 c 0,24,25
 209 510 209 510 157 449 c 128,-1,26
 105 388 105 388 105 285 c 2,27,-1
 105 235 l 2,28,29
 105 132 105 132 157 71 c 128,-1,30
 209 10 209 10 295 10 c 0,31,19
 384 10 384 10 434.5 76.5 c 128,-1,20
EndSplineSet
EndChar

StartChar: c
Encoding: 99 99 229
Width: 510
GlyphClass: 2
Flags: W
AnchorPoint: "Anchor-6" 265 520 basechar 0
AnchorPoint: "Anchor-4" 265 0 basechar 0
LayerCount: 2
Fore
SplineSet
160.5 23 m 128,-1,1
 104 56 104 56 73.5 117 c 128,-1,2
 43 178 43 178 43 260 c 256,3,4
 43 342 43 342 73.5 403 c 128,-1,5
 104 464 104 464 160.5 497 c 128,-1,6
 217 530 217 530 293 530 c 0,7,8
 366 530 366 530 433 495 c 1,9,-1
 424 477 l 1,10,11
 361 510 361 510 293 510 c 0,12,13
 186 510 186 510 124.5 443 c 128,-1,14
 63 376 63 376 63 260 c 256,15,16
 63 144 63 144 124.5 77 c 128,-1,17
 186 10 186 10 293 10 c 0,18,19
 361 10 361 10 424 43 c 1,20,-1
 433 25 l 1,21,22
 366 -10 366 -10 293 -10 c 0,23,0
 217 -10 217 -10 160.5 23 c 128,-1,1
EndSplineSet
EndChar

StartChar: ccedilla
Encoding: 231 231 232
Width: 510
GlyphClass: 2
Flags: W
AnchorPoint: "Anchor-6" 265 520 basechar 0
AnchorPoint: "Anchor-4" 265 0 basechar 0
LayerCount: 2
Fore
SplineSet
433 25 m 1,0,1
 367 -10 367 -10 295 -10 c 1,2,3
 384 -70 384 -70 384 -136 c 0,4,5
 384 -169 384 -169 357 -195 c 128,-1,6
 330 -221 330 -221 256 -221 c 0,7,8
 200 -221 200 -221 155 -200 c 1,9,-1
 163 -182 l 1,10,11
 204 -201 204 -201 256 -201 c 0,12,13
 301 -201 301 -201 332.5 -187 c 128,-1,14
 364 -173 364 -173 364 -136 c 0,15,16
 364 -72 364 -72 254 -8 c 1,17,18
 155 5 155 5 99 76 c 128,-1,19
 43 147 43 147 43 260 c 0,20,21
 43 342 43 342 73.5 403 c 128,-1,22
 104 464 104 464 160.5 497 c 128,-1,23
 217 530 217 530 293 530 c 0,24,25
 366 530 366 530 433 495 c 1,26,-1
 424 477 l 1,27,28
 361 510 361 510 293 510 c 0,29,30
 186 510 186 510 124.5 443 c 128,-1,31
 63 376 63 376 63 260 c 256,32,33
 63 144 63 144 124.5 77 c 128,-1,34
 186 10 186 10 293 10 c 0,35,36
 361 10 361 10 424 43 c 1,37,-1
 433 25 l 1,0,1
EndSplineSet
EndChar

StartChar: d
Encoding: 100 100 235
Width: 552
Flags: W
LayerCount: 2
Fore
SplineSet
467 750 m 1,0,-1
 467 0 l 1,1,-1
 447 0 l 1,2,-1
 447 120 l 1,3,-1
 445 120 l 1,4,5
 421 59 421 59 372 24.5 c 128,-1,6
 323 -10 323 -10 257 -10 c 0,7,8
 159 -10 159 -10 103 62 c 128,-1,9
 47 134 47 134 47 260 c 256,10,11
 47 386 47 386 103 458 c 128,-1,12
 159 530 159 530 257 530 c 0,13,14
 323 530 323 530 372 495.5 c 128,-1,15
 421 461 421 461 445 400 c 1,16,-1
 447 400 l 1,17,-1
 447 750 l 1,18,-1
 467 750 l 1,0,-1
395 71 m 128,-1,20
 447 132 447 132 447 235 c 2,21,-1
 447 285 l 2,22,23
 447 388 447 388 395 449 c 128,-1,24
 343 510 343 510 257 510 c 0,25,26
 168 510 168 510 117.5 443.5 c 128,-1,27
 67 377 67 377 67 260 c 256,28,29
 67 143 67 143 117.5 76.5 c 128,-1,30
 168 10 168 10 257 10 c 0,31,19
 343 10 343 10 395 71 c 128,-1,20
EndSplineSet
EndChar

StartChar: eth
Encoding: 240 240 236
Width: 570
Flags: W
LayerCount: 2
Fore
SplineSet
366 626 m 1,0,1
 432 537 432 537 472.5 431.5 c 128,-1,2
 513 326 513 326 513 235 c 0,3,4
 513 122 513 122 450 56 c 128,-1,5
 387 -10 387 -10 278 -10 c 256,6,7
 169 -10 169 -10 106 56 c 128,-1,8
 43 122 43 122 43 235 c 256,9,10
 43 348 43 348 106 414 c 128,-1,11
 169 480 169 480 278 480 c 0,12,13
 338 480 338 480 384.5 459 c 128,-1,14
 431 438 431 438 462 398 c 1,15,-1
 464 399 l 1,16,17
 424 516 424 516 347 619 c 1,18,-1
 104 522 l 1,19,-1
 96 540 l 1,20,-1
 335 635 l 1,21,22
 247 745 247 745 163 772 c 1,23,-1
 170 790 l 1,24,25
 216 775 216 775 263 736 c 128,-1,26
 310 697 310 697 353 642 c 1,27,-1
 536 715 l 1,28,-1
 544 697 l 1,29,-1
 366 626 l 1,0,1
435.5 70 m 128,-1,31
 493 130 493 130 493 235 c 256,32,33
 493 340 493 340 435.5 400 c 128,-1,34
 378 460 378 460 278 460 c 256,35,36
 178 460 178 460 120.5 400 c 128,-1,37
 63 340 63 340 63 235 c 256,38,39
 63 130 63 130 120.5 70 c 128,-1,40
 178 10 178 10 278 10 c 256,41,30
 378 10 378 10 435.5 70 c 128,-1,31
EndSplineSet
EndChar

StartChar: dcroat
Encoding: 273 273 238
Width: 617
Flags: W
LayerCount: 2
Fore
SplineSet
587 615 m 1,0,-1
 467 615 l 1,1,-1
 467 0 l 1,2,-1
 447 0 l 1,3,-1
 447 120 l 1,4,-1
 445 120 l 1,5,6
 421 59 421 59 372 24.5 c 128,-1,7
 323 -10 323 -10 257 -10 c 0,8,9
 159 -10 159 -10 103 62 c 128,-1,10
 47 134 47 134 47 260 c 256,11,12
 47 386 47 386 103 458 c 128,-1,13
 159 530 159 530 257 530 c 0,14,15
 323 530 323 530 372 495.5 c 128,-1,16
 421 461 421 461 445 400 c 1,17,-1
 447 400 l 1,18,-1
 447 615 l 1,19,-1
 167 615 l 1,20,-1
 167 635 l 1,21,-1
 447 635 l 1,22,-1
 447 750 l 1,23,-1
 467 750 l 1,24,-1
 467 635 l 1,25,-1
 587 635 l 1,26,-1
 587 615 l 1,0,-1
395 71 m 128,-1,28
 447 132 447 132 447 235 c 2,29,-1
 447 285 l 2,30,31
 447 388 447 388 395 449 c 128,-1,32
 343 510 343 510 257 510 c 0,33,34
 168 510 168 510 117.5 443.5 c 128,-1,35
 67 377 67 377 67 260 c 256,36,37
 67 143 67 143 117.5 76.5 c 128,-1,38
 168 10 168 10 257 10 c 0,39,27
 343 10 343 10 395 71 c 128,-1,28
EndSplineSet
EndChar

StartChar: e
Encoding: 101 101 240
Width: 524
GlyphClass: 2
Flags: W
AnchorPoint: "Anchor-6" 264 520 basechar 0
AnchorPoint: "Anchor-5" 463 36 basechar 0
AnchorPoint: "Anchor-4" 264 0 basechar 0
LayerCount: 2
Fore
SplineSet
483 258 m 1,0,-1
 63 258 l 1,1,2
 64 137 64 137 122 73.5 c 128,-1,3
 180 10 180 10 288 10 c 0,4,5
 376 10 376 10 454 48 c 1,6,-1
 463 30 l 1,7,8
 380 -10 380 -10 288 -10 c 0,9,10
 170 -10 170 -10 106.5 60 c 128,-1,11
 43 130 43 130 43 260 c 0,12,13
 43 389 43 389 100.5 459.5 c 128,-1,14
 158 530 158 530 263 530 c 256,15,16
 368 530 368 530 425.5 459.5 c 128,-1,17
 483 389 483 389 483 260 c 2,18,-1
 483 258 l 1,0,-1
119 450.5 m 128,-1,20
 67 391 67 391 63 278 c 1,21,-1
 463 278 l 1,22,23
 459 391 459 391 407 450.5 c 128,-1,24
 355 510 355 510 263 510 c 256,25,19
 171 510 171 510 119 450.5 c 128,-1,20
EndSplineSet
EndChar

StartChar: eogonek
Encoding: 281 281 258
Width: 524
GlyphClass: 2
Flags: W
AnchorPoint: "Anchor-6" 264 520 basechar 0
AnchorPoint: "Anchor-5" 463 36 basechar 0
AnchorPoint: "Anchor-4" 264 0 basechar 0
LayerCount: 2
Fore
SplineSet
550 -163 m 1,0,1
 505 -184 505 -184 449 -184 c 0,2,3
 375 -184 375 -184 348 -158 c 128,-1,4
 321 -132 321 -132 321 -99 c 0,5,6
 321 -48 321 -48 374 0 c 1,7,8
 334 -10 334 -10 288 -10 c 0,9,10
 170 -10 170 -10 106.5 60 c 128,-1,11
 43 130 43 130 43 260 c 0,12,13
 43 389 43 389 100.5 459.5 c 128,-1,14
 158 530 158 530 263 530 c 256,15,16
 368 530 368 530 425.5 459.5 c 128,-1,17
 483 389 483 389 483 260 c 2,18,-1
 483 258 l 1,19,-1
 63 258 l 1,20,21
 64 137 64 137 122 73.5 c 128,-1,22
 180 10 180 10 288 10 c 0,23,24
 357 10 357 10 420 34 c 1,25,-1
 443 47 l 1,26,-1
 447 45 l 1,27,-1
 454 48 l 1,28,-1
 459 38 l 1,29,-1
 463 36 l 1,30,-1
 461 35 l 1,31,-1
 463 30 l 1,32,-1
 428 15 l 1,33,34
 341 -41 341 -41 341 -99 c 0,35,36
 341 -136 341 -136 372.5 -150 c 128,-1,37
 404 -164 404 -164 449 -164 c 0,38,39
 501 -164 501 -164 542 -145 c 1,40,-1
 550 -163 l 1,0,1
119 450.5 m 128,-1,42
 67 391 67 391 63 278 c 1,43,-1
 463 278 l 1,44,45
 459 391 459 391 407 450.5 c 128,-1,46
 355 510 355 510 263 510 c 256,47,41
 171 510 171 510 119 450.5 c 128,-1,42
EndSplineSet
EndChar

StartChar: uni0259
Encoding: 601 601 260
Width: 524
GlyphClass: 2
Flags: W
AnchorPoint: "Anchor-6" 260 520 basechar 0
AnchorPoint: "Anchor-5" 61 484 basechar 0
AnchorPoint: "Anchor-4" 260 0 basechar 0
LayerCount: 2
Fore
SplineSet
417.5 460 m 128,-1,1
 481 390 481 390 481 260 c 0,2,3
 481 131 481 131 423.5 60.5 c 128,-1,4
 366 -10 366 -10 261 -10 c 256,5,6
 156 -10 156 -10 98.5 60.5 c 128,-1,7
 41 131 41 131 41 260 c 2,8,-1
 41 262 l 1,9,-1
 461 262 l 1,10,11
 460 383 460 383 402 446.5 c 128,-1,12
 344 510 344 510 236 510 c 0,13,14
 148 510 148 510 70 472 c 1,15,-1
 61 490 l 1,16,17
 144 530 144 530 236 530 c 0,18,0
 354 530 354 530 417.5 460 c 128,-1,1
405 69.5 m 128,-1,20
 457 129 457 129 461 242 c 1,21,-1
 61 242 l 1,22,23
 65 129 65 129 117 69.5 c 128,-1,24
 169 10 169 10 261 10 c 256,25,19
 353 10 353 10 405 69.5 c 128,-1,20
EndSplineSet
EndChar

StartChar: f
Encoding: 102 102 261
Width: 409
Flags: W
LayerCount: 2
Fore
SplineSet
26 500 m 1,0,-1
 26 520 l 1,1,-1
 181 520 l 1,2,-1
 181 610 l 2,3,4
 181 686 181 686 212.5 723 c 128,-1,5
 244 760 244 760 309 760 c 0,6,7
 346 760 346 760 383 745 c 1,8,-1
 375 726 l 1,9,10
 343 740 343 740 309 740 c 0,11,12
 253 740 253 740 227 709 c 128,-1,13
 201 678 201 678 201 610 c 2,14,-1
 201 520 l 1,15,-1
 381 520 l 1,16,-1
 381 500 l 1,17,-1
 201 500 l 1,18,-1
 201 0 l 1,19,-1
 181 0 l 1,20,-1
 181 500 l 1,21,-1
 26 500 l 1,0,-1
EndSplineSet
EndChar

StartChar: g
Encoding: 103 103 262
Width: 552
GlyphClass: 2
Flags: W
AnchorPoint: "Anchor-6" 270 520 basechar 0
AnchorPoint: "Anchor-4" 270 -140 basechar 0
LayerCount: 2
Fore
SplineSet
467 520 m 1,0,-1
 467 30 l 2,1,2
 467 -103 467 -103 411 -166.5 c 128,-1,3
 355 -230 355 -230 238 -230 c 0,4,5
 142 -230 142 -230 61 -188 c 1,6,-1
 70 -170 l 1,7,8
 146 -210 146 -210 238 -210 c 0,9,10
 346 -210 346 -210 396.5 -152 c 128,-1,11
 447 -94 447 -94 447 30 c 2,12,-1
 447 120 l 1,13,-1
 445 120 l 1,14,15
 421 59 421 59 372 24.5 c 128,-1,16
 323 -10 323 -10 257 -10 c 0,17,18
 159 -10 159 -10 103 62 c 128,-1,19
 47 134 47 134 47 260 c 256,20,21
 47 386 47 386 103 458 c 128,-1,22
 159 530 159 530 257 530 c 0,23,24
 323 530 323 530 372 495.5 c 128,-1,25
 421 461 421 461 445 400 c 1,26,-1
 447 400 l 1,27,-1
 447 520 l 1,28,-1
 467 520 l 1,0,-1
395 71 m 128,-1,30
 447 132 447 132 447 235 c 2,31,-1
 447 285 l 2,32,33
 447 388 447 388 395 449 c 128,-1,34
 343 510 343 510 257 510 c 0,35,36
 168 510 168 510 117.5 443.5 c 128,-1,37
 67 377 67 377 67 260 c 256,38,39
 67 143 67 143 117.5 76.5 c 128,-1,40
 168 10 168 10 257 10 c 0,41,29
 343 10 343 10 395 71 c 128,-1,30
EndSplineSet
EndChar

StartChar: h
Encoding: 104 104 268
Width: 562
GlyphClass: 2
Flags: W
AnchorPoint: "Anchor-6" 270 750 basechar 0
AnchorPoint: "Anchor-4" 270 0 basechar 0
LayerCount: 2
Fore
SplineSet
442.5 476 m 128,-1,1
 485 422 485 422 485 320 c 2,2,-1
 485 0 l 1,3,-1
 465 0 l 1,4,-1
 465 320 l 2,5,6
 465 414 465 414 428 462 c 128,-1,7
 391 510 391 510 319 510 c 0,8,9
 261 510 261 510 212 480.5 c 128,-1,10
 163 451 163 451 134 400.5 c 128,-1,11
 105 350 105 350 105 290 c 2,12,-1
 105 0 l 1,13,-1
 85 0 l 1,14,-1
 85 750 l 1,15,-1
 105 750 l 1,16,-1
 105 388 l 1,17,-1
 107 388 l 1,18,19
 135 452 135 452 192 491 c 128,-1,20
 249 530 249 530 319 530 c 0,21,0
 400 530 400 530 442.5 476 c 128,-1,1
EndSplineSet
EndChar

StartChar: hbar
Encoding: 295 295 269
Width: 627
GlyphClass: 2
Flags: W
AnchorPoint: "Anchor-6" 335 750 basechar 0
AnchorPoint: "Anchor-4" 335 0 basechar 0
LayerCount: 2
Fore
SplineSet
507.5 476 m 128,-1,1
 550 422 550 422 550 320 c 2,2,-1
 550 0 l 1,3,-1
 530 0 l 1,4,-1
 530 320 l 2,5,6
 530 414 530 414 493 462 c 128,-1,7
 456 510 456 510 384 510 c 0,8,9
 326 510 326 510 277 480.5 c 128,-1,10
 228 451 228 451 199 400.5 c 128,-1,11
 170 350 170 350 170 290 c 2,12,-1
 170 0 l 1,13,-1
 150 0 l 1,14,-1
 150 615 l 1,15,-1
 30 615 l 1,16,-1
 30 635 l 1,17,-1
 150 635 l 1,18,-1
 150 750 l 1,19,-1
 170 750 l 1,20,-1
 170 635 l 1,21,-1
 450 635 l 1,22,-1
 450 615 l 1,23,-1
 170 615 l 1,24,-1
 170 388 l 1,25,-1
 172 388 l 1,26,27
 200 452 200 452 257 491 c 128,-1,28
 314 530 314 530 384 530 c 0,29,0
 465 530 465 530 507.5 476 c 128,-1,1
EndSplineSet
EndChar

StartChar: i
Encoding: 105 105 271
Width: 248
GlyphClass: 2
Flags: W
AnchorPoint: "Anchor-6" 124 520 basechar 0
AnchorPoint: "Anchor-5" 134 0 basechar 0
AnchorPoint: "Anchor-4" 124 0 basechar 0
LayerCount: 2
Fore
SplineSet
94 730 m 1,0,-1
 154 730 l 1,1,-1
 154 670 l 1,2,-1
 94 670 l 1,3,-1
 94 730 l 1,0,-1
114 520 m 1,4,-1
 134 520 l 1,5,-1
 134 0 l 1,6,-1
 114 0 l 1,7,-1
 114 520 l 1,4,-1
EndSplineSet
Substitution2: "Single Substitution lookup 19 subtable" dotlessi
Substitution2: "'locl' Localized Forms in Latin lookup 3 subtable" i.loclTRK
Substitution2: "'aalt' Access All Alternates in Latin lookup 0 subtable" i.loclTRK
EndChar

StartChar: dotlessi
Encoding: 305 305 272
Width: 208
GlyphClass: 2
Flags: W
AnchorPoint: "Anchor-6" 104 520 basechar 0
AnchorPoint: "Anchor-5" 114 0 basechar 0
AnchorPoint: "Anchor-4" 104 0 basechar 0
LayerCount: 2
Fore
SplineSet
94 520 m 1,0,-1
 114 520 l 1,1,-1
 114 0 l 1,2,-1
 94 0 l 1,3,-1
 94 520 l 1,0,-1
EndSplineSet
EndChar

StartChar: iogonek
Encoding: 303 303 284
Width: 208
GlyphClass: 2
Flags: W
AnchorPoint: "Anchor-6" 104 695 basechar 0
AnchorPoint: "Anchor-5" 114 0 basechar 0
AnchorPoint: "Anchor-4" 104 0 basechar 0
LayerCount: 2
Fore
SplineSet
134 695 m 1,0,-1
 134 635 l 1,1,-1
 74 635 l 1,2,-1
 74 695 l 1,3,-1
 134 695 l 1,0,-1
201 -199 m 1,4,5
 156 -220 156 -220 100 -220 c 0,6,7
 26 -220 26 -220 -1 -194 c 128,-1,8
 -28 -168 -28 -168 -28 -135 c 0,9,10
 -28 -96 -28 -96 4 -58.5 c 128,-1,11
 36 -21 36 -21 94 11 c 1,12,-1
 94 520 l 1,13,-1
 114 520 l 1,14,-1
 114 0 l 1,15,16
 55 -32 55 -32 23.5 -66.5 c 128,-1,17
 -8 -101 -8 -101 -8 -135 c 0,18,19
 -8 -172 -8 -172 23.5 -186 c 128,-1,20
 55 -200 55 -200 100 -200 c 0,21,22
 152 -200 152 -200 193 -181 c 1,23,-1
 201 -199 l 1,4,5
EndSplineSet
EndChar

StartChar: j
Encoding: 106 106 286
Width: 298
GlyphClass: 2
Flags: W
AnchorPoint: "Anchor-6" 139 520 basechar 0
AnchorPoint: "Anchor-4" 139 -140 basechar 0
LayerCount: 2
Fore
SplineSet
144 730 m 1,0,-1
 204 730 l 1,1,-1
 204 670 l 1,2,-1
 144 670 l 1,3,-1
 144 730 l 1,0,-1
76.5 -192.5 m 128,-1,5
 126 -175 126 -175 145 -131.5 c 128,-1,6
 164 -88 164 -88 164 0 c 2,7,-1
 164 520 l 1,8,-1
 184 520 l 1,9,-1
 184 0 l 2,10,11
 184 -93 184 -93 162 -141.5 c 128,-1,12
 140 -190 140 -190 86 -210 c 128,-1,13
 32 -230 32 -230 -71 -230 c 1,14,-1
 -71 -210 l 1,15,4
 27 -210 27 -210 76.5 -192.5 c 128,-1,5
EndSplineSet
Substitution2: "Single Substitution lookup 19 subtable" uni0237
EndChar

StartChar: uni0237
Encoding: 567 567 287
Width: 278
GlyphClass: 2
Flags: W
AnchorPoint: "Anchor-6" 139 520 basechar 0
AnchorPoint: "Anchor-4" 139 -140 basechar 0
LayerCount: 2
Fore
SplineSet
76.5 -192.5 m 128,-1,1
 126 -175 126 -175 145 -131.5 c 128,-1,2
 164 -88 164 -88 164 0 c 2,3,-1
 164 520 l 1,4,-1
 184 520 l 1,5,-1
 184 0 l 2,6,7
 184 -93 184 -93 162 -141.5 c 128,-1,8
 140 -190 140 -190 86 -210 c 128,-1,9
 32 -230 32 -230 -71 -230 c 1,10,-1
 -71 -210 l 1,11,0
 27 -210 27 -210 76.5 -192.5 c 128,-1,1
EndSplineSet
EndChar

StartChar: k
Encoding: 107 107 289
Width: 518
GlyphClass: 2
Flags: W
AnchorPoint: "Anchor-6" 220 750 basechar 0
AnchorPoint: "Anchor-4" 220 0 basechar 0
LayerCount: 2
Fore
SplineSet
85 750 m 1,0,-1
 105 750 l 1,1,-1
 105 277 l 1,2,-1
 107 277 l 1,3,-1
 426 520 l 1,4,-1
 459 520 l 1,5,-1
 129 270 l 1,6,-1
 475 0 l 1,7,-1
 442 0 l 1,8,-1
 107 263 l 1,9,-1
 105 263 l 1,10,-1
 105 0 l 1,11,-1
 85 0 l 1,12,-1
 85 750 l 1,0,-1
EndSplineSet
EndChar

StartChar: kgreenlandic
Encoding: 312 312 291
Width: 518
GlyphClass: 2
Flags: W
AnchorPoint: "Anchor-6" 220 520 basechar 0
AnchorPoint: "Anchor-4" 220 0 basechar 0
LayerCount: 2
Fore
SplineSet
85 520 m 1,0,-1
 105 520 l 1,1,-1
 105 277 l 1,2,-1
 107 277 l 1,3,-1
 426 520 l 1,4,-1
 459 520 l 1,5,-1
 129 270 l 1,6,-1
 475 0 l 1,7,-1
 442 0 l 1,8,-1
 107 263 l 1,9,-1
 105 263 l 1,10,-1
 105 0 l 1,11,-1
 85 0 l 1,12,-1
 85 520 l 1,0,-1
EndSplineSet
EndChar

StartChar: l
Encoding: 108 108 292
Width: 208
GlyphClass: 2
Flags: W
AnchorPoint: "Anchor-7" 188 750 basechar 0
AnchorPoint: "Anchor-6" 104 750 basechar 0
AnchorPoint: "Anchor-4" 104 0 basechar 0
LayerCount: 2
Fore
SplineSet
94 750 m 1,0,-1
 114 750 l 1,1,-1
 114 0 l 1,2,-1
 94 0 l 1,3,-1
 94 750 l 1,0,-1
EndSplineSet
EndChar

StartChar: lslash
Encoding: 322 322 298
Width: 374
GlyphClass: 2
Flags: W
AnchorPoint: "Anchor-7" 271 750 basechar 0
AnchorPoint: "Anchor-6" 187 750 basechar 0
AnchorPoint: "Anchor-4" 187 0 basechar 0
LayerCount: 2
Fore
SplineSet
356 431 m 1,0,-1
 197 359 l 1,1,-1
 197 0 l 1,2,-1
 177 0 l 1,3,-1
 177 350 l 1,4,-1
 26 281 l 1,5,-1
 18 299 l 1,6,-1
 177 371 l 1,7,-1
 177 750 l 1,8,-1
 197 750 l 1,9,-1
 197 380 l 1,10,-1
 348 449 l 1,11,-1
 356 431 l 1,0,-1
EndSplineSet
EndChar

StartChar: m
Encoding: 109 109 299
Width: 782
Flags: W
LayerCount: 2
Fore
SplineSet
671.5 476.5 m 128,-1,1
 705 423 705 423 705 320 c 2,2,-1
 705 0 l 1,3,-1
 685 0 l 1,4,-1
 685 320 l 2,5,6
 685 510 685 510 572 510 c 0,7,8
 528 510 528 510 489.5 483.5 c 128,-1,9
 451 457 451 457 428 412.5 c 128,-1,10
 405 368 405 368 405 318 c 2,11,-1
 405 0 l 1,12,-1
 385 0 l 1,13,-1
 385 320 l 2,14,15
 385 510 385 510 272 510 c 0,16,17
 226 510 226 510 188 480.5 c 128,-1,18
 150 451 150 451 127.5 400.5 c 128,-1,19
 105 350 105 350 105 290 c 2,20,-1
 105 0 l 1,21,-1
 85 0 l 1,22,-1
 85 520 l 1,23,-1
 105 520 l 1,24,-1
 105 399 l 1,25,-1
 107 399 l 1,26,27
 131 459 131 459 174.5 494.5 c 128,-1,28
 218 530 218 530 272 530 c 0,29,30
 324 530 324 530 356 497 c 128,-1,31
 388 464 388 464 399 399 c 1,32,-1
 401 399 l 1,33,34
 424 456 424 456 471 493 c 128,-1,35
 518 530 518 530 572 530 c 0,36,0
 638 530 638 530 671.5 476.5 c 128,-1,1
EndSplineSet
EndChar

StartChar: n
Encoding: 110 110 300
Width: 562
GlyphClass: 2
Flags: W
AnchorPoint: "Anchor-6" 281 520 basechar 0
AnchorPoint: "Anchor-4" 281 0 basechar 0
LayerCount: 2
Fore
SplineSet
442.5 476 m 128,-1,1
 485 422 485 422 485 320 c 2,2,-1
 485 0 l 1,3,-1
 465 0 l 1,4,-1
 465 320 l 2,5,6
 465 510 465 510 319 510 c 0,7,8
 260 510 260 510 211 480.5 c 128,-1,9
 162 451 162 451 133.5 400.5 c 128,-1,10
 105 350 105 350 105 290 c 2,11,-1
 105 0 l 1,12,-1
 85 0 l 1,13,-1
 85 520 l 1,14,-1
 105 520 l 1,15,-1
 105 388 l 1,16,-1
 107 388 l 1,17,18
 134 452 134 452 191.5 491 c 128,-1,19
 249 530 249 530 319 530 c 0,20,0
 400 530 400 530 442.5 476 c 128,-1,1
EndSplineSet
EndChar

StartChar: eng
Encoding: 331 331 304
Width: 562
GlyphClass: 2
Flags: W
AnchorPoint: "Anchor-6" 281 520 basechar 0
AnchorPoint: "Anchor-4" 281 0 basechar 0
LayerCount: 2
Fore
SplineSet
442.5 476 m 128,-1,1
 485 422 485 422 485 320 c 2,2,-1
 485 -61 l 2,3,4
 485 -138 485 -138 451.5 -174.5 c 128,-1,5
 418 -211 418 -211 345 -211 c 0,6,7
 305 -211 305 -211 265 -196 c 1,8,-1
 272 -177 l 1,9,10
 306 -191 306 -191 345 -191 c 0,11,12
 409 -191 409 -191 437 -160.5 c 128,-1,13
 465 -130 465 -130 465 -61 c 2,14,-1
 465 320 l 2,15,16
 465 510 465 510 319 510 c 0,17,18
 260 510 260 510 211 480.5 c 128,-1,19
 162 451 162 451 133.5 400.5 c 128,-1,20
 105 350 105 350 105 290 c 2,21,-1
 105 0 l 1,22,-1
 85 0 l 1,23,-1
 85 520 l 1,24,-1
 105 520 l 1,25,-1
 105 388 l 1,26,-1
 107 388 l 1,27,28
 134 452 134 452 191.5 491 c 128,-1,29
 249 530 249 530 319 530 c 0,30,0
 400 530 400 530 442.5 476 c 128,-1,1
EndSplineSet
EndChar

StartChar: o
Encoding: 111 111 307
Width: 546
GlyphClass: 2
Flags: W
AnchorPoint: "Anchor-7" 418 480 basechar 0
AnchorPoint: "Anchor-6" 273 520 basechar 0
AnchorPoint: "Anchor-5" 320 0 basechar 0
AnchorPoint: "Anchor-4" 273 0 basechar 0
LayerCount: 2
Fore
SplineSet
104.5 62 m 128,-1,1
 43 134 43 134 43 260 c 256,2,3
 43 386 43 386 104.5 458 c 128,-1,4
 166 530 166 530 273 530 c 256,5,6
 380 530 380 530 441.5 458 c 128,-1,7
 503 386 503 386 503 260 c 256,8,9
 503 134 503 134 441.5 62 c 128,-1,10
 380 -10 380 -10 273 -10 c 256,11,0
 166 -10 166 -10 104.5 62 c 128,-1,1
427.5 76 m 128,-1,13
 483 142 483 142 483 260 c 256,14,15
 483 378 483 378 427.5 444 c 128,-1,16
 372 510 372 510 273 510 c 256,17,18
 174 510 174 510 118.5 444 c 128,-1,19
 63 378 63 378 63 260 c 256,20,21
 63 142 63 142 118.5 76 c 128,-1,22
 174 10 174 10 273 10 c 256,23,12
 372 10 372 10 427.5 76 c 128,-1,13
EndSplineSet
Substitution2: "Single Substitution lookup 21 subtable" ordmasculine
Substitution2: "'aalt' Access All Alternates in Latin lookup 0 subtable" ordmasculine
EndChar

StartChar: ohorn
Encoding: 417 417 323
Width: 556
GlyphClass: 2
Flags: W
AnchorPoint: "Anchor-7" 583 635 basechar 0
AnchorPoint: "Anchor-6" 273 520 basechar 0
AnchorPoint: "Anchor-5" 320 0 basechar 0
AnchorPoint: "Anchor-4" 273 0 basechar 0
LayerCount: 2
Fore
SplineSet
541 470.5 m 128,-1,1
 519 445 519 445 478 445 c 0,2,3
 464 445 464 445 450 448 c 1,4,5
 503 376 503 376 503 260 c 0,6,7
 503 134 503 134 441.5 62 c 128,-1,8
 380 -10 380 -10 273 -10 c 256,9,10
 166 -10 166 -10 104.5 62 c 128,-1,11
 43 134 43 134 43 260 c 256,12,13
 43 386 43 386 104.5 458 c 128,-1,14
 166 530 166 530 273 530 c 0,15,16
 364 530 364 530 422 478 c 1,17,18
 450 465 450 465 478 465 c 0,19,20
 543 465 543 465 543 543 c 0,21,22
 543 566 543 566 538 591.5 c 128,-1,23
 533 617 533 617 526 635 c 1,24,-1
 547 635 l 1,25,26
 563 587 563 587 563 543 c 0,27,0
 563 496 563 496 541 470.5 c 128,-1,1
427.5 76 m 128,-1,29
 483 142 483 142 483 260 c 256,30,31
 483 378 483 378 427.5 444 c 128,-1,32
 372 510 372 510 273 510 c 256,33,34
 174 510 174 510 118.5 444 c 128,-1,35
 63 378 63 378 63 260 c 256,36,37
 63 142 63 142 118.5 76 c 128,-1,38
 174 10 174 10 273 10 c 256,39,28
 372 10 372 10 427.5 76 c 128,-1,29
EndSplineSet
EndChar

StartChar: uni01EB
Encoding: 491 491 332
Width: 546
GlyphClass: 2
Flags: W
AnchorPoint: "Anchor-7" 418 480 basechar 0
AnchorPoint: "Anchor-6" 273 520 basechar 0
AnchorPoint: "Anchor-5" 320 0 basechar 0
AnchorPoint: "Anchor-4" 273 0 basechar 0
LayerCount: 2
Fore
SplineSet
225.5 -71.5 m 128,-1,1
 198 -104 198 -104 198 -135 c 0,2,3
 198 -172 198 -172 229.5 -186 c 128,-1,4
 261 -200 261 -200 306 -200 c 0,5,6
 358 -200 358 -200 399 -181 c 1,7,-1
 407 -199 l 1,8,9
 362 -220 362 -220 306 -220 c 0,10,11
 232 -220 232 -220 205 -194 c 128,-1,12
 178 -168 178 -168 178 -135 c 256,13,14
 178 -102 178 -102 201 -70 c 128,-1,15
 224 -38 224 -38 266 -10 c 1,16,17
 162 -8 162 -8 102.5 64 c 128,-1,18
 43 136 43 136 43 260 c 0,19,20
 43 386 43 386 104.5 458 c 128,-1,21
 166 530 166 530 273 530 c 256,22,23
 380 530 380 530 441.5 458 c 128,-1,24
 503 386 503 386 503 260 c 0,25,26
 503 144 503 144 450.5 73.5 c 128,-1,27
 398 3 398 3 306 -8 c 1,28,0
 253 -39 253 -39 225.5 -71.5 c 128,-1,1
118.5 76 m 128,-1,30
 174 10 174 10 273 10 c 256,31,32
 372 10 372 10 427.5 76 c 128,-1,33
 483 142 483 142 483 260 c 256,34,35
 483 378 483 378 427.5 444 c 128,-1,36
 372 510 372 510 273 510 c 256,37,38
 174 510 174 510 118.5 444 c 128,-1,39
 63 378 63 378 63 260 c 256,40,29
 63 142 63 142 118.5 76 c 128,-1,30
EndSplineSet
EndChar

StartChar: oslash
Encoding: 248 248 333
Width: 546
GlyphClass: 2
Flags: W
AnchorPoint: "Anchor-7" 418 480 basechar 0
AnchorPoint: "Anchor-6" 273 520 basechar 0
AnchorPoint: "Anchor-5" 320 0 basechar 0
AnchorPoint: "Anchor-4" 273 0 basechar 0
LayerCount: 2
Fore
SplineSet
503 260 m 0,1,2
 503 134 503 134 441.5 62 c 128,-1,3
 380 -10 380 -10 273 -10 c 0,4,5
 182 -10 182 -10 124 42 c 1,6,-1
 81 -16 l 1,7,-1
 65 -4 l 1,8,-1
 110 56 l 1,9,10
 43 129 43 129 43 260 c 0,11,12
 43 386 43 386 104.5 458 c 128,-1,13
 166 530 166 530 273 530 c 0,14,15
 364 530 364 530 422 478 c 1,16,-1
 465 536 l 1,17,-1
 481 524 l 1,18,-1
 436 464 l 1,19,0
 503 391 503 391 503 260 c 0,1,2
122 73 m 1,21,-1
 410 462 l 1,22,23
 356 510 356 510 273 510 c 0,24,25
 174 510 174 510 118.5 444 c 128,-1,26
 63 378 63 378 63 260 c 0,27,20
 63 138 63 138 122 73 c 1,21,-1
427.5 76 m 128,-1,29
 483 142 483 142 483 260 c 0,30,31
 483 382 483 382 424 447 c 1,32,-1
 136 58 l 1,33,34
 190 10 190 10 273 10 c 0,35,28
 372 10 372 10 427.5 76 c 128,-1,29
EndSplineSet
EndChar

StartChar: oe
Encoding: 339 339 337
Width: 964
Flags: W
LayerCount: 2
Fore
SplineSet
923 258 m 1,0,-1
 503 258 l 1,1,2
 504 138 504 138 561 74 c 128,-1,3
 618 10 618 10 723 10 c 0,4,5
 768 10 768 10 812 21.5 c 128,-1,6
 856 33 856 33 893 53 c 1,7,-1
 903 36 l 1,8,9
 865 14 865 14 818 2 c 128,-1,10
 771 -10 771 -10 723 -10 c 0,11,12
 631 -10 631 -10 572 36 c 128,-1,13
 513 82 513 82 493 168 c 1,14,15
 473 83 473 83 415.5 36.5 c 128,-1,16
 358 -10 358 -10 273 -10 c 0,17,18
 166 -10 166 -10 104.5 62 c 128,-1,19
 43 134 43 134 43 260 c 256,20,21
 43 386 43 386 104.5 458 c 128,-1,22
 166 530 166 530 273 530 c 0,23,24
 358 530 358 530 415 484 c 128,-1,25
 472 438 472 438 492 354 c 1,26,27
 511 439 511 439 565 484.5 c 128,-1,28
 619 530 619 530 703 530 c 0,29,30
 808 530 808 530 865.5 459.5 c 128,-1,31
 923 389 923 389 923 260 c 2,32,-1
 923 258 l 1,0,-1
427.5 76 m 128,-1,34
 483 142 483 142 483 260 c 256,35,36
 483 378 483 378 427.5 444 c 128,-1,37
 372 510 372 510 273 510 c 256,38,39
 174 510 174 510 118.5 444 c 128,-1,40
 63 378 63 378 63 260 c 256,41,42
 63 142 63 142 118.5 76 c 128,-1,43
 174 10 174 10 273 10 c 256,44,33
 372 10 372 10 427.5 76 c 128,-1,34
559 450.5 m 128,-1,46
 507 391 507 391 503 278 c 1,47,-1
 903 278 l 1,48,49
 899 391 899 391 847 450.5 c 128,-1,50
 795 510 795 510 703 510 c 256,51,45
 611 510 611 510 559 450.5 c 128,-1,46
EndSplineSet
EndChar

StartChar: p
Encoding: 112 112 338
Width: 548
Flags: W
LayerCount: 2
Fore
SplineSet
449 458 m 128,-1,1
 505 386 505 386 505 260 c 256,2,3
 505 134 505 134 449 62 c 128,-1,4
 393 -10 393 -10 295 -10 c 0,5,6
 229 -10 229 -10 180 24.5 c 128,-1,7
 131 59 131 59 107 120 c 1,8,-1
 105 120 l 1,9,-1
 105 -220 l 1,10,-1
 85 -220 l 1,11,-1
 85 520 l 1,12,-1
 105 520 l 1,13,-1
 105 400 l 1,14,-1
 107 400 l 1,15,16
 131 461 131 461 180 495.5 c 128,-1,17
 229 530 229 530 295 530 c 0,18,0
 393 530 393 530 449 458 c 128,-1,1
434.5 76.5 m 128,-1,20
 485 143 485 143 485 260 c 256,21,22
 485 377 485 377 434.5 443.5 c 128,-1,23
 384 510 384 510 295 510 c 0,24,25
 209 510 209 510 157 449 c 128,-1,26
 105 388 105 388 105 285 c 2,27,-1
 105 235 l 2,28,29
 105 132 105 132 157 71 c 128,-1,30
 209 10 209 10 295 10 c 0,31,19
 384 10 384 10 434.5 76.5 c 128,-1,20
EndSplineSet
EndChar

StartChar: thorn
Encoding: 254 254 339
Width: 552
Flags: W
LayerCount: 2
Fore
SplineSet
449 458 m 128,-1,1
 505 386 505 386 505 260 c 256,2,3
 505 134 505 134 449 62 c 128,-1,4
 393 -10 393 -10 295 -10 c 0,5,6
 229 -10 229 -10 180 24.5 c 128,-1,7
 131 59 131 59 107 120 c 1,8,-1
 105 120 l 1,9,-1
 105 -220 l 1,10,-1
 85 -220 l 1,11,-1
 85 750 l 1,12,-1
 105 750 l 1,13,-1
 105 400 l 1,14,-1
 107 400 l 1,15,16
 131 461 131 461 180 495.5 c 128,-1,17
 229 530 229 530 295 530 c 0,18,0
 393 530 393 530 449 458 c 128,-1,1
434.5 76.5 m 128,-1,20
 485 143 485 143 485 260 c 256,21,22
 485 377 485 377 434.5 443.5 c 128,-1,23
 384 510 384 510 295 510 c 0,24,25
 209 510 209 510 157 449 c 128,-1,26
 105 388 105 388 105 285 c 2,27,-1
 105 235 l 2,28,29
 105 132 105 132 157 71 c 128,-1,30
 209 10 209 10 295 10 c 0,31,19
 384 10 384 10 434.5 76.5 c 128,-1,20
EndSplineSet
EndChar

StartChar: q
Encoding: 113 113 340
Width: 548
Flags: W
LayerCount: 2
Fore
SplineSet
463 520 m 1,0,-1
 463 -220 l 1,1,-1
 443 -220 l 1,2,-1
 443 120 l 1,3,-1
 441 120 l 1,4,5
 417 59 417 59 368 24.5 c 128,-1,6
 319 -10 319 -10 253 -10 c 0,7,8
 155 -10 155 -10 99 62 c 128,-1,9
 43 134 43 134 43 260 c 256,10,11
 43 386 43 386 99 458 c 128,-1,12
 155 530 155 530 253 530 c 0,13,14
 319 530 319 530 368 495.5 c 128,-1,15
 417 461 417 461 441 400 c 1,16,-1
 443 400 l 1,17,-1
 443 520 l 1,18,-1
 463 520 l 1,0,-1
391 71 m 128,-1,20
 443 132 443 132 443 235 c 2,21,-1
 443 285 l 2,22,23
 443 388 443 388 391 449 c 128,-1,24
 339 510 339 510 253 510 c 0,25,26
 164 510 164 510 113.5 443.5 c 128,-1,27
 63 377 63 377 63 260 c 256,28,29
 63 143 63 143 113.5 76.5 c 128,-1,30
 164 10 164 10 253 10 c 0,31,19
 339 10 339 10 391 71 c 128,-1,20
EndSplineSet
EndChar

StartChar: r
Encoding: 114 114 341
Width: 372
GlyphClass: 2
Flags: W
AnchorPoint: "Anchor-6" 200 520 basechar 0
AnchorPoint: "Anchor-4" 200 0 basechar 0
LayerCount: 2
Fore
SplineSet
204.5 487.5 m 128,-1,1
 272 530 272 530 355 530 c 1,2,-1
 355 510 l 1,3,4
 287 510 287 510 229.5 479.5 c 128,-1,5
 172 449 172 449 138.5 396 c 128,-1,6
 105 343 105 343 105 280 c 2,7,-1
 105 0 l 1,8,-1
 85 0 l 1,9,-1
 85 520 l 1,10,-1
 105 520 l 1,11,-1
 105 376 l 1,12,-1
 107 376 l 1,13,0
 137 445 137 445 204.5 487.5 c 128,-1,1
EndSplineSet
EndChar

StartChar: s
Encoding: 115 115 347
Width: 454
GlyphClass: 2
Flags: W
AnchorPoint: "Anchor-6" 227 520 basechar 0
AnchorPoint: "Anchor-4" 227 0 basechar 0
LayerCount: 2
Fore
SplineSet
43 31 m 1,1,-1
 53 49 l 1,2,3
 128 10 128 10 222 10 c 0,4,5
 303 10 303 10 347.5 41.5 c 128,-1,6
 392 73 392 73 392 130 c 0,7,8
 392 170 392 170 369.5 194.5 c 128,-1,9
 347 219 347 219 313.5 232 c 128,-1,10
 280 245 280 245 221 260 c 256,11,12
 162 275 162 275 127 288.5 c 128,-1,13
 92 302 92 302 67 329 c 128,-1,14
 42 356 42 356 42 400 c 0,15,16
 42 461 42 461 90.5 495.5 c 128,-1,17
 139 530 139 530 222 530 c 0,18,19
 269 530 269 530 318 520 c 128,-1,20
 367 510 367 510 397 494 c 1,21,-1
 387 476 l 1,22,23
 360 491 360 491 313.5 500.5 c 128,-1,24
 267 510 267 510 222 510 c 0,25,26
 146 510 146 510 104 481 c 128,-1,27
 62 452 62 452 62 400 c 0,28,29
 62 363 62 363 83.5 340.5 c 128,-1,30
 105 318 105 318 137.5 305.5 c 128,-1,31
 170 293 170 293 226 279 c 0,32,33
 286 263 286 263 323 248.5 c 128,-1,34
 360 234 360 234 386 205.5 c 128,-1,35
 412 177 412 177 412 130 c 0,36,37
 412 64 412 64 361.5 27 c 128,-1,38
 311 -10 311 -10 222 -10 c 0,39,0
 122 -10 122 -10 43 31 c 1,1,-1
EndSplineSet
EndChar

StartChar: scedilla
Encoding: 351 351 350
Width: 454
GlyphClass: 2
Flags: W
AnchorPoint: "Anchor-6" 227 520 basechar 0
AnchorPoint: "Anchor-4" 227 0 basechar 0
LayerCount: 2
Fore
SplineSet
369.5 33.5 m 128,-1,1
 327 -3 327 -3 250 -9 c 1,2,3
 294 -38 294 -38 317.5 -70.5 c 128,-1,4
 341 -103 341 -103 341 -136 c 256,5,6
 341 -169 341 -169 314 -195 c 128,-1,7
 287 -221 287 -221 213 -221 c 0,8,9
 157 -221 157 -221 112 -200 c 1,10,-1
 120 -182 l 1,11,12
 161 -201 161 -201 213 -201 c 0,13,14
 258 -201 258 -201 289.5 -187 c 128,-1,15
 321 -173 321 -173 321 -136 c 0,16,17
 321 -104 321 -104 294 -72 c 128,-1,18
 267 -40 267 -40 215 -10 c 1,19,20
 119 -8 119 -8 43 31 c 1,21,-1
 53 49 l 1,22,23
 128 10 128 10 222 10 c 0,24,25
 303 10 303 10 347.5 41.5 c 128,-1,26
 392 73 392 73 392 130 c 0,27,28
 392 170 392 170 369.5 194.5 c 128,-1,29
 347 219 347 219 313.5 232 c 128,-1,30
 280 245 280 245 221 260 c 256,31,32
 162 275 162 275 127 288.5 c 128,-1,33
 92 302 92 302 67 329 c 128,-1,34
 42 356 42 356 42 400 c 0,35,36
 42 461 42 461 90.5 495.5 c 128,-1,37
 139 530 139 530 222 530 c 0,38,39
 269 530 269 530 318 520 c 128,-1,40
 367 510 367 510 397 494 c 1,41,-1
 387 476 l 1,42,43
 360 491 360 491 313.5 500.5 c 128,-1,44
 267 510 267 510 222 510 c 0,45,46
 146 510 146 510 104 481 c 128,-1,47
 62 452 62 452 62 400 c 0,48,49
 62 363 62 363 83.5 340.5 c 128,-1,50
 105 318 105 318 137.5 305.5 c 128,-1,51
 170 293 170 293 226 279 c 0,52,53
 286 263 286 263 323 248.5 c 128,-1,54
 360 234 360 234 386 205.5 c 128,-1,55
 412 177 412 177 412 130 c 0,56,0
 412 70 412 70 369.5 33.5 c 128,-1,1
EndSplineSet
Substitution2: "'locl' Localized Forms in Latin lookup 4 subtable" uni0219
Substitution2: "'aalt' Access All Alternates in Latin lookup 0 subtable" uni0219
EndChar

StartChar: germandbls
Encoding: 223 223 353
Width: 570
Flags: W
LayerCount: 2
Fore
SplineSet
263 -3 m 128,-1,1
 219 4 219 4 177 15 c 1,2,-1
 183 35 l 1,3,4
 221 24 221 24 264.5 17 c 128,-1,5
 308 10 308 10 340 10 c 0,6,7
 416 10 416 10 460.5 51 c 128,-1,8
 505 92 505 92 505 160 c 0,9,10
 505 190 505 190 495 214 c 128,-1,11
 485 238 485 238 459.5 267 c 128,-1,12
 434 296 434 296 383 345 c 0,13,14
 349 377 349 377 337 392 c 128,-1,15
 325 407 325 407 325 420 c 0,16,17
 325 431 325 431 334.5 445 c 128,-1,18
 344 459 344 459 369 486 c 0,19,20
 419 540 419 540 437 572.5 c 128,-1,21
 455 605 455 605 455 640 c 0,22,23
 455 740 455 740 285 740 c 0,24,25
 216 740 216 740 177 723 c 128,-1,26
 138 706 138 706 121.5 666.5 c 128,-1,27
 105 627 105 627 105 555 c 2,28,-1
 105 0 l 1,29,-1
 85 0 l 1,30,-1
 85 555 l 2,31,32
 85 632 85 632 104.5 676 c 128,-1,33
 124 720 124 720 167 740 c 128,-1,34
 210 760 210 760 285 760 c 0,35,36
 378 760 378 760 426.5 729.5 c 128,-1,37
 475 699 475 699 475 640 c 0,38,39
 475 601 475 601 455.5 565 c 128,-1,40
 436 529 436 529 384 473 c 0,41,42
 360 446 360 446 352.5 435.5 c 128,-1,43
 345 425 345 425 345 420 c 0,44,45
 345 413 345 413 355 402 c 128,-1,46
 365 391 365 391 397 360 c 0,47,48
 450 311 450 311 477 279 c 128,-1,49
 504 247 504 247 514.5 220 c 128,-1,50
 525 193 525 193 525 160 c 0,51,52
 525 83 525 83 474 36.5 c 128,-1,53
 423 -10 423 -10 340 -10 c 0,54,0
 307 -10 307 -10 263 -3 c 128,-1,1
EndSplineSet
EndChar

StartChar: t
Encoding: 116 116 354
Width: 440
GlyphClass: 2
Flags: W
AnchorPoint: "Anchor-8" 249 0 basechar 0
AnchorPoint: "Anchor-7" 417 520 basechar 0
AnchorPoint: "Anchor-6" 230 520 basechar 0
AnchorPoint: "Anchor-4" 230 0 basechar 0
LayerCount: 2
Fore
SplineSet
201 23.5 m 128,-1,1
 172 57 172 57 172 140 c 2,2,-1
 172 500 l 1,3,-1
 36 500 l 1,4,-1
 36 520 l 1,5,-1
 172 520 l 1,6,-1
 172 710 l 1,7,-1
 192 710 l 1,8,-1
 192 520 l 1,9,-1
 391 520 l 1,10,-1
 391 500 l 1,11,-1
 192 500 l 1,12,-1
 192 140 l 2,13,14
 192 90 192 90 202 62 c 128,-1,15
 212 34 212 34 235 22 c 128,-1,16
 258 10 258 10 300 10 c 0,17,18
 341 10 341 10 388 24 c 1,19,-1
 394 5 l 1,20,21
 348 -10 348 -10 300 -10 c 0,22,0
 230 -10 230 -10 201 23.5 c 128,-1,1
EndSplineSet
EndChar

StartChar: tbar
Encoding: 359 359 355
Width: 421
GlyphClass: 2
Flags: W
AnchorPoint: "Anchor-8" 249 0 basechar 0
AnchorPoint: "Anchor-7" 417 520 basechar 0
AnchorPoint: "Anchor-6" 230 520 basechar 0
AnchorPoint: "Anchor-4" 230 0 basechar 0
LayerCount: 2
Fore
SplineSet
394 5 m 1,0,1
 348 -10 348 -10 300 -10 c 0,2,3
 230 -10 230 -10 201 23.5 c 128,-1,4
 172 57 172 57 172 140 c 2,5,-1
 172 240 l 1,6,-1
 35 240 l 1,7,-1
 35 260 l 1,8,-1
 172 260 l 1,9,-1
 172 500 l 1,10,-1
 36 500 l 1,11,-1
 36 520 l 1,12,-1
 172 520 l 1,13,-1
 172 710 l 1,14,-1
 192 710 l 1,15,-1
 192 520 l 1,16,-1
 391 520 l 1,17,-1
 391 500 l 1,18,-1
 192 500 l 1,19,-1
 192 260 l 1,20,-1
 375 260 l 1,21,-1
 375 240 l 1,22,-1
 192 240 l 1,23,-1
 192 140 l 2,24,25
 192 90 192 90 202 62 c 128,-1,26
 212 34 212 34 235 22 c 128,-1,27
 258 10 258 10 300 10 c 0,28,29
 341 10 341 10 388 24 c 1,30,-1
 394 5 l 1,0,1
EndSplineSet
EndChar

StartChar: uni0163
Encoding: 355 355 357
Width: 440
GlyphClass: 2
Flags: W
AnchorPoint: "Anchor-8" 249 0 basechar 0
AnchorPoint: "Anchor-7" 417 520 basechar 0
AnchorPoint: "Anchor-6" 230 520 basechar 0
AnchorPoint: "Anchor-4" 230 0 basechar 0
LayerCount: 2
Fore
SplineSet
368 -70 m 128,-1,1
 391 -102 391 -102 391 -135 c 256,2,3
 391 -168 391 -168 364 -194 c 128,-1,4
 337 -220 337 -220 263 -220 c 0,5,6
 207 -220 207 -220 162 -199 c 1,7,-1
 170 -181 l 1,8,9
 211 -200 211 -200 263 -200 c 0,10,11
 308 -200 308 -200 339.5 -186 c 128,-1,12
 371 -172 371 -172 371 -135 c 0,13,14
 371 -103 371 -103 343 -70.5 c 128,-1,15
 315 -38 315 -38 262 -7 c 1,16,17
 214 0 214 0 193 34.5 c 128,-1,18
 172 69 172 69 172 140 c 2,19,-1
 172 500 l 1,20,-1
 36 500 l 1,21,-1
 36 520 l 1,22,-1
 172 520 l 1,23,-1
 172 710 l 1,24,-1
 192 710 l 1,25,-1
 192 520 l 1,26,-1
 391 520 l 1,27,-1
 391 500 l 1,28,-1
 192 500 l 1,29,-1
 192 140 l 2,30,31
 192 90 192 90 202 62 c 128,-1,32
 212 34 212 34 235 22 c 128,-1,33
 258 10 258 10 300 10 c 0,34,35
 341 10 341 10 388 24 c 1,36,-1
 394 5 l 1,37,38
 349 -10 349 -10 303 -10 c 1,39,0
 345 -38 345 -38 368 -70 c 128,-1,1
EndSplineSet
Substitution2: "'locl' Localized Forms in Latin lookup 4 subtable" uni021B
Substitution2: "'aalt' Access All Alternates in Latin lookup 0 subtable" uni021B
EndChar

StartChar: u
Encoding: 117 117 359
Width: 552
GlyphClass: 2
Flags: W
AnchorPoint: "Anchor-7" 467 480 basechar 0
AnchorPoint: "Anchor-6" 276 520 basechar 0
AnchorPoint: "Anchor-5" 467 0 basechar 0
AnchorPoint: "Anchor-4" 276 0 basechar 0
LayerCount: 2
Fore
SplineSet
467 520 m 1,0,-1
 467 0 l 1,1,-1
 447 0 l 1,2,-1
 447 128 l 1,3,-1
 445 128 l 1,4,5
 418 65 418 65 365.5 27.5 c 128,-1,6
 313 -10 313 -10 248 -10 c 0,7,8
 168 -10 168 -10 122.5 46 c 128,-1,9
 77 102 77 102 77 200 c 2,10,-1
 77 520 l 1,11,-1
 97 520 l 1,12,-1
 97 200 l 2,13,14
 97 110 97 110 137 60 c 128,-1,15
 177 10 177 10 248 10 c 0,16,17
 303 10 303 10 348.5 39.5 c 128,-1,18
 394 69 394 69 420.5 119 c 128,-1,19
 447 169 447 169 447 230 c 2,20,-1
 447 520 l 1,21,-1
 467 520 l 1,0,-1
EndSplineSet
EndChar

StartChar: uhorn
Encoding: 432 432 368
Width: 572
GlyphClass: 2
Flags: W
AnchorPoint: "Anchor-7" 632 635 basechar 0
AnchorPoint: "Anchor-6" 276 520 basechar 0
AnchorPoint: "Anchor-5" 467 0 basechar 0
AnchorPoint: "Anchor-4" 276 0 basechar 0
LayerCount: 2
Fore
SplineSet
612 543 m 0,1,2
 612 496 612 496 590 470.5 c 128,-1,3
 568 445 568 445 527 445 c 0,4,5
 498 445 498 445 467 458 c 1,6,-1
 467 0 l 1,7,-1
 447 0 l 1,8,-1
 447 128 l 1,9,-1
 445 128 l 1,10,11
 418 65 418 65 365.5 27.5 c 128,-1,12
 313 -10 313 -10 248 -10 c 0,13,14
 168 -10 168 -10 122.5 46 c 128,-1,15
 77 102 77 102 77 200 c 2,16,-1
 77 520 l 1,17,-1
 97 520 l 1,18,-1
 97 200 l 2,19,20
 97 110 97 110 137 60 c 128,-1,21
 177 10 177 10 248 10 c 0,22,23
 303 10 303 10 348.5 39.5 c 128,-1,24
 394 69 394 69 420.5 119 c 128,-1,25
 447 169 447 169 447 230 c 2,26,-1
 447 520 l 1,27,-1
 467 520 l 1,28,-1
 467 480 l 1,29,30
 497 465 497 465 527 465 c 0,31,32
 592 465 592 465 592 543 c 0,33,34
 592 566 592 566 587 591.5 c 128,-1,35
 582 617 582 617 575 635 c 1,36,-1
 596 635 l 1,37,0
 612 587 612 587 612 543 c 0,1,2
EndSplineSet
EndChar

StartChar: uogonek
Encoding: 371 371 377
Width: 552
GlyphClass: 2
Flags: W
AnchorPoint: "Anchor-7" 467 480 basechar 0
AnchorPoint: "Anchor-6" 276 520 basechar 0
AnchorPoint: "Anchor-5" 467 0 basechar 0
AnchorPoint: "Anchor-4" 276 0 basechar 0
LayerCount: 2
Fore
SplineSet
554 -199 m 1,0,1
 509 -220 509 -220 453 -220 c 0,2,3
 379 -220 379 -220 352 -194 c 128,-1,4
 325 -168 325 -168 325 -135 c 0,5,6
 325 -96 325 -96 357 -58.5 c 128,-1,7
 389 -21 389 -21 447 11 c 1,8,-1
 447 128 l 1,9,-1
 445 128 l 1,10,11
 418 65 418 65 365.5 27.5 c 128,-1,12
 313 -10 313 -10 248 -10 c 0,13,14
 168 -10 168 -10 122.5 46 c 128,-1,15
 77 102 77 102 77 200 c 2,16,-1
 77 520 l 1,17,-1
 97 520 l 1,18,-1
 97 200 l 2,19,20
 97 110 97 110 137 60 c 128,-1,21
 177 10 177 10 248 10 c 0,22,23
 303 10 303 10 348.5 39.5 c 128,-1,24
 394 69 394 69 420.5 119 c 128,-1,25
 447 169 447 169 447 230 c 2,26,-1
 447 520 l 1,27,-1
 467 520 l 1,28,-1
 467 0 l 1,29,30
 408 -32 408 -32 376.5 -66.5 c 128,-1,31
 345 -101 345 -101 345 -135 c 0,32,33
 345 -172 345 -172 376.5 -186 c 128,-1,34
 408 -200 408 -200 453 -200 c 0,35,36
 505 -200 505 -200 546 -181 c 1,37,-1
 554 -199 l 1,0,1
EndSplineSet
EndChar

StartChar: v
Encoding: 118 118 380
Width: 484
Flags: W
LayerCount: 2
Fore
SplineSet
17 520 m 1,0,-1
 39 520 l 1,1,-1
 241 17 l 1,2,-1
 243 17 l 1,3,-1
 445 520 l 1,4,-1
 467 520 l 1,5,-1
 257 0 l 1,6,-1
 227 0 l 1,7,-1
 17 520 l 1,0,-1
EndSplineSet
EndChar

StartChar: w
Encoding: 119 119 381
Width: 748
GlyphClass: 2
Flags: W
AnchorPoint: "Anchor-6" 374 520 basechar 0
AnchorPoint: "Anchor-4" 374 0 basechar 0
LayerCount: 2
Fore
SplineSet
34 520 m 1,0,-1
 55 520 l 1,1,-1
 208 21 l 1,2,-1
 210 21 l 1,3,-1
 359 520 l 1,4,-1
 389 520 l 1,5,-1
 538 21 l 1,6,-1
 540 21 l 1,7,-1
 693 520 l 1,8,-1
 714 520 l 1,9,-1
 554 0 l 1,10,-1
 524 0 l 1,11,-1
 375 499 l 1,12,-1
 373 499 l 1,13,-1
 224 0 l 1,14,-1
 194 0 l 1,15,-1
 34 520 l 1,0,-1
EndSplineSet
EndChar

StartChar: x
Encoding: 120 120 386
Width: 506
Flags: W
LayerCount: 2
Fore
SplineSet
240 263 m 1,0,-1
 48 520 l 1,1,-1
 73 520 l 1,2,-1
 252 280 l 1,3,-1
 254 280 l 1,4,-1
 433 520 l 1,5,-1
 458 520 l 1,6,-1
 266 263 l 1,7,-1
 463 0 l 1,8,-1
 438 0 l 1,9,-1
 254 247 l 1,10,-1
 252 247 l 1,11,-1
 68 0 l 1,12,-1
 43 0 l 1,13,-1
 240 263 l 1,0,-1
EndSplineSet
EndChar

StartChar: y
Encoding: 121 121 387
Width: 494
GlyphClass: 2
Flags: W
AnchorPoint: "Anchor-6" 247 520 basechar 0
AnchorPoint: "Anchor-4" 247 0 basechar 0
LayerCount: 2
Fore
SplineSet
455 520 m 1,0,-1
 477 520 l 1,1,-1
 153 -220 l 1,2,-1
 131 -220 l 1,3,-1
 232 9 l 1,4,-1
 27 520 l 1,5,-1
 49 520 l 1,6,-1
 242 37 l 1,7,-1
 244 37 l 1,8,-1
 455 520 l 1,0,-1
EndSplineSet
EndChar

StartChar: z
Encoding: 122 122 396
Width: 472
GlyphClass: 2
Flags: W
AnchorPoint: "Anchor-6" 236 520 basechar 0
AnchorPoint: "Anchor-4" 236 0 basechar 0
LayerCount: 2
Fore
SplineSet
51 20 m 1,0,-1
 395 498 l 1,1,-1
 395 500 l 1,2,-1
 51 500 l 1,3,-1
 51 520 l 1,4,-1
 421 520 l 1,5,-1
 421 500 l 1,6,-1
 77 22 l 1,7,-1
 77 20 l 1,8,-1
 421 20 l 1,9,-1
 421 0 l 1,10,-1
 51 0 l 1,11,-1
 51 20 l 1,0,-1
EndSplineSet
EndChar

StartChar: f_f
Encoding: 65538 -1 400
Width: 728
GlyphClass: 3
Flags: W
LayerCount: 2
Fore
SplineSet
520 520 m 1,0,-1
 700 520 l 1,1,-1
 700 500 l 1,2,-1
 520 500 l 1,3,-1
 520 0 l 1,4,-1
 500 0 l 1,5,-1
 500 500 l 1,6,-1
 201 500 l 1,7,-1
 201 0 l 1,8,-1
 181 0 l 1,9,-1
 181 500 l 1,10,-1
 26 500 l 1,11,-1
 26 520 l 1,12,-1
 181 520 l 1,13,-1
 181 610 l 2,14,15
 181 686 181 686 212.5 723 c 128,-1,16
 244 760 244 760 309 760 c 0,17,18
 346 760 346 760 383 745 c 1,19,-1
 375 726 l 1,20,21
 343 740 343 740 309 740 c 0,22,23
 253 740 253 740 227 709 c 128,-1,24
 201 678 201 678 201 610 c 2,25,-1
 201 520 l 1,26,-1
 500 520 l 1,27,-1
 500 610 l 2,28,29
 500 686 500 686 531.5 723 c 128,-1,30
 563 760 563 760 628 760 c 0,31,32
 665 760 665 760 702 745 c 1,33,-1
 694 726 l 1,34,35
 662 740 662 740 628 740 c 0,36,37
 572 740 572 740 546 709 c 128,-1,38
 520 678 520 678 520 610 c 2,39,-1
 520 520 l 1,0,-1
EndSplineSet
Ligature2: "'liga' Standard Ligatures in Latin lookup 14 subtable" f f
EndChar

StartChar: ordfeminine
Encoding: 170 170 403
Width: 420
Flags: W
LayerCount: 2
Fore
SplineSet
318.5 701 m 128,-1,1
 351 664 351 664 351 578 c 2,2,-1
 351 314 l 1,3,-1
 331 314 l 1,4,-1
 331 397 l 1,5,-1
 329 397 l 1,6,7
 306 355 306 355 263.5 330.5 c 128,-1,8
 221 306 221 306 169 306 c 0,9,10
 107 306 107 306 69 339 c 128,-1,11
 31 372 31 372 31 426 c 0,12,13
 31 497 31 497 96.5 535.5 c 128,-1,14
 162 574 162 574 282 574 c 2,15,-1
 331 574 l 1,16,-1
 331 578 l 2,17,18
 331 656 331 656 304 687 c 128,-1,19
 277 718 277 718 209 718 c 0,20,21
 130 718 130 718 56 680 c 1,22,-1
 47 698 l 1,23,24
 125 738 125 738 209 738 c 0,25,0
 286 738 286 738 318.5 701 c 128,-1,1
252 346 m 128,-1,27
 289 366 289 366 310 401.5 c 128,-1,28
 331 437 331 437 331 481 c 2,29,-1
 331 554 l 1,30,-1
 282 554 l 2,31,32
 171 554 171 554 111 521 c 128,-1,33
 51 488 51 488 51 426 c 0,34,35
 51 380 51 380 83 353 c 128,-1,36
 115 326 115 326 169 326 c 0,37,26
 215 326 215 326 252 346 c 128,-1,27
EndSplineSet
EndChar

StartChar: ordmasculine
Encoding: 186 186 404
Width: 446
Flags: W
LayerCount: 2
Fore
SplineSet
88 364 m 128,-1,1
 39 422 39 422 39 522 c 256,2,3
 39 622 39 622 88 680 c 128,-1,4
 137 738 137 738 223 738 c 256,5,6
 309 738 309 738 358 680.5 c 128,-1,7
 407 623 407 623 407 522 c 256,8,9
 407 421 407 421 358 363.5 c 128,-1,10
 309 306 309 306 223 306 c 256,11,0
 137 306 137 306 88 364 c 128,-1,1
343.5 377.5 m 128,-1,13
 387 429 387 429 387 522 c 256,14,15
 387 615 387 615 343.5 666.5 c 128,-1,16
 300 718 300 718 223 718 c 256,17,18
 146 718 146 718 102.5 666.5 c 128,-1,19
 59 615 59 615 59 522 c 256,20,21
 59 429 59 429 102.5 377.5 c 128,-1,22
 146 326 146 326 223 326 c 256,23,12
 300 326 300 326 343.5 377.5 c 128,-1,13
EndSplineSet
EndChar

StartChar: zero.lf
Encoding: 65564 -1 415
Width: 600
Flags: W
LayerCount: 2
Fore
SplineSet
113.5 85.5 m 128,-1,1
 50 181 50 181 50 365 c 256,2,3
 50 549 50 549 113.5 644.5 c 128,-1,4
 177 740 177 740 300 740 c 256,5,6
 423 740 423 740 486.5 644.5 c 128,-1,7
 550 549 550 549 550 365 c 256,8,9
 550 181 550 181 486.5 85.5 c 128,-1,10
 423 -10 423 -10 300 -10 c 256,11,0
 177 -10 177 -10 113.5 85.5 c 128,-1,1
472 99.5 m 128,-1,13
 530 189 530 189 530 365 c 256,14,15
 530 541 530 541 472 630.5 c 128,-1,16
 414 720 414 720 300 720 c 256,17,18
 186 720 186 720 128 630.5 c 128,-1,19
 70 541 70 541 70 365 c 256,20,21
 70 189 70 189 128 99.5 c 128,-1,22
 186 10 186 10 300 10 c 256,23,12
 414 10 414 10 472 99.5 c 128,-1,13
EndSplineSet
Substitution2: "'tnum' Tabular Numbers in Latin lookup 11 subtable" zero
AlternateSubs2: "'aalt' Access All Alternates in Latin lookup 1 subtable" zero
EndChar

StartChar: one.lf
Encoding: 65565 -1 416
Width: 600
Flags: W
LayerCount: 2
Fore
SplineSet
335 702 m 1,0,-1
 333 702 l 1,1,-1
 79 465 l 1,2,-1
 65 480 l 1,3,-1
 335 730 l 1,4,-1
 355 730 l 1,5,-1
 355 0 l 1,6,-1
 335 0 l 1,7,-1
 335 702 l 1,0,-1
EndSplineSet
Substitution2: "'tnum' Tabular Numbers in Latin lookup 11 subtable" one
AlternateSubs2: "'aalt' Access All Alternates in Latin lookup 1 subtable" one
EndChar

StartChar: two.lf
Encoding: 65566 -1 417
Width: 600
Flags: W
LayerCount: 2
Fore
SplineSet
315 246.5 m 128,-1,1
 401 338 401 338 438.5 407 c 128,-1,2
 476 476 476 476 476 540 c 0,3,4
 476 622 476 622 425.5 671 c 128,-1,5
 375 720 375 720 290 720 c 0,6,7
 235 720 235 720 177.5 699.5 c 128,-1,8
 120 679 120 679 77 644 c 1,9,-1
 65 660 l 1,10,11
 111 696 111 696 172 718 c 128,-1,12
 233 740 233 740 290 740 c 0,13,14
 351 740 351 740 398 715 c 128,-1,15
 445 690 445 690 470.5 644.5 c 128,-1,16
 496 599 496 599 496 540 c 0,17,18
 496 474 496 474 459 404 c 128,-1,19
 422 334 422 334 338 244 c 128,-1,20
 254 154 254 154 105 22 c 1,21,-1
 105 20 l 1,22,-1
 505 20 l 1,23,-1
 505 0 l 1,24,-1
 75 0 l 1,25,-1
 75 20 l 1,26,0
 229 155 229 155 315 246.5 c 128,-1,1
EndSplineSet
Substitution2: "'tnum' Tabular Numbers in Latin lookup 11 subtable" two
AlternateSubs2: "'aalt' Access All Alternates in Latin lookup 1 subtable" two
EndChar

StartChar: three.lf
Encoding: 65567 -1 418
Width: 600
Flags: W
LayerCount: 2
Fore
SplineSet
79 44 m 1,1,-1
 90 61 l 1,2,3
 170 10 170 10 270 10 c 0,4,5
 377 10 377 10 433.5 62.5 c 128,-1,6
 490 115 490 115 490 215 c 0,7,8
 490 310 490 310 435 355 c 128,-1,9
 380 400 380 400 263 400 c 2,10,-1
 183 400 l 1,11,-1
 183 420 l 1,12,-1
 471 708 l 1,13,-1
 471 710 l 1,14,-1
 85 710 l 1,15,-1
 85 730 l 1,16,-1
 500 730 l 1,17,-1
 500 710 l 1,18,-1
 211 422 l 1,19,-1
 211 420 l 1,20,-1
 263 420 l 2,21,22
 388 420 388 420 449 369.5 c 128,-1,23
 510 319 510 319 510 215 c 0,24,25
 510 107 510 107 447.5 48.5 c 128,-1,26
 385 -10 385 -10 270 -10 c 0,27,0
 165 -10 165 -10 79 44 c 1,1,-1
EndSplineSet
Substitution2: "'tnum' Tabular Numbers in Latin lookup 11 subtable" three
AlternateSubs2: "'aalt' Access All Alternates in Latin lookup 1 subtable" three
EndChar

StartChar: four.lf
Encoding: 65568 -1 419
Width: 600
Flags: W
LayerCount: 2
Fore
SplineSet
395 190 m 1,0,-1
 15 190 l 1,1,-1
 15 210 l 1,2,-1
 395 730 l 1,3,-1
 415 730 l 1,4,-1
 415 210 l 1,5,-1
 555 210 l 1,6,-1
 555 190 l 1,7,-1
 415 190 l 1,8,-1
 415 0 l 1,9,-1
 395 0 l 1,10,-1
 395 190 l 1,0,-1
395 210 m 1,11,-1
 395 696 l 1,12,-1
 393 696 l 1,13,-1
 40 212 l 1,14,-1
 40 210 l 1,15,-1
 395 210 l 1,11,-1
EndSplineSet
Substitution2: "'tnum' Tabular Numbers in Latin lookup 11 subtable" four
AlternateSubs2: "'aalt' Access All Alternates in Latin lookup 1 subtable" four
EndChar

StartChar: five.lf
Encoding: 65569 -1 420
Width: 600
Flags: W
LayerCount: 2
Fore
SplineSet
171.5 4.5 m 128,-1,1
 123 19 123 19 85 45 c 1,2,-1
 96 62 l 1,3,4
 171 10 171 10 270 10 c 0,5,6
 374 10 374 10 434.5 69 c 128,-1,7
 495 128 495 128 495 230 c 0,8,9
 495 325 495 325 439.5 375 c 128,-1,10
 384 425 384 425 280 425 c 0,11,12
 233 425 233 425 197 413.5 c 128,-1,13
 161 402 161 402 126 375 c 1,14,-1
 105 375 l 1,15,-1
 131 730 l 1,16,-1
 485 730 l 1,17,-1
 485 710 l 1,18,-1
 150 710 l 1,19,-1
 127 400 l 1,20,-1
 129 400 l 1,21,22
 163 424 163 424 198.5 434.5 c 128,-1,23
 234 445 234 445 280 445 c 0,24,25
 393 445 393 445 454 389 c 128,-1,26
 515 333 515 333 515 230 c 0,27,28
 515 157 515 157 485 103 c 128,-1,29
 455 49 455 49 399.5 19.5 c 128,-1,30
 344 -10 344 -10 270 -10 c 0,31,0
 220 -10 220 -10 171.5 4.5 c 128,-1,1
EndSplineSet
Substitution2: "'tnum' Tabular Numbers in Latin lookup 11 subtable" five
AlternateSubs2: "'aalt' Access All Alternates in Latin lookup 1 subtable" five
EndChar

StartChar: six.lf
Encoding: 65570 -1 421
Width: 600
Flags: W
LayerCount: 2
Fore
SplineSet
172.5 21 m 128,-1,1
 117 52 117 52 86 107.5 c 128,-1,2
 55 163 55 163 55 235 c 0,3,4
 55 376 55 376 96 484.5 c 128,-1,5
 137 593 137 593 214 658.5 c 128,-1,6
 291 724 291 724 398 740 c 1,7,-1
 402 720 l 1,8,9
 275 700 275 700 192 608.5 c 128,-1,10
 109 517 109 517 84 366 c 1,11,-1
 86 366 l 1,12,13
 117 422 117 422 172 451 c 128,-1,14
 227 480 227 480 300 480 c 0,15,16
 413 480 413 480 479 414 c 128,-1,17
 545 348 545 348 545 235 c 256,18,19
 545 122 545 122 479 56 c 128,-1,20
 413 -10 413 -10 300 -10 c 0,21,0
 228 -10 228 -10 172.5 21 c 128,-1,1
465.5 69.5 m 128,-1,23
 525 129 525 129 525 235 c 256,24,25
 525 341 525 341 465.5 400.5 c 128,-1,26
 406 460 406 460 300 460 c 256,27,28
 194 460 194 460 134.5 400.5 c 128,-1,29
 75 341 75 341 75 235 c 0,30,31
 75 168 75 168 103 117 c 128,-1,32
 131 66 131 66 182 38 c 128,-1,33
 233 10 233 10 300 10 c 0,34,22
 406 10 406 10 465.5 69.5 c 128,-1,23
EndSplineSet
Substitution2: "'tnum' Tabular Numbers in Latin lookup 11 subtable" six
AlternateSubs2: "'aalt' Access All Alternates in Latin lookup 1 subtable" six
EndChar

StartChar: seven.lf
Encoding: 65571 -1 422
Width: 600
Flags: W
LayerCount: 2
Fore
SplineSet
502 708 m 1,1,-1
 502 710 l 1,2,-1
 75 710 l 1,3,-1
 75 730 l 1,4,-1
 525 730 l 1,5,-1
 525 710 l 1,6,7
 348 417 348 417 216 0 c 1,8,-1
 195 0 l 1,9,0
 325 411 325 411 502 708 c 1,1,-1
EndSplineSet
Substitution2: "'tnum' Tabular Numbers in Latin lookup 11 subtable" seven
AlternateSubs2: "'aalt' Access All Alternates in Latin lookup 1 subtable" seven
EndChar

StartChar: eight.lf
Encoding: 65572 -1 423
Width: 600
Flags: W
LayerCount: 2
Fore
SplineSet
117.5 44 m 128,-1,1
 50 98 50 98 50 190 c 0,2,3
 50 343 50 343 249 390 c 1,4,-1
 249 392 l 1,5,6
 170 414 170 414 124.5 462.5 c 128,-1,7
 79 511 79 511 79 575 c 0,8,9
 79 651 79 651 139 695.5 c 128,-1,10
 199 740 199 740 300 740 c 256,11,12
 401 740 401 740 461 695.5 c 128,-1,13
 521 651 521 651 521 575 c 0,14,15
 521 510 521 510 476 462 c 128,-1,16
 431 414 431 414 352 392 c 1,17,-1
 352 390 l 1,18,19
 550 343 550 343 550 190 c 0,20,21
 550 129 550 129 519.5 84 c 128,-1,22
 489 39 489 39 432.5 14.5 c 128,-1,23
 376 -10 376 -10 300 -10 c 0,24,0
 185 -10 185 -10 117.5 44 c 128,-1,1
446 460.5 m 128,-1,26
 501 508 501 508 501 575 c 256,27,28
 501 642 501 642 447 681 c 128,-1,29
 393 720 393 720 300 720 c 256,30,31
 207 720 207 720 153 681 c 128,-1,32
 99 642 99 642 99 575 c 256,33,34
 99 508 99 508 153.5 460.5 c 128,-1,35
 208 413 208 413 300 400 c 1,36,25
 391 413 391 413 446 460.5 c 128,-1,26
468 58.5 m 128,-1,38
 530 107 530 107 530 190 c 0,39,40
 530 347 530 347 300 380 c 1,41,42
 70 345 70 345 70 190 c 0,43,44
 70 107 70 107 131.5 58.5 c 128,-1,45
 193 10 193 10 300 10 c 0,46,37
 406 10 406 10 468 58.5 c 128,-1,38
EndSplineSet
Substitution2: "'tnum' Tabular Numbers in Latin lookup 11 subtable" eight
AlternateSubs2: "'aalt' Access All Alternates in Latin lookup 1 subtable" eight
EndChar

StartChar: nine.lf
Encoding: 65573 -1 424
Width: 600
Flags: W
LayerCount: 2
Fore
SplineSet
427.5 709 m 128,-1,1
 483 678 483 678 514 622.5 c 128,-1,2
 545 567 545 567 545 495 c 0,3,4
 545 354 545 354 504 245.5 c 128,-1,5
 463 137 463 137 386 71.5 c 128,-1,6
 309 6 309 6 202 -10 c 1,7,-1
 198 10 l 1,8,9
 325 30 325 30 408 121.5 c 128,-1,10
 491 213 491 213 516 364 c 1,11,-1
 514 364 l 1,12,13
 483 308 483 308 428 279 c 128,-1,14
 373 250 373 250 300 250 c 0,15,16
 187 250 187 250 121 316 c 128,-1,17
 55 382 55 382 55 495 c 256,18,19
 55 608 55 608 121 674 c 128,-1,20
 187 740 187 740 300 740 c 0,21,0
 372 740 372 740 427.5 709 c 128,-1,1
134.5 660.5 m 128,-1,23
 75 601 75 601 75 495 c 256,24,25
 75 389 75 389 134.5 329.5 c 128,-1,26
 194 270 194 270 300 270 c 256,27,28
 406 270 406 270 465.5 329.5 c 128,-1,29
 525 389 525 389 525 495 c 0,30,31
 525 562 525 562 497 613 c 128,-1,32
 469 664 469 664 418 692 c 128,-1,33
 367 720 367 720 300 720 c 0,34,22
 194 720 194 720 134.5 660.5 c 128,-1,23
EndSplineSet
Substitution2: "'tnum' Tabular Numbers in Latin lookup 11 subtable" nine
AlternateSubs2: "'aalt' Access All Alternates in Latin lookup 1 subtable" nine
EndChar

StartChar: uni2070
Encoding: 8304 8304 425
Width: 360
Flags: W
LayerCount: 2
Fore
SplineSet
68.5 343.5 m 128,-1,1
 30 401 30 401 30 511 c 256,2,3
 30 621 30 621 68.5 678.5 c 128,-1,4
 107 736 107 736 180 736 c 0,5,6
 254 736 254 736 292 678.5 c 128,-1,7
 330 621 330 621 330 511 c 256,8,9
 330 401 330 401 292 343.5 c 128,-1,10
 254 286 254 286 180 286 c 0,11,0
 107 286 107 286 68.5 343.5 c 128,-1,1
310 511 m 256,13,14
 310 716 310 716 180 716 c 256,15,16
 50 716 50 716 50 511 c 256,17,18
 50 306 50 306 180 306 c 256,19,12
 310 306 310 306 310 511 c 256,13,14
EndSplineSet
EndChar

StartChar: uni00B9
Encoding: 185 185 426
Width: 360
Flags: W
LayerCount: 2
Fore
SplineSet
186 702 m 1,0,-1
 184 702 l 1,1,-1
 38 565 l 1,2,-1
 24 580 l 1,3,-1
 186 730 l 1,4,-1
 206 730 l 1,5,-1
 206 292 l 1,6,-1
 186 292 l 1,7,-1
 186 702 l 1,0,-1
EndSplineSet
EndChar

StartChar: uni00B2
Encoding: 178 178 427
Width: 360
Flags: W
LayerCount: 2
Fore
SplineSet
189 450 m 128,-1,1
 238 502 238 502 257.5 538 c 128,-1,2
 277 574 277 574 277 610 c 0,3,4
 277 659 277 659 248 687.5 c 128,-1,5
 219 716 219 716 169 716 c 0,6,7
 137 716 137 716 103.5 704 c 128,-1,8
 70 692 70 692 45 671 c 1,9,-1
 32 686 l 1,10,11
 60 709 60 709 97 722.5 c 128,-1,12
 134 736 134 736 169 736 c 0,13,14
 227 736 227 736 262 701.5 c 128,-1,15
 297 667 297 667 297 610 c 0,16,17
 297 572 297 572 277.5 534.5 c 128,-1,18
 258 497 258 497 211 446 c 128,-1,19
 164 395 164 395 74 314 c 1,20,-1
 74 312 l 1,21,-1
 302 312 l 1,22,-1
 302 292 l 1,23,-1
 44 292 l 1,24,-1
 44 312 l 1,25,0
 140 398 140 398 189 450 c 128,-1,1
EndSplineSet
EndChar

StartChar: uni00B3
Encoding: 179 179 428
Width: 360
Flags: W
LayerCount: 2
Fore
SplineSet
41 318 m 1,1,-1
 51 335 l 1,2,3
 99 306 99 306 156 306 c 0,4,5
 217 306 217 306 248.5 335.5 c 128,-1,6
 280 365 280 365 280 421 c 0,7,8
 280 474 280 474 249.5 499 c 128,-1,9
 219 524 219 524 152 524 c 2,10,-1
 104 524 l 1,11,-1
 104 548 l 1,12,-1
 264 708 l 1,13,-1
 264 710 l 1,14,-1
 45 710 l 1,15,-1
 45 730 l 1,16,-1
 294 730 l 1,17,-1
 294 710 l 1,18,-1
 130 546 l 1,19,-1
 130 544 l 1,20,-1
 152 544 l 2,21,22
 227 544 227 544 263.5 513.5 c 128,-1,23
 300 483 300 483 300 421 c 0,24,25
 300 356 300 356 262.5 321 c 128,-1,26
 225 286 225 286 156 286 c 0,27,0
 93 286 93 286 41 318 c 1,1,-1
EndSplineSet
EndChar

StartChar: uni2074
Encoding: 8308 8308 429
Width: 360
Flags: W
LayerCount: 2
Fore
SplineSet
226 402 m 1,0,-1
 2 402 l 1,1,-1
 2 422 l 1,2,-1
 226 730 l 1,3,-1
 246 730 l 1,4,-1
 246 422 l 1,5,-1
 326 422 l 1,6,-1
 326 402 l 1,7,-1
 246 402 l 1,8,-1
 246 292 l 1,9,-1
 226 292 l 1,10,-1
 226 402 l 1,0,-1
226 422 m 1,11,-1
 226 694 l 1,12,-1
 224 694 l 1,13,-1
 28 424 l 1,14,-1
 28 422 l 1,15,-1
 226 422 l 1,11,-1
EndSplineSet
EndChar

StartChar: fraction
Encoding: 8260 8260 430
Width: 482
Flags: W
LayerCount: 2
Fore
SplineSet
440 730 m 1,0,-1
 463 730 l 1,1,-1
 42 0 l 1,2,-1
 19 0 l 1,3,-1
 440 730 l 1,0,-1
EndSplineSet
EndChar

StartChar: onehalf
Encoding: 189 189 431
Width: 811
Flags: W
LayerCount: 2
Fore
SplineSet
198 702 m 1,0,-1
 52 565 l 1,1,-1
 38 580 l 1,2,-1
 200 730 l 1,3,-1
 220 730 l 1,4,-1
 220 292 l 1,5,-1
 200 292 l 1,6,-1
 200 702 l 1,7,-1
 198 702 l 1,0,-1
598 730 m 1,8,-1
 621 730 l 1,9,-1
 200 0 l 1,10,-1
 177 0 l 1,11,-1
 598 730 l 1,8,-1
631 158 m 128,-1,13
 680 210 680 210 699.5 246 c 128,-1,14
 719 282 719 282 719 318 c 0,15,16
 719 367 719 367 690 395.5 c 128,-1,17
 661 424 661 424 611 424 c 0,18,19
 579 424 579 424 545.5 412 c 128,-1,20
 512 400 512 400 487 379 c 1,21,-1
 474 394 l 1,22,23
 502 417 502 417 539 430.5 c 128,-1,24
 576 444 576 444 611 444 c 0,25,26
 669 444 669 444 704 409.5 c 128,-1,27
 739 375 739 375 739 318 c 0,28,29
 739 280 739 280 719.5 242.5 c 128,-1,30
 700 205 700 205 653 154 c 128,-1,31
 606 103 606 103 516 22 c 1,32,-1
 516 20 l 1,33,-1
 744 20 l 1,34,-1
 744 0 l 1,35,-1
 486 0 l 1,36,-1
 486 20 l 1,37,12
 582 106 582 106 631 158 c 128,-1,13
EndSplineSet
Ligature2: "'frac' Diagonal Fractions in Latin lookup 7 subtable" one slash two
EndChar

StartChar: onequarter
Encoding: 188 188 432
Width: 772
Flags: W
LayerCount: 2
Fore
SplineSet
198 702 m 1,0,-1
 52 565 l 1,1,-1
 38 580 l 1,2,-1
 200 730 l 1,3,-1
 220 730 l 1,4,-1
 220 292 l 1,5,-1
 200 292 l 1,6,-1
 200 702 l 1,7,-1
 198 702 l 1,0,-1
598 730 m 1,8,-1
 621 730 l 1,9,-1
 200 0 l 1,10,-1
 177 0 l 1,11,-1
 598 730 l 1,8,-1
400 110 m 1,12,-1
 400 130 l 1,13,-1
 624 438 l 1,14,-1
 644 438 l 1,15,-1
 644 130 l 1,16,-1
 724 130 l 1,17,-1
 724 110 l 1,18,-1
 644 110 l 1,19,-1
 644 0 l 1,20,-1
 624 0 l 1,21,-1
 624 110 l 1,22,-1
 400 110 l 1,12,-1
624 402 m 1,23,-1
 622 402 l 1,24,-1
 426 132 l 1,25,-1
 426 130 l 1,26,-1
 624 130 l 1,27,-1
 624 402 l 1,23,-1
EndSplineSet
Ligature2: "'frac' Diagonal Fractions in Latin lookup 7 subtable" one slash four
EndChar

StartChar: threequarters
Encoding: 190 190 433
Width: 759
Flags: W
LayerCount: 2
Fore
SplineSet
48 318 m 1,1,-1
 58 335 l 1,2,3
 106 306 106 306 163 306 c 0,4,5
 224 306 224 306 255.5 335.5 c 128,-1,6
 287 365 287 365 287 421 c 0,7,8
 287 474 287 474 256.5 499 c 128,-1,9
 226 524 226 524 159 524 c 2,10,-1
 111 524 l 1,11,-1
 111 548 l 1,12,-1
 271 708 l 1,13,-1
 271 710 l 1,14,-1
 52 710 l 1,15,-1
 52 730 l 1,16,-1
 301 730 l 1,17,-1
 301 710 l 1,18,-1
 137 546 l 1,19,-1
 137 544 l 1,20,-1
 159 544 l 2,21,22
 234 544 234 544 270.5 513.5 c 128,-1,23
 307 483 307 483 307 421 c 0,24,25
 307 356 307 356 269.5 321 c 128,-1,26
 232 286 232 286 163 286 c 0,27,0
 100 286 100 286 48 318 c 1,1,-1
585 730 m 1,28,-1
 608 730 l 1,29,-1
 187 0 l 1,30,-1
 164 0 l 1,31,-1
 585 730 l 1,28,-1
387 110 m 1,32,-1
 387 130 l 1,33,-1
 611 438 l 1,34,-1
 631 438 l 1,35,-1
 631 130 l 1,36,-1
 711 130 l 1,37,-1
 711 110 l 1,38,-1
 631 110 l 1,39,-1
 631 0 l 1,40,-1
 611 0 l 1,41,-1
 611 110 l 1,42,-1
 387 110 l 1,32,-1
611 402 m 1,43,-1
 609 402 l 1,44,-1
 413 132 l 1,45,-1
 413 130 l 1,46,-1
 611 130 l 1,47,-1
 611 402 l 1,43,-1
EndSplineSet
Ligature2: "'frac' Diagonal Fractions in Latin lookup 7 subtable" three slash four
EndChar

StartChar: period
Encoding: 46 46 434
Width: 270
Flags: W
LayerCount: 2
Fore
SplineSet
105 60 m 1,0,-1
 165 60 l 1,1,-1
 165 0 l 1,2,-1
 105 0 l 1,3,-1
 105 60 l 1,0,-1
EndSplineSet
EndChar

StartChar: comma
Encoding: 44 44 435
Width: 227
Flags: W
LayerCount: 2
Fore
SplineSet
141 130 m 1,0,-1
 163 130 l 1,1,-1
 54 -170 l 1,2,-1
 32 -170 l 1,3,-1
 141 130 l 1,0,-1
EndSplineSet
EndChar

StartChar: colon
Encoding: 58 58 436
Width: 270
Flags: W
LayerCount: 2
Fore
SplineSet
105 520 m 1,0,-1
 165 520 l 1,1,-1
 165 460 l 1,2,-1
 105 460 l 1,3,-1
 105 520 l 1,0,-1
105 60 m 1,4,-1
 165 60 l 1,5,-1
 165 0 l 1,6,-1
 105 0 l 1,7,-1
 105 60 l 1,4,-1
EndSplineSet
Substitution2: "'fwid' Full Widths in Latin lookup 15 subtable" uniFF1A
Substitution2: "'aalt' Access All Alternates in Latin lookup 0 subtable" uniFF1A
EndChar

StartChar: semicolon
Encoding: 59 59 437
Width: 283
Flags: W
LayerCount: 2
Fore
SplineSet
118 520 m 1,0,-1
 178 520 l 1,1,-1
 178 460 l 1,2,-1
 118 460 l 1,3,-1
 118 520 l 1,0,-1
144 130 m 1,4,-1
 166 130 l 1,5,-1
 57 -170 l 1,6,-1
 35 -170 l 1,7,-1
 144 130 l 1,4,-1
EndSplineSet
EndChar

StartChar: exclam
Encoding: 33 33 439
Width: 270
Flags: W
LayerCount: 2
Fore
SplineSet
125 730 m 1,0,-1
 145 730 l 1,1,-1
 145 190 l 1,2,-1
 125 190 l 1,3,-1
 125 730 l 1,0,-1
105 60 m 1,4,-1
 165 60 l 1,5,-1
 165 0 l 1,6,-1
 105 0 l 1,7,-1
 105 60 l 1,4,-1
EndSplineSet
Substitution2: "'fwid' Full Widths in Latin lookup 15 subtable" uniFF01
Substitution2: "'aalt' Access All Alternates in Latin lookup 0 subtable" uniFF01
EndChar

StartChar: exclamdown
Encoding: 161 161 440
Width: 270
Flags: W
LayerCount: 2
Fore
SplineSet
105 520 m 1,0,-1
 165 520 l 1,1,-1
 165 460 l 1,2,-1
 105 460 l 1,3,-1
 105 520 l 1,0,-1
125 330 m 1,4,-1
 145 330 l 1,5,-1
 145 -210 l 1,6,-1
 125 -210 l 1,7,-1
 125 330 l 1,4,-1
EndSplineSet
EndChar

StartChar: question
Encoding: 63 63 441
Width: 532
Flags: W
LayerCount: 2
Fore
SplineSet
211 276 m 128,-1,1
 225 313 225 313 257.5 346 c 128,-1,2
 290 379 290 379 348 417 c 0,3,4
 418 463 418 463 447.5 502.5 c 128,-1,5
 477 542 477 542 477 590 c 0,6,7
 477 656 477 656 423.5 688 c 128,-1,8
 370 720 370 720 257 720 c 0,9,10
 145 720 145 720 40 686 c 1,11,-1
 34 704 l 1,12,13
 138 740 138 740 257 740 c 0,14,15
 378 740 378 740 437.5 703 c 128,-1,16
 497 666 497 666 497 590 c 0,17,18
 497 536 497 536 465 492.5 c 128,-1,19
 433 449 433 449 359 401 c 0,20,21
 303 364 303 364 272.5 333.5 c 128,-1,22
 242 303 242 303 229.5 269.5 c 128,-1,23
 217 236 217 236 217 190 c 1,24,-1
 197 190 l 1,25,0
 197 239 197 239 211 276 c 128,-1,1
177 60 m 1,26,-1
 237 60 l 1,27,-1
 237 0 l 1,28,-1
 177 0 l 1,29,-1
 177 60 l 1,26,-1
EndSplineSet
Substitution2: "'fwid' Full Widths in Latin lookup 15 subtable" uniFF1F
Substitution2: "'aalt' Access All Alternates in Latin lookup 0 subtable" uniFF1F
EndChar

StartChar: questiondown
Encoding: 191 191 442
Width: 532
Flags: W
LayerCount: 2
Fore
SplineSet
295 460 m 1,0,-1
 295 520 l 1,1,-1
 355 520 l 1,2,-1
 355 460 l 1,3,-1
 295 460 l 1,0,-1
321 244 m 128,-1,5
 307 207 307 207 274.5 174 c 128,-1,6
 242 141 242 141 184 103 c 0,7,8
 114 57 114 57 84.5 17.5 c 128,-1,9
 55 -22 55 -22 55 -70 c 0,10,11
 55 -136 55 -136 108.5 -168 c 128,-1,12
 162 -200 162 -200 275 -200 c 0,13,14
 387 -200 387 -200 492 -166 c 1,15,-1
 498 -184 l 1,16,17
 395 -220 395 -220 275 -220 c 0,18,19
 154 -220 154 -220 94.5 -183 c 128,-1,20
 35 -146 35 -146 35 -70 c 0,21,22
 35 -16 35 -16 67 27.5 c 128,-1,23
 99 71 99 71 173 119 c 0,24,25
 229 156 229 156 259.5 186.5 c 128,-1,26
 290 217 290 217 302.5 250.5 c 128,-1,27
 315 284 315 284 315 330 c 1,28,-1
 335 330 l 1,29,4
 335 281 335 281 321 244 c 128,-1,5
EndSplineSet
EndChar

StartChar: bullet
Encoding: 8226 8226 444
Width: 238
Flags: W
LayerCount: 2
Fore
SplineSet
94.5 265.5 m 128,-1,1
 84 276 84 276 84 290 c 256,2,3
 84 304 84 304 94.5 314.5 c 128,-1,4
 105 325 105 325 119 325 c 256,5,6
 133 325 133 325 143.5 314.5 c 128,-1,7
 154 304 154 304 154 290 c 256,8,9
 154 276 154 276 143.5 265.5 c 128,-1,10
 133 255 133 255 119 255 c 256,11,0
 105 255 105 255 94.5 265.5 c 128,-1,1
EndSplineSet
EndChar

StartChar: asterisk
Encoding: 42 42 445
Width: 482
Flags: W
LayerCount: 2
Fore
SplineSet
109 376 m 1,0,-1
 225 535 l 1,1,-1
 38 595 l 1,2,-1
 44 614 l 1,3,-1
 231 554 l 1,4,-1
 231 750 l 1,5,-1
 251 750 l 1,6,-1
 251 554 l 1,7,-1
 438 614 l 1,8,-1
 444 595 l 1,9,-1
 257 535 l 1,10,-1
 373 376 l 1,11,-1
 356 364 l 1,12,-1
 241 523 l 1,13,-1
 126 364 l 1,14,-1
 109 376 l 1,0,-1
EndSplineSet
EndChar

StartChar: numbersign
Encoding: 35 35 446
Width: 649
Flags: W
LayerCount: 2
Fore
SplineSet
601 515 m 1,0,-1
 470 515 l 1,1,-1
 421 235 l 1,2,-1
 548 235 l 1,3,-1
 548 215 l 1,4,-1
 417 215 l 1,5,-1
 379 0 l 1,6,-1
 358 0 l 1,7,-1
 396 215 l 1,8,-1
 197 215 l 1,9,-1
 159 0 l 1,10,-1
 138 0 l 1,11,-1
 176 215 l 1,12,-1
 48 215 l 1,13,-1
 48 235 l 1,14,-1
 180 235 l 1,15,-1
 229 515 l 1,16,-1
 101 515 l 1,17,-1
 101 535 l 1,18,-1
 233 535 l 1,19,-1
 267 730 l 1,20,-1
 288 730 l 1,21,-1
 254 535 l 1,22,-1
 453 535 l 1,23,-1
 487 730 l 1,24,-1
 508 730 l 1,25,-1
 474 535 l 1,26,-1
 601 535 l 1,27,-1
 601 515 l 1,0,-1
400 235 m 1,28,-1
 449 515 l 1,29,-1
 250 515 l 1,30,-1
 201 235 l 1,31,-1
 400 235 l 1,28,-1
EndSplineSet
EndChar

StartChar: slash
Encoding: 47 47 447
Width: 402
Flags: W
LayerCount: 2
Fore
SplineSet
361 750 m 1,0,-1
 383 750 l 1,1,-1
 41 -40 l 1,2,-1
 19 -40 l 1,3,-1
 361 750 l 1,0,-1
EndSplineSet
EndChar

StartChar: backslash
Encoding: 92 92 448
Width: 402
Flags: W
LayerCount: 2
Fore
SplineSet
383 -40 m 1,0,-1
 361 -40 l 1,1,-1
 19 750 l 1,2,-1
 41 750 l 1,3,-1
 383 -40 l 1,0,-1
EndSplineSet
EndChar

StartChar: parenleft
Encoding: 40 40 449
Width: 320
Flags: W
LayerCount: 2
Fore
SplineSet
128 97 m 128,-1,1
 95 205 95 205 95 330 c 256,2,3
 95 455 95 455 128 563 c 128,-1,4
 161 671 161 671 229 770 c 1,5,-1
 253 770 l 1,6,7
 182 671 182 671 148.5 563.5 c 128,-1,8
 115 456 115 456 115 330 c 256,9,10
 115 204 115 204 148.5 96.5 c 128,-1,11
 182 -11 182 -11 253 -110 c 1,12,-1
 229 -110 l 1,13,0
 161 -11 161 -11 128 97 c 128,-1,1
EndSplineSet
Substitution2: "'fwid' Full Widths in Latin lookup 15 subtable" uniFF08
Substitution2: "'aalt' Access All Alternates in Latin lookup 0 subtable" uniFF08
EndChar

StartChar: parenright
Encoding: 41 41 450
Width: 320
Flags: W
LayerCount: 2
Fore
SplineSet
67 -110 m 1,0,1
 138 -11 138 -11 171.5 96.5 c 128,-1,2
 205 204 205 204 205 330 c 256,3,4
 205 456 205 456 171.5 563.5 c 128,-1,5
 138 671 138 671 67 770 c 1,6,-1
 91 770 l 1,7,8
 159 671 159 671 192 563 c 128,-1,9
 225 455 225 455 225 330 c 256,10,11
 225 205 225 205 192 97 c 128,-1,12
 159 -11 159 -11 91 -110 c 1,13,-1
 67 -110 l 1,0,1
EndSplineSet
Substitution2: "'fwid' Full Widths in Latin lookup 15 subtable" uniFF09
Substitution2: "'aalt' Access All Alternates in Latin lookup 0 subtable" uniFF09
EndChar

StartChar: braceleft
Encoding: 123 123 451
Width: 451
Flags: W
LayerCount: 2
Fore
SplineSet
215.5 -76.5 m 128,-1,1
 187 -43 187 -43 187 30 c 2,2,-1
 187 190 l 2,3,4
 187 249 187 249 165 284.5 c 128,-1,5
 143 320 143 320 107 320 c 2,6,-1
 57 320 l 1,7,-1
 57 340 l 1,8,-1
 107 340 l 2,9,10
 143 340 143 340 165 375.5 c 128,-1,11
 187 411 187 411 187 470 c 2,12,-1
 187 630 l 2,13,14
 187 703 187 703 215.5 736.5 c 128,-1,15
 244 770 244 770 307 770 c 2,16,-1
 387 770 l 1,17,-1
 387 750 l 1,18,-1
 307 750 l 2,19,20
 253 750 253 750 230 722.5 c 128,-1,21
 207 695 207 695 207 630 c 2,22,-1
 207 470 l 2,23,24
 207 419 207 419 191 383 c 128,-1,25
 175 347 175 347 146 331 c 1,26,-1
 146 329 l 1,27,28
 175 313 175 313 191 277 c 128,-1,29
 207 241 207 241 207 190 c 2,30,-1
 207 30 l 2,31,32
 207 -35 207 -35 230 -62.5 c 128,-1,33
 253 -90 253 -90 307 -90 c 2,34,-1
 387 -90 l 1,35,-1
 387 -110 l 1,36,-1
 307 -110 l 2,37,0
 244 -110 244 -110 215.5 -76.5 c 128,-1,1
EndSplineSet
EndChar

StartChar: braceright
Encoding: 125 125 452
Width: 451
Flags: W
LayerCount: 2
Fore
SplineSet
64 -110 m 1,0,-1
 64 -90 l 1,1,-1
 144 -90 l 2,2,3
 198 -90 198 -90 221 -62.5 c 128,-1,4
 244 -35 244 -35 244 30 c 2,5,-1
 244 190 l 2,6,7
 244 241 244 241 260 277 c 128,-1,8
 276 313 276 313 305 329 c 1,9,-1
 305 331 l 1,10,11
 276 347 276 347 260 383 c 128,-1,12
 244 419 244 419 244 470 c 2,13,-1
 244 630 l 2,14,15
 244 695 244 695 221 722.5 c 128,-1,16
 198 750 198 750 144 750 c 2,17,-1
 64 750 l 1,18,-1
 64 770 l 1,19,-1
 144 770 l 2,20,21
 207 770 207 770 235.5 736.5 c 128,-1,22
 264 703 264 703 264 630 c 2,23,-1
 264 470 l 2,24,25
 264 411 264 411 286 375.5 c 128,-1,26
 308 340 308 340 344 340 c 2,27,-1
 394 340 l 1,28,-1
 394 320 l 1,29,-1
 344 320 l 2,30,31
 308 320 308 320 286 284.5 c 128,-1,32
 264 249 264 249 264 190 c 2,33,-1
 264 30 l 2,34,35
 264 -43 264 -43 235.5 -76.5 c 128,-1,36
 207 -110 207 -110 144 -110 c 2,37,-1
 64 -110 l 1,0,-1
EndSplineSet
EndChar

StartChar: bracketleft
Encoding: 91 91 453
Width: 388
Flags: W
LayerCount: 2
Fore
SplineSet
105 770 m 1,0,-1
 335 770 l 1,1,-1
 335 750 l 1,2,-1
 125 750 l 1,3,-1
 125 -90 l 1,4,-1
 335 -90 l 1,5,-1
 335 -110 l 1,6,-1
 105 -110 l 1,7,-1
 105 770 l 1,0,-1
EndSplineSet
EndChar

StartChar: bracketright
Encoding: 93 93 454
Width: 388
Flags: W
LayerCount: 2
Fore
SplineSet
283 -110 m 1,0,-1
 53 -110 l 1,1,-1
 53 -90 l 1,2,-1
 263 -90 l 1,3,-1
 263 750 l 1,4,-1
 53 750 l 1,5,-1
 53 770 l 1,6,-1
 283 770 l 1,7,-1
 283 -110 l 1,0,-1
EndSplineSet
EndChar

StartChar: hyphen
Encoding: 45 45 455
Width: 384
Flags: W
LayerCount: 2
Fore
SplineSet
57 300 m 1,0,-1
 327 300 l 1,1,-1
 327 280 l 1,2,-1
 57 280 l 1,3,-1
 57 300 l 1,0,-1
EndSplineSet
EndChar

StartChar: endash
Encoding: 8211 8211 457
Width: 500
Flags: W
LayerCount: 2
Fore
SplineSet
0 300 m 1,0,-1
 500 300 l 1,1,-1
 500 280 l 1,2,-1
 0 280 l 1,3,-1
 0 300 l 1,0,-1
EndSplineSet
EndChar

StartChar: emdash
Encoding: 8212 8212 458
Width: 1000
Flags: W
LayerCount: 2
Fore
SplineSet
0 300 m 1,0,-1
 1000 300 l 1,1,-1
 1000 280 l 1,2,-1
 0 280 l 1,3,-1
 0 300 l 1,0,-1
EndSplineSet
EndChar

StartChar: uni2015
Encoding: 8213 8213 459
Width: 1000
Flags: W
LayerCount: 2
Fore
SplineSet
50 370 m 1,0,-1
 950 370 l 1,1,-1
 950 350 l 1,2,-1
 50 350 l 1,3,-1
 50 370 l 1,0,-1
EndSplineSet
EndChar

StartChar: underscore
Encoding: 95 95 460
Width: 560
Flags: W
LayerCount: 2
Fore
SplineSet
0 -90 m 1,0,-1
 560 -90 l 1,1,-1
 560 -110 l 1,2,-1
 0 -110 l 1,3,-1
 0 -90 l 1,0,-1
EndSplineSet
EndChar

StartChar: quoteleft
Encoding: 8216 8216 465
Width: 208
Flags: W
LayerCount: 2
Fore
SplineSet
70 470 m 1,0,-1
 48 470 l 1,1,-1
 157 770 l 1,2,-1
 179 770 l 1,3,-1
 70 470 l 1,0,-1
EndSplineSet
EndChar

StartChar: quoteright
Encoding: 8217 8217 466
Width: 208
Flags: W
LayerCount: 2
Fore
SplineSet
157 770 m 1,0,-1
 179 770 l 1,1,-1
 70 470 l 1,2,-1
 48 470 l 1,3,-1
 157 770 l 1,0,-1
EndSplineSet
EndChar

StartChar: guillemotright
Encoding: 187 187 468
Width: 388
Flags: W
LayerCount: 2
Fore
SplineSet
43 60 m 1,0,-1
 197 290 l 1,1,-1
 43 520 l 1,2,-1
 67 520 l 1,3,-1
 221 290 l 1,4,-1
 67 60 l 1,5,-1
 43 60 l 1,0,-1
193 60 m 1,6,-1
 347 290 l 1,7,-1
 193 520 l 1,8,-1
 217 520 l 1,9,-1
 371 290 l 1,10,-1
 217 60 l 1,11,-1
 193 60 l 1,6,-1
EndSplineSet
EndChar

StartChar: guilsinglleft
Encoding: 8249 8249 469
Width: 238
Flags: W
LayerCount: 2
Fore
SplineSet
17 290 m 1,0,-1
 171 520 l 1,1,-1
 195 520 l 1,2,-1
 41 290 l 1,3,-1
 195 60 l 1,4,-1
 171 60 l 1,5,-1
 17 290 l 1,0,-1
EndSplineSet
EndChar

StartChar: guilsinglright
Encoding: 8250 8250 470
Width: 238
Flags: W
LayerCount: 2
Fore
SplineSet
67 60 m 1,0,-1
 43 60 l 1,1,-1
 197 290 l 1,2,-1
 43 520 l 1,3,-1
 67 520 l 1,4,-1
 221 290 l 1,5,-1
 67 60 l 1,0,-1
EndSplineSet
EndChar

StartChar: quotesingle
Encoding: 39 39 472
Width: 210
Flags: W
LayerCount: 2
Fore
SplineSet
95 770 m 1,0,-1
 115 770 l 1,1,-1
 115 470 l 1,2,-1
 95 470 l 1,3,-1
 95 770 l 1,0,-1
EndSplineSet
EndChar

StartChar: uni20B5
Encoding: 8373 8373 474
Width: 694
Flags: W
LayerCount: 2
Fore
SplineSet
637 55 m 1,0,1
 543 -7 543 -7 419 -10 c 1,2,-1
 419 -105 l 1,3,-1
 399 -105 l 1,4,-1
 399 -10 l 1,5,6
 293 -8 293 -8 213.5 39 c 128,-1,7
 134 86 134 86 90.5 170 c 128,-1,8
 47 254 47 254 47 365 c 256,9,10
 47 476 47 476 90.5 560 c 128,-1,11
 134 644 134 644 213.5 691 c 128,-1,12
 293 738 293 738 399 740 c 1,13,-1
 399 835 l 1,14,-1
 419 835 l 1,15,-1
 419 740 l 1,16,17
 543 737 543 737 637 675 c 1,18,-1
 626 658 l 1,19,20
 537 717 537 717 419 720 c 1,21,-1
 419 10 l 1,22,23
 537 13 537 13 626 72 c 1,24,-1
 637 55 l 1,0,1
107.5 179.5 m 128,-1,26
 148 100 148 100 223 56 c 128,-1,27
 298 12 298 12 399 10 c 1,28,-1
 399 720 l 1,29,30
 299 718 299 718 224 673.5 c 128,-1,31
 149 629 149 629 108 549.5 c 128,-1,32
 67 470 67 470 67 365 c 0,33,25
 67 259 67 259 107.5 179.5 c 128,-1,26
EndSplineSet
EndChar

StartChar: cent
Encoding: 162 162 475
Width: 520
Flags: W
LayerCount: 2
Fore
SplineSet
443 25 m 1,0,1
 376 -9 376 -9 309 -10 c 1,2,-1
 309 -105 l 1,3,-1
 289 -105 l 1,4,-1
 289 -10 l 1,5,6
 175 -7 175 -7 109 65.5 c 128,-1,7
 43 138 43 138 43 260 c 256,8,9
 43 382 43 382 109 454.5 c 128,-1,10
 175 527 175 527 289 530 c 1,11,-1
 289 625 l 1,12,-1
 309 625 l 1,13,-1
 309 530 l 1,14,15
 376 529 376 529 443 495 c 1,16,-1
 434 477 l 1,17,18
 371 509 371 509 309 510 c 1,19,-1
 309 10 l 1,20,21
 371 11 371 11 434 43 c 1,22,-1
 443 25 l 1,0,1
123 80 m 128,-1,24
 183 13 183 13 289 10 c 1,25,-1
 289 510 l 1,26,27
 183 507 183 507 123 440 c 128,-1,28
 63 373 63 373 63 260 c 256,29,23
 63 147 63 147 123 80 c 128,-1,24
EndSplineSet
EndChar

StartChar: colonmonetary
Encoding: 8353 8353 476
Width: 694
Flags: W
LayerCount: 2
Fore
SplineSet
637 55 m 1,0,1
 552 -1 552 -1 448 -8 c 1,2,-1
 440 -105 l 1,3,-1
 420 -105 l 1,4,-1
 428 -10 l 1,5,-1
 409 -10 l 2,6,7
 342 -10 342 -10 280 9 c 1,8,-1
 270 -105 l 1,9,-1
 250 -105 l 1,10,-1
 260 16 l 1,11,12
 159 55 159 55 103 146.5 c 128,-1,13
 47 238 47 238 47 365 c 0,14,15
 47 461 47 461 80.5 538 c 128,-1,16
 114 615 114 615 175.5 664.5 c 128,-1,17
 237 714 237 714 321 731 c 1,18,-1
 330 835 l 1,19,-1
 350 835 l 1,20,-1
 341 735 l 1,21,22
 378 740 378 740 409 740 c 0,23,24
 455 740 455 740 491 733 c 1,25,-1
 500 835 l 1,26,-1
 520 835 l 1,27,-1
 511 729 l 1,28,29
 580 713 580 713 637 675 c 1,30,-1
 626 658 l 1,31,32
 574 692 574 692 509 709 c 1,33,-1
 450 12 l 1,34,35
 550 21 550 21 626 72 c 1,36,-1
 637 55 l 1,0,1
430 10 m 1,37,-1
 490 713 l 1,38,39
 454 720 454 720 409 720 c 0,40,41
 373 720 373 720 340 714 c 1,42,-1
 281 30 l 1,43,44
 341 10 341 10 409 10 c 2,45,-1
 430 10 l 1,37,-1
118.5 160.5 m 128,-1,47
 170 75 170 75 262 37 c 1,48,-1
 319 711 l 1,49,50
 201 685 201 685 134 593.5 c 128,-1,51
 67 502 67 502 67 365 c 0,52,46
 67 246 67 246 118.5 160.5 c 128,-1,47
EndSplineSet
EndChar

StartChar: currency
Encoding: 164 164 477
Width: 678
Flags: W
LayerCount: 2
Fore
SplineSet
544 285 m 128,-1,1
 529 247 529 247 502 217 c 1,2,-1
 601 118 l 1,3,-1
 586 103 l 1,4,-1
 487 202 l 1,5,6
 457 175 457 175 419 160 c 128,-1,7
 381 145 381 145 339 145 c 256,8,9
 297 145 297 145 259 160 c 128,-1,10
 221 175 221 175 191 202 c 1,11,-1
 92 103 l 1,12,-1
 77 118 l 1,13,-1
 176 217 l 1,14,15
 149 247 149 247 134 285 c 128,-1,16
 119 323 119 323 119 365 c 256,17,18
 119 407 119 407 134 445 c 128,-1,19
 149 483 149 483 176 513 c 1,20,-1
 77 613 l 1,21,-1
 92 627 l 1,22,-1
 191 528 l 1,23,24
 221 555 221 555 259 570 c 128,-1,25
 297 585 297 585 339 585 c 256,26,27
 381 585 381 585 419 570 c 128,-1,28
 457 555 457 555 487 528 c 1,29,-1
 586 627 l 1,30,-1
 601 612 l 1,31,-1
 502 513 l 1,32,33
 529 483 529 483 544 445 c 128,-1,34
 559 407 559 407 559 365 c 256,35,0
 559 323 559 323 544 285 c 128,-1,1
166 265 m 128,-1,37
 193 219 193 219 239 192 c 128,-1,38
 285 165 285 165 339 165 c 256,39,40
 393 165 393 165 439 192 c 128,-1,41
 485 219 485 219 512 265 c 128,-1,42
 539 311 539 311 539 365 c 256,43,44
 539 419 539 419 512 465 c 128,-1,45
 485 511 485 511 439 538 c 128,-1,46
 393 565 393 565 339 565 c 256,47,48
 285 565 285 565 239 538 c 128,-1,49
 193 511 193 511 166 465 c 128,-1,50
 139 419 139 419 139 365 c 256,51,36
 139 311 139 311 166 265 c 128,-1,37
EndSplineSet
EndChar

StartChar: dollar
Encoding: 36 36 478
Width: 614
Flags: W
LayerCount: 2
Fore
SplineSet
486.5 42 m 128,-1,1
 426 -8 426 -8 317 -10 c 1,2,-1
 317 -105 l 1,3,-1
 297 -105 l 1,4,-1
 297 -10 l 1,5,6
 233 -9 233 -9 173.5 9.5 c 128,-1,7
 114 28 114 28 67 60 c 1,8,-1
 79 76 l 1,9,10
 123 46 123 46 179.5 28.5 c 128,-1,11
 236 11 236 11 297 10 c 1,12,-1
 297 383 l 1,13,14
 177 425 177 425 127.5 469.5 c 128,-1,15
 78 514 78 514 78 580 c 0,16,17
 78 655 78 655 135 696.5 c 128,-1,18
 192 738 192 738 297 740 c 1,19,-1
 297 835 l 1,20,-1
 317 835 l 1,21,-1
 317 740 l 1,22,23
 439 737 439 737 536 680 c 1,24,-1
 526 663 l 1,25,26
 433 717 433 717 317 720 c 1,27,-1
 317 397 l 1,28,29
 404 366 404 366 453.5 336 c 128,-1,30
 503 306 503 306 525 269 c 128,-1,31
 547 232 547 232 547 180 c 0,32,0
 547 92 547 92 486.5 42 c 128,-1,1
143 482.5 m 128,-1,34
 188 443 188 443 297 404 c 1,35,-1
 297 720 l 1,36,37
 200 718 200 718 149 682 c 128,-1,38
 98 646 98 646 98 580 c 0,39,33
 98 522 98 522 143 482.5 c 128,-1,34
472.5 56.5 m 128,-1,41
 527 101 527 101 527 180 c 0,42,43
 527 226 527 226 507 259.5 c 128,-1,44
 487 293 487 293 442 320.5 c 128,-1,45
 397 348 397 348 317 376 c 1,46,-1
 317 10 l 1,47,40
 418 12 418 12 472.5 56.5 c 128,-1,41
EndSplineSet
EndChar

StartChar: dong
Encoding: 8363 8363 479
Width: 675
Flags: W
LayerCount: 2
Fore
SplineSet
611 660 m 1,0,-1
 611 640 l 1,1,-1
 491 640 l 1,2,-1
 491 150 l 1,3,-1
 471 150 l 1,4,-1
 471 246 l 1,5,-1
 469 246 l 1,6,7
 445 197 445 197 396 169.5 c 128,-1,8
 347 142 347 142 281 142 c 0,9,10
 183 142 183 142 127 199.5 c 128,-1,11
 71 257 71 257 71 358 c 256,12,13
 71 459 71 459 127 516.5 c 128,-1,14
 183 574 183 574 281 574 c 0,15,16
 347 574 347 574 396 546.5 c 128,-1,17
 445 519 445 519 469 470 c 1,18,-1
 471 470 l 1,19,-1
 471 640 l 1,20,-1
 191 640 l 1,21,-1
 191 660 l 1,22,-1
 471 660 l 1,23,-1
 471 750 l 1,24,-1
 491 750 l 1,25,-1
 491 660 l 1,26,-1
 611 660 l 1,0,-1
419 210 m 128,-1,28
 471 258 471 258 471 338 c 2,29,-1
 471 378 l 2,30,31
 471 458 471 458 419 506 c 128,-1,32
 367 554 367 554 281 554 c 0,33,34
 192 554 192 554 141.5 502 c 128,-1,35
 91 450 91 450 91 358 c 256,36,37
 91 266 91 266 141.5 214 c 128,-1,38
 192 162 192 162 281 162 c 0,39,27
 367 162 367 162 419 210 c 128,-1,28
76 0 m 1,40,-1
 76 20 l 1,41,-1
 611 20 l 1,42,-1
 611 0 l 1,43,-1
 76 0 l 1,40,-1
EndSplineSet
EndChar

StartChar: Euro
Encoding: 8364 8364 480
Width: 773
GlyphClass: 2
Flags: W
AnchorPoint: "Anchor-1" 469 730 basechar 0
AnchorPoint: "Anchor-0" 469 0 basechar 0
LayerCount: 2
Fore
SplineSet
705 72 m 1,1,-1
 716 55 l 1,2,3
 619 -10 619 -10 492 -10 c 0,4,5
 355 -10 355 -10 263 65 c 128,-1,6
 171 140 171 140 145 270 c 1,7,-1
 38 270 l 1,8,-1
 38 290 l 1,9,-1
 141 290 l 1,10,11
 136 330 136 330 136 365 c 256,12,13
 136 400 136 400 141 440 c 1,14,-1
 38 440 l 1,15,-1
 38 460 l 1,16,-1
 145 460 l 1,17,18
 171 590 171 590 263 665 c 128,-1,19
 355 740 355 740 492 740 c 0,20,21
 619 740 619 740 716 675 c 1,22,-1
 705 658 l 1,23,24
 613 720 613 720 492 720 c 0,25,26
 364 720 364 720 277.5 650.5 c 128,-1,27
 191 581 191 581 165 460 c 1,28,-1
 638 460 l 1,29,-1
 638 440 l 1,30,-1
 162 440 l 1,31,32
 156 404 156 404 156 365 c 256,33,34
 156 326 156 326 162 290 c 1,35,-1
 638 290 l 1,36,-1
 638 270 l 1,37,-1
 165 270 l 1,38,39
 191 148 191 148 277 79 c 128,-1,40
 363 10 363 10 492 10 c 0,41,0
 613 10 613 10 705 72 c 1,1,-1
EndSplineSet
EndChar

StartChar: florin
Encoding: 402 402 481
Width: 435
Flags: W
LayerCount: 2
Fore
SplineSet
25 -105 m 1,1,-1
 33 -86 l 1,2,3
 65 -100 65 -100 99 -100 c 0,4,5
 155 -100 155 -100 181 -69 c 128,-1,6
 207 -38 207 -38 207 30 c 2,7,-1
 207 380 l 1,8,-1
 49 380 l 1,9,-1
 49 400 l 1,10,-1
 207 400 l 1,11,-1
 207 590 l 2,12,13
 207 666 207 666 238.5 703 c 128,-1,14
 270 740 270 740 335 740 c 0,15,16
 372 740 372 740 409 725 c 1,17,-1
 401 706 l 1,18,19
 369 720 369 720 335 720 c 0,20,21
 279 720 279 720 253 689 c 128,-1,22
 227 658 227 658 227 590 c 2,23,-1
 227 400 l 1,24,-1
 409 400 l 1,25,-1
 409 380 l 1,26,-1
 227 380 l 1,27,-1
 227 30 l 2,28,29
 227 -46 227 -46 195.5 -83 c 128,-1,30
 164 -120 164 -120 99 -120 c 0,31,0
 62 -120 62 -120 25 -105 c 1,1,-1
EndSplineSet
EndChar

StartChar: franc
Encoding: 8355 8355 482
Width: 612
Flags: W
LayerCount: 2
Fore
SplineSet
560 710 m 1,0,-1
 160 710 l 1,1,-1
 160 420 l 1,2,-1
 540 420 l 1,3,-1
 540 400 l 1,4,-1
 160 400 l 1,5,-1
 160 155 l 1,6,-1
 450 155 l 1,7,-1
 450 135 l 1,8,-1
 160 135 l 1,9,-1
 160 0 l 1,10,-1
 140 0 l 1,11,-1
 140 135 l 1,12,-1
 30 135 l 1,13,-1
 30 155 l 1,14,-1
 140 155 l 1,15,-1
 140 730 l 1,16,-1
 560 730 l 1,17,-1
 560 710 l 1,0,-1
EndSplineSet
EndChar

StartChar: uni20B2
Encoding: 8370 8370 483
Width: 788
Flags: W
LayerCount: 2
Fore
SplineSet
707 400 m 1,0,-1
 707 44 l 1,1,2
 654 19 654 19 580.5 4.5 c 128,-1,3
 507 -10 507 -10 437 -10 c 0,4,5
 412 -10 412 -10 400 -9 c 1,6,-1
 400 -105 l 1,7,-1
 380 -105 l 1,8,-1
 380 -7 l 1,9,10
 223 8 223 8 135 106 c 128,-1,11
 47 204 47 204 47 365 c 256,12,13
 47 526 47 526 135 624 c 128,-1,14
 223 722 223 722 380 737 c 1,15,-1
 380 835 l 1,16,-1
 400 835 l 1,17,-1
 400 739 l 1,18,19
 412 740 412 740 437 740 c 0,20,21
 576 740 576 740 680 680 c 1,22,-1
 670 663 l 1,23,24
 572 720 572 720 437 720 c 0,25,26
 412 720 412 720 400 719 c 1,27,-1
 400 400 l 1,28,-1
 707 400 l 1,0,-1
149.5 120 m 128,-1,30
 232 28 232 28 380 13 c 1,31,-1
 380 717 l 1,32,33
 232 702 232 702 149.5 610 c 128,-1,34
 67 518 67 518 67 365 c 256,35,29
 67 212 67 212 149.5 120 c 128,-1,30
437 10 m 0,37,38
 501 10 501 10 568 23 c 128,-1,39
 635 36 635 36 687 57 c 1,40,-1
 687 380 l 1,41,-1
 400 380 l 1,42,-1
 400 11 l 1,43,36
 412 10 412 10 437 10 c 0,37,38
EndSplineSet
EndChar

StartChar: uni20AD
Encoding: 8365 8365 484
Width: 696
GlyphClass: 2
Flags: W
AnchorPoint: "Anchor-1" 325 730 basechar 0
AnchorPoint: "Anchor-0" 325 0 basechar 0
LayerCount: 2
Fore
SplineSet
620 400 m 1,0,-1
 620 380 l 1,1,-1
 186 380 l 1,2,-1
 620 0 l 1,3,-1
 590 0 l 1,4,-1
 162 376 l 1,5,-1
 160 376 l 1,6,-1
 160 0 l 1,7,-1
 140 0 l 1,8,-1
 140 380 l 1,9,-1
 30 380 l 1,10,-1
 30 400 l 1,11,-1
 140 400 l 1,12,-1
 140 730 l 1,13,-1
 160 730 l 1,14,-1
 160 404 l 1,15,-1
 162 404 l 1,16,-1
 577 730 l 1,17,-1
 610 730 l 1,18,-1
 188 400 l 1,19,-1
 620 400 l 1,0,-1
EndSplineSet
EndChar

StartChar: lira
Encoding: 8356 8356 485
Width: 656
Flags: W
LayerCount: 2
Fore
SplineSet
585 20 m 1,0,-1
 585 0 l 1,1,-1
 105 0 l 1,2,-1
 105 20 l 1,3,4
 135 22 135 22 162.5 44.5 c 128,-1,5
 190 67 190 67 207.5 107 c 128,-1,6
 225 147 225 147 225 200 c 2,7,-1
 225 295 l 1,8,-1
 105 295 l 1,9,-1
 105 315 l 1,10,-1
 225 315 l 1,11,-1
 225 465 l 1,12,-1
 105 465 l 1,13,-1
 105 485 l 1,14,-1
 225 485 l 1,15,-1
 225 550 l 2,16,17
 225 642 225 642 277.5 691 c 128,-1,18
 330 740 330 740 430 740 c 0,19,20
 493 740 493 740 548 714 c 1,21,-1
 540 696 l 1,22,23
 490 720 490 720 430 720 c 0,24,25
 339 720 339 720 292 676.5 c 128,-1,26
 245 633 245 633 245 550 c 2,27,-1
 245 485 l 1,28,-1
 525 485 l 1,29,-1
 525 465 l 1,30,-1
 245 465 l 1,31,-1
 245 315 l 1,32,-1
 525 315 l 1,33,-1
 525 295 l 1,34,-1
 245 295 l 1,35,-1
 245 200 l 2,36,37
 245 141 245 141 223 94.5 c 128,-1,38
 201 48 201 48 163 22 c 1,39,-1
 163 20 l 1,40,-1
 585 20 l 1,0,-1
EndSplineSet
EndChar

StartChar: uni20BA
Encoding: 8378 8378 486
Width: 663
Flags: W
LayerCount: 2
Fore
SplineSet
620 340 m 1,0,1
 620 217 620 217 574 140 c 128,-1,2
 528 63 528 63 431.5 26.5 c 128,-1,3
 335 -10 335 -10 180 -10 c 2,4,-1
 140 -10 l 1,5,-1
 140 396 l 1,6,-1
 30 375 l 1,7,-1
 30 395 l 1,8,-1
 140 416 l 1,9,-1
 140 566 l 1,10,-1
 30 545 l 1,11,-1
 30 565 l 1,12,-1
 140 586 l 1,13,-1
 140 730 l 1,14,-1
 160 730 l 1,15,-1
 160 590 l 1,16,-1
 450 645 l 1,17,-1
 450 625 l 1,18,-1
 160 570 l 1,19,-1
 160 420 l 1,20,-1
 450 475 l 1,21,-1
 450 455 l 1,22,-1
 160 400 l 1,23,-1
 160 10 l 1,24,-1
 180 10 l 2,25,26
 330 10 330 10 422 44 c 128,-1,27
 514 78 514 78 557 150.5 c 128,-1,28
 600 223 600 223 600 340 c 1,29,-1
 620 340 l 1,0,1
EndSplineSet
EndChar

StartChar: uni20BC
Encoding: 8380 8380 487
Width: 750
Flags: W
LayerCount: 2
Fore
SplineSet
599.5 669.5 m 128,-1,1
 665 599 665 599 665 460 c 2,2,-1
 665 0 l 1,3,-1
 645 0 l 1,4,-1
 645 460 l 2,5,6
 645 720 645 720 405 720 c 2,7,-1
 385 720 l 1,8,-1
 385 0 l 1,9,-1
 365 0 l 1,10,-1
 365 720 l 1,11,-1
 345 720 l 2,12,13
 105 720 105 720 105 460 c 2,14,-1
 105 0 l 1,15,-1
 85 0 l 1,16,-1
 85 460 l 2,17,18
 85 599 85 599 150.5 669.5 c 128,-1,19
 216 740 216 740 345 740 c 2,20,-1
 365 740 l 1,21,-1
 365 835 l 1,22,-1
 385 835 l 1,23,-1
 385 740 l 1,24,-1
 405 740 l 2,25,0
 534 740 534 740 599.5 669.5 c 128,-1,1
EndSplineSet
EndChar

StartChar: uni20A6
Encoding: 8358 8358 488
Width: 800
GlyphClass: 2
Flags: W
AnchorPoint: "Anchor-1" 400 730 basechar 0
AnchorPoint: "Anchor-0" 400 0 basechar 0
LayerCount: 2
Fore
SplineSet
770 440 m 1,0,-1
 660 440 l 1,1,-1
 660 290 l 1,2,-1
 770 290 l 1,3,-1
 770 270 l 1,4,-1
 660 270 l 1,5,-1
 660 0 l 1,6,-1
 628 0 l 1,7,-1
 451 270 l 1,8,-1
 160 270 l 1,9,-1
 160 0 l 1,10,-1
 140 0 l 1,11,-1
 140 270 l 1,12,-1
 30 270 l 1,13,-1
 30 290 l 1,14,-1
 140 290 l 1,15,-1
 140 440 l 1,16,-1
 30 440 l 1,17,-1
 30 460 l 1,18,-1
 140 460 l 1,19,-1
 140 730 l 1,20,-1
 172 730 l 1,21,-1
 349 460 l 1,22,-1
 640 460 l 1,23,-1
 640 730 l 1,24,-1
 660 730 l 1,25,-1
 660 460 l 1,26,-1
 770 460 l 1,27,-1
 770 440 l 1,0,-1
160 709 m 1,28,-1
 160 460 l 1,29,-1
 326 460 l 1,30,-1
 162 709 l 1,31,-1
 160 709 l 1,28,-1
437 290 m 1,32,-1
 339 440 l 1,33,-1
 160 440 l 1,34,-1
 160 290 l 1,35,-1
 437 290 l 1,32,-1
640 290 m 1,36,-1
 640 440 l 1,37,-1
 363 440 l 1,38,-1
 461 290 l 1,39,-1
 640 290 l 1,36,-1
640 21 m 1,40,-1
 640 270 l 1,41,-1
 474 270 l 1,42,-1
 638 21 l 1,43,-1
 640 21 l 1,40,-1
EndSplineSet
EndChar

StartChar: peseta
Encoding: 8359 8359 489
Width: 682
Flags: W
LayerCount: 2
Fore
SplineSet
670 505 m 1,0,-1
 580 505 l 1,1,2
 577 398 577 398 507.5 349 c 128,-1,3
 438 300 438 300 290 300 c 2,4,-1
 160 300 l 1,5,-1
 160 0 l 1,6,-1
 140 0 l 1,7,-1
 140 505 l 1,8,-1
 30 505 l 1,9,-1
 30 525 l 1,10,-1
 140 525 l 1,11,-1
 140 730 l 1,12,-1
 290 730 l 2,13,14
 438 730 438 730 507.5 681 c 128,-1,15
 577 632 577 632 580 525 c 1,16,-1
 670 525 l 1,17,-1
 670 505 l 1,0,-1
160 525 m 1,18,-1
 560 525 l 1,19,20
 557 623 557 623 493 666.5 c 128,-1,21
 429 710 429 710 290 710 c 2,22,-1
 160 710 l 1,23,-1
 160 525 l 1,18,-1
493 363.5 m 128,-1,25
 557 407 557 407 560 505 c 1,26,-1
 160 505 l 1,27,-1
 160 320 l 1,28,-1
 290 320 l 2,29,24
 429 320 429 320 493 363.5 c 128,-1,25
EndSplineSet
EndChar

StartChar: uni20B1
Encoding: 8369 8369 490
Width: 682
Flags: W
LayerCount: 2
Fore
SplineSet
670 590 m 1,0,-1
 571 590 l 1,1,2
 580 557 580 557 580 515 c 256,3,4
 580 473 580 473 571 440 c 1,5,-1
 670 440 l 1,6,-1
 670 420 l 1,7,-1
 564 420 l 1,8,9
 539 359 539 359 471.5 329.5 c 128,-1,10
 404 300 404 300 290 300 c 2,11,-1
 160 300 l 1,12,-1
 160 0 l 1,13,-1
 140 0 l 1,14,-1
 140 420 l 1,15,-1
 30 420 l 1,16,-1
 30 440 l 1,17,-1
 140 440 l 1,18,-1
 140 590 l 1,19,-1
 30 590 l 1,20,-1
 30 610 l 1,21,-1
 140 610 l 1,22,-1
 140 730 l 1,23,-1
 290 730 l 2,24,25
 404 730 404 730 471.5 700.5 c 128,-1,26
 539 671 539 671 564 610 c 1,27,-1
 670 610 l 1,28,-1
 670 590 l 1,0,-1
160 610 m 1,29,-1
 542 610 l 1,30,31
 517 662 517 662 455.5 686 c 128,-1,32
 394 710 394 710 290 710 c 2,33,-1
 160 710 l 1,34,-1
 160 610 l 1,29,-1
550 590 m 1,36,-1
 160 590 l 1,37,-1
 160 440 l 1,38,-1
 550 440 l 1,39,40
 560 471 560 471 560 515 c 256,41,35
 560 559 560 559 550 590 c 1,36,-1
455.5 344 m 128,-1,43
 517 368 517 368 542 420 c 1,44,-1
 160 420 l 1,45,-1
 160 320 l 1,46,-1
 290 320 l 2,47,42
 394 320 394 320 455.5 344 c 128,-1,43
EndSplineSet
EndChar

StartChar: uni20BD
Encoding: 8381 8381 491
Width: 609
Flags: W
LayerCount: 2
Fore
SplineSet
160 310 m 1,0,-1
 160 160 l 1,1,-1
 450 160 l 1,2,-1
 450 140 l 1,3,-1
 160 140 l 1,4,-1
 160 0 l 1,5,-1
 140 0 l 1,6,-1
 140 140 l 1,7,-1
 30 140 l 1,8,-1
 30 160 l 1,9,-1
 140 160 l 1,10,-1
 140 310 l 1,11,-1
 30 310 l 1,12,-1
 30 330 l 1,13,-1
 140 330 l 1,14,-1
 140 730 l 1,15,-1
 290 730 l 2,16,17
 441 730 441 730 510.5 680 c 128,-1,18
 580 630 580 630 580 520 c 256,19,20
 580 410 580 410 510.5 360 c 128,-1,21
 441 310 441 310 290 310 c 2,22,-1
 160 310 l 1,0,-1
160 330 m 1,23,-1
 290 330 l 2,24,25
 433 330 433 330 496.5 374.5 c 128,-1,26
 560 419 560 419 560 520 c 256,27,28
 560 621 560 621 496.5 665.5 c 128,-1,29
 433 710 433 710 290 710 c 2,30,-1
 160 710 l 1,31,-1
 160 330 l 1,23,-1
EndSplineSet
EndChar

StartChar: uni20B9
Encoding: 8377 8377 492
Width: 636
Flags: W
LayerCount: 2
Fore
SplineSet
572 710 m 1,0,-1
 358 710 l 1,1,2
 419 691 419 691 449.5 651.5 c 128,-1,3
 480 612 480 612 482 550 c 1,4,-1
 572 550 l 1,5,-1
 572 530 l 1,6,-1
 482 530 l 1,7,8
 478 436 478 436 409 393 c 128,-1,9
 340 350 340 350 192 350 c 2,10,-1
 152 350 l 1,11,-1
 502 0 l 1,12,-1
 474 0 l 1,13,-1
 125 350 l 1,14,-1
 52 350 l 1,15,-1
 52 370 l 1,16,-1
 192 370 l 2,17,18
 332 370 332 370 395 408 c 128,-1,19
 458 446 458 446 462 530 c 1,20,-1
 52 530 l 1,21,-1
 52 550 l 1,22,-1
 462 550 l 1,23,24
 458 634 458 634 395 672 c 128,-1,25
 332 710 332 710 192 710 c 2,26,-1
 52 710 l 1,27,-1
 52 730 l 1,28,-1
 572 730 l 1,29,-1
 572 710 l 1,0,-1
EndSplineSet
EndChar

StartChar: sterling
Encoding: 163 163 493
Width: 656
Flags: W
LayerCount: 2
Fore
SplineSet
585 20 m 1,0,-1
 585 0 l 1,1,-1
 105 0 l 1,2,-1
 105 20 l 1,3,4
 135 22 135 22 162.5 44.5 c 128,-1,5
 190 67 190 67 207.5 107 c 128,-1,6
 225 147 225 147 225 200 c 2,7,-1
 225 380 l 1,8,-1
 105 380 l 1,9,-1
 105 400 l 1,10,-1
 225 400 l 1,11,-1
 225 550 l 2,12,13
 225 642 225 642 277.5 691 c 128,-1,14
 330 740 330 740 430 740 c 0,15,16
 493 740 493 740 548 714 c 1,17,-1
 540 696 l 1,18,19
 490 720 490 720 430 720 c 0,20,21
 339 720 339 720 292 676.5 c 128,-1,22
 245 633 245 633 245 550 c 2,23,-1
 245 400 l 1,24,-1
 525 400 l 1,25,-1
 525 380 l 1,26,-1
 245 380 l 1,27,-1
 245 200 l 2,28,29
 245 141 245 141 223 94.5 c 128,-1,30
 201 48 201 48 163 22 c 1,31,-1
 163 20 l 1,32,-1
 585 20 l 1,0,-1
EndSplineSet
EndChar

StartChar: uni20A9
Encoding: 8361 8361 494
Width: 960
GlyphClass: 2
Flags: W
AnchorPoint: "Anchor-1" 480 730 basechar 0
AnchorPoint: "Anchor-0" 480 0 basechar 0
LayerCount: 2
Fore
SplineSet
930 440 m 1,0,-1
 820 440 l 1,1,-1
 781 290 l 1,2,-1
 930 290 l 1,3,-1
 930 270 l 1,4,-1
 776 270 l 1,5,-1
 706 0 l 1,6,-1
 674 0 l 1,7,-1
 589 270 l 1,8,-1
 371 270 l 1,9,-1
 286 0 l 1,10,-1
 254 0 l 1,11,-1
 184 270 l 1,12,-1
 30 270 l 1,13,-1
 30 290 l 1,14,-1
 179 290 l 1,15,-1
 140 440 l 1,16,-1
 30 440 l 1,17,-1
 30 460 l 1,18,-1
 135 460 l 1,19,-1
 65 730 l 1,20,-1
 86 730 l 1,21,-1
 155 460 l 1,22,-1
 410 460 l 1,23,-1
 464 630 l 1,24,-1
 496 630 l 1,25,-1
 550 460 l 1,26,-1
 805 460 l 1,27,-1
 874 730 l 1,28,-1
 895 730 l 1,29,-1
 825 460 l 1,30,-1
 930 460 l 1,31,-1
 930 440 l 1,0,-1
479 613 m 1,32,-1
 431 460 l 1,33,-1
 529 460 l 1,34,-1
 481 613 l 1,35,-1
 479 613 l 1,32,-1
160 440 m 1,36,-1
 199 290 l 1,37,-1
 357 290 l 1,38,-1
 404 440 l 1,39,-1
 160 440 l 1,36,-1
583 290 m 1,40,-1
 535 440 l 1,41,-1
 425 440 l 1,42,-1
 377 290 l 1,43,-1
 583 290 l 1,40,-1
761 290 m 1,44,-1
 800 440 l 1,45,-1
 556 440 l 1,46,-1
 603 290 l 1,47,-1
 761 290 l 1,44,-1
271 17 m 1,48,-1
 351 270 l 1,49,-1
 204 270 l 1,50,-1
 269 17 l 1,51,-1
 271 17 l 1,48,-1
691 17 m 1,52,-1
 756 270 l 1,53,-1
 609 270 l 1,54,-1
 689 17 l 1,55,-1
 691 17 l 1,52,-1
EndSplineSet
EndChar

StartChar: yen
Encoding: 165 165 495
Width: 622
Flags: W
LayerCount: 2
Fore
SplineSet
611 730 m 1,0,-1
 330 340 l 1,1,-1
 551 340 l 1,2,-1
 551 320 l 1,3,-1
 321 320 l 1,4,-1
 321 170 l 1,5,-1
 551 170 l 1,6,-1
 551 150 l 1,7,-1
 321 150 l 1,8,-1
 321 0 l 1,9,-1
 301 0 l 1,10,-1
 301 150 l 1,11,-1
 71 150 l 1,12,-1
 71 170 l 1,13,-1
 301 170 l 1,14,-1
 301 320 l 1,15,-1
 71 320 l 1,16,-1
 71 340 l 1,17,-1
 292 340 l 1,18,-1
 11 730 l 1,19,-1
 36 730 l 1,20,-1
 310 348 l 1,21,-1
 312 348 l 1,22,-1
 586 730 l 1,23,-1
 611 730 l 1,0,-1
EndSplineSet
EndChar

StartChar: uni2215
Encoding: 8725 8725 497
Width: 376
Flags: W
LayerCount: 2
Fore
SplineSet
335 730 m 1,0,-1
 357 730 l 1,1,-1
 41 0 l 1,2,-1
 19 0 l 1,3,-1
 335 730 l 1,0,-1
EndSplineSet
EndChar

StartChar: plus
Encoding: 43 43 498
Width: 694
Flags: W
LayerCount: 2
Fore
SplineSet
337 280 m 1,0,-1
 57 280 l 1,1,-1
 57 300 l 1,2,-1
 337 300 l 1,3,-1
 337 580 l 1,4,-1
 357 580 l 1,5,-1
 357 300 l 1,6,-1
 637 300 l 1,7,-1
 637 280 l 1,8,-1
 357 280 l 1,9,-1
 357 0 l 1,10,-1
 337 0 l 1,11,-1
 337 280 l 1,0,-1
EndSplineSet
EndChar

StartChar: minus
Encoding: 8722 8722 499
Width: 694
Flags: W
LayerCount: 2
Fore
SplineSet
57 300 m 1,0,-1
 637 300 l 1,1,-1
 637 280 l 1,2,-1
 57 280 l 1,3,-1
 57 300 l 1,0,-1
EndSplineSet
EndChar

StartChar: multiply
Encoding: 215 215 500
Width: 581
Flags: W
LayerCount: 2
Fore
SplineSet
43 57 m 1,0,-1
 277 291 l 1,1,-1
 43 524 l 1,2,-1
 57 538 l 1,3,-1
 291 305 l 1,4,-1
 524 538 l 1,5,-1
 538 524 l 1,6,-1
 305 291 l 1,7,-1
 538 57 l 1,8,-1
 524 43 l 1,9,-1
 291 276 l 1,10,-1
 57 43 l 1,11,-1
 43 57 l 1,0,-1
EndSplineSet
EndChar

StartChar: divide
Encoding: 247 247 501
Width: 694
Flags: W
LayerCount: 2
Fore
SplineSet
322.5 500.5 m 128,-1,1
 312 511 312 511 312 525 c 256,2,3
 312 539 312 539 322.5 549.5 c 128,-1,4
 333 560 333 560 347 560 c 256,5,6
 361 560 361 560 371.5 549.5 c 128,-1,7
 382 539 382 539 382 525 c 256,8,9
 382 511 382 511 371.5 500.5 c 128,-1,10
 361 490 361 490 347 490 c 256,11,0
 333 490 333 490 322.5 500.5 c 128,-1,1
57 300 m 1,12,-1
 637 300 l 1,13,-1
 637 280 l 1,14,-1
 57 280 l 1,15,-1
 57 300 l 1,12,-1
322.5 30.5 m 128,-1,17
 312 41 312 41 312 55 c 256,18,19
 312 69 312 69 322.5 79.5 c 128,-1,20
 333 90 333 90 347 90 c 256,21,22
 361 90 361 90 371.5 79.5 c 128,-1,23
 382 69 382 69 382 55 c 256,24,25
 382 41 382 41 371.5 30.5 c 128,-1,26
 361 20 361 20 347 20 c 256,27,16
 333 20 333 20 322.5 30.5 c 128,-1,17
EndSplineSet
EndChar

StartChar: equal
Encoding: 61 61 502
Width: 790
Flags: W
LayerCount: 2
Fore
SplineSet
105 410 m 1,0,-1
 685 410 l 1,1,-1
 685 390 l 1,2,-1
 105 390 l 1,3,-1
 105 410 l 1,0,-1
105 190 m 1,4,-1
 685 190 l 1,5,-1
 685 170 l 1,6,-1
 105 170 l 1,7,-1
 105 190 l 1,4,-1
EndSplineSet
EndChar

StartChar: notequal
Encoding: 8800 8800 503
Width: 790
Flags: W
LayerCount: 2
Fore
SplineSet
685 390 m 1,0,-1
 438 390 l 1,1,-1
 372 190 l 1,2,-1
 685 190 l 1,3,-1
 685 170 l 1,4,-1
 365 170 l 1,5,-1
 304 -12 l 1,6,-1
 286 -6 l 1,7,-1
 345 170 l 1,8,-1
 105 170 l 1,9,-1
 105 190 l 1,10,-1
 352 190 l 1,11,-1
 418 390 l 1,12,-1
 105 390 l 1,13,-1
 105 410 l 1,14,-1
 425 410 l 1,15,-1
 486 592 l 1,16,-1
 504 586 l 1,17,-1
 445 410 l 1,18,-1
 685 410 l 1,19,-1
 685 390 l 1,0,-1
EndSplineSet
EndChar

StartChar: greater
Encoding: 62 62 504
Width: 732
Flags: W
LayerCount: 2
Fore
SplineSet
95 52 m 1,0,-1
 653 289 l 1,1,-1
 653 291 l 1,2,-1
 95 528 l 1,3,-1
 95 550 l 1,4,-1
 675 303 l 1,5,-1
 675 277 l 1,6,-1
 95 30 l 1,7,-1
 95 52 l 1,0,-1
EndSplineSet
EndChar

StartChar: less
Encoding: 60 60 505
Width: 732
Flags: W
LayerCount: 2
Fore
SplineSet
57 277 m 1,0,-1
 57 303 l 1,1,-1
 637 550 l 1,2,-1
 637 528 l 1,3,-1
 79 291 l 1,4,-1
 79 289 l 1,5,-1
 637 52 l 1,6,-1
 637 30 l 1,7,-1
 57 277 l 1,0,-1
EndSplineSet
EndChar

StartChar: greaterequal
Encoding: 8805 8805 506
Width: 716
Flags: W
LayerCount: 2
Fore
SplineSet
85 180 m 1,0,-1
 85 202 l 1,1,-1
 643 439 l 1,2,-1
 643 441 l 1,3,-1
 85 678 l 1,4,-1
 85 700 l 1,5,-1
 665 453 l 1,6,-1
 665 427 l 1,7,-1
 85 180 l 1,0,-1
85 0 m 1,8,-1
 85 20 l 1,9,-1
 665 20 l 1,10,-1
 665 0 l 1,11,-1
 85 0 l 1,8,-1
EndSplineSet
EndChar

StartChar: lessequal
Encoding: 8804 8804 507
Width: 716
Flags: W
LayerCount: 2
Fore
SplineSet
51 453 m 1,0,-1
 631 700 l 1,1,-1
 631 678 l 1,2,-1
 73 441 l 1,3,-1
 73 439 l 1,4,-1
 631 202 l 1,5,-1
 631 180 l 1,6,-1
 51 427 l 1,7,-1
 51 453 l 1,0,-1
51 20 m 1,8,-1
 631 20 l 1,9,-1
 631 0 l 1,10,-1
 51 0 l 1,11,-1
 51 20 l 1,8,-1
EndSplineSet
EndChar

StartChar: plusminus
Encoding: 177 177 508
Width: 790
Flags: W
LayerCount: 2
Fore
SplineSet
385 430 m 1,0,-1
 105 430 l 1,1,-1
 105 450 l 1,2,-1
 385 450 l 1,3,-1
 385 730 l 1,4,-1
 405 730 l 1,5,-1
 405 450 l 1,6,-1
 685 450 l 1,7,-1
 685 430 l 1,8,-1
 405 430 l 1,9,-1
 405 150 l 1,10,-1
 385 150 l 1,11,-1
 385 430 l 1,0,-1
105 20 m 1,12,-1
 685 20 l 1,13,-1
 685 0 l 1,14,-1
 105 0 l 1,15,-1
 105 20 l 1,12,-1
EndSplineSet
EndChar

StartChar: asciitilde
Encoding: 126 126 510
Width: 674
Flags: W
LayerCount: 2
Fore
SplineSet
162 365 m 0,1,2
 193 365 193 365 235.5 351.5 c 128,-1,3
 278 338 278 338 341 309 c 0,4,5
 402 281 402 281 442.5 268 c 128,-1,6
 483 255 483 255 512 255 c 0,7,8
 597 255 597 255 597 355 c 1,9,-1
 617 355 l 1,10,11
 617 288 617 288 586.5 261.5 c 128,-1,12
 556 235 556 235 512 235 c 0,13,14
 481 235 481 235 438.5 248.5 c 128,-1,15
 396 262 396 262 333 291 c 0,16,17
 272 319 272 319 231.5 332 c 128,-1,18
 191 345 191 345 162 345 c 0,19,20
 118 345 118 345 97.5 318.5 c 128,-1,21
 77 292 77 292 77 235 c 1,22,-1
 57 235 l 1,23,0
 57 365 57 365 162 365 c 0,1,2
EndSplineSet
EndChar

StartChar: logicalnot
Encoding: 172 172 511
Width: 722
Flags: W
LayerCount: 2
Fore
SplineSet
597 390 m 1,0,-1
 57 390 l 1,1,-1
 57 410 l 1,2,-1
 617 410 l 1,3,-1
 617 170 l 1,4,-1
 597 170 l 1,5,-1
 597 390 l 1,0,-1
EndSplineSet
EndChar

StartChar: asciicircum
Encoding: 94 94 512
Width: 558
Flags: W
LayerCount: 2
Fore
SplineSet
264 730 m 1,0,-1
 294 730 l 1,1,-1
 539 280 l 1,2,-1
 516 280 l 1,3,-1
 280 716 l 1,4,-1
 278 716 l 1,5,-1
 42 280 l 1,6,-1
 19 280 l 1,7,-1
 264 730 l 1,0,-1
EndSplineSet
EndChar

StartChar: uni00B5
Encoding: 181 181 513
Width: 552
GlyphClass: 2
Flags: W
AnchorPoint: "Anchor-3" 467 480 basechar 0
AnchorPoint: "Anchor-2" 467 0 basechar 0
AnchorPoint: "Anchor-1" 276 520 basechar 0
AnchorPoint: "Anchor-0" 276 0 basechar 0
LayerCount: 2
Fore
SplineSet
467 520 m 1,0,-1
 467 0 l 1,1,-1
 447 0 l 1,2,-1
 447 128 l 1,3,-1
 445 128 l 1,4,5
 418 65 418 65 365.5 27.5 c 128,-1,6
 313 -10 313 -10 248 -10 c 0,7,8
 195 -10 195 -10 156 15.5 c 128,-1,9
 117 41 117 41 97 89 c 1,10,-1
 97 -220 l 1,11,-1
 77 -220 l 1,12,-1
 77 520 l 1,13,-1
 97 520 l 1,14,-1
 97 200 l 2,15,16
 97 110 97 110 137 60 c 128,-1,17
 177 10 177 10 248 10 c 0,18,19
 303 10 303 10 348.5 39.5 c 128,-1,20
 394 69 394 69 420.5 119 c 128,-1,21
 447 169 447 169 447 230 c 2,22,-1
 447 520 l 1,23,-1
 467 520 l 1,0,-1
EndSplineSet
EndChar

StartChar: percent
Encoding: 37 37 514
Width: 816
Flags: W
LayerCount: 2
Fore
SplineSet
86.5 343.5 m 128,-1,1
 48 401 48 401 48 511 c 256,2,3
 48 621 48 621 86.5 678.5 c 128,-1,4
 125 736 125 736 198 736 c 0,5,6
 272 736 272 736 310 678.5 c 128,-1,7
 348 621 348 621 348 511 c 256,8,9
 348 401 348 401 310 343.5 c 128,-1,10
 272 286 272 286 198 286 c 0,11,0
 125 286 125 286 86.5 343.5 c 128,-1,1
607 730 m 1,12,-1
 630 730 l 1,13,-1
 209 0 l 1,14,-1
 186 0 l 1,15,-1
 607 730 l 1,12,-1
328 511 m 256,17,18
 328 716 328 716 198 716 c 256,19,20
 68 716 68 716 68 511 c 256,21,22
 68 306 68 306 198 306 c 256,23,16
 328 306 328 306 328 511 c 256,17,18
506.5 51.5 m 128,-1,25
 468 109 468 109 468 219 c 256,26,27
 468 329 468 329 506.5 386.5 c 128,-1,28
 545 444 545 444 618 444 c 0,29,30
 692 444 692 444 730 386.5 c 128,-1,31
 768 329 768 329 768 219 c 256,32,33
 768 109 768 109 730 51.5 c 128,-1,34
 692 -6 692 -6 618 -6 c 0,35,24
 545 -6 545 -6 506.5 51.5 c 128,-1,25
748 219 m 256,37,38
 748 424 748 424 618 424 c 256,39,40
 488 424 488 424 488 219 c 256,41,42
 488 14 488 14 618 14 c 256,43,36
 748 14 748 14 748 219 c 256,37,38
EndSplineSet
EndChar

StartChar: at
Encoding: 64 64 516
Width: 824
Flags: W
LayerCount: 2
Fore
SplineSet
550 50 m 1,0,-1
 550 133 l 1,1,-1
 548 133 l 1,2,3
 508 40 508 40 399 40 c 0,4,5
 318 40 318 40 272.5 98 c 128,-1,6
 227 156 227 156 227 260 c 0,7,8
 227 362 227 362 273 421 c 128,-1,9
 319 480 319 480 399 480 c 0,10,11
 508 480 508 480 548 387 c 1,12,-1
 550 387 l 1,13,-1
 550 470 l 1,14,-1
 570 470 l 1,15,-1
 570 70 l 1,16,-1
 706 70 l 1,17,18
 757 152 757 152 757 260 c 0,19,20
 757 362 757 362 714 440.5 c 128,-1,21
 671 519 671 519 592.5 562 c 128,-1,22
 514 605 514 605 412 605 c 0,23,24
 312 605 312 605 233.5 561 c 128,-1,25
 155 517 155 517 111 438.5 c 128,-1,26
 67 360 67 360 67 260 c 256,27,28
 67 160 67 160 111 81.5 c 128,-1,29
 155 3 155 3 233.5 -41 c 128,-1,30
 312 -85 312 -85 412 -85 c 0,31,32
 526 -85 526 -85 613 -27 c 1,33,-1
 624 -43 l 1,34,35
 533 -105 533 -105 412 -105 c 0,36,37
 306 -105 306 -105 223 -58.5 c 128,-1,38
 140 -12 140 -12 93.5 71 c 128,-1,39
 47 154 47 154 47 260 c 256,40,41
 47 366 47 366 93.5 449 c 128,-1,42
 140 532 140 532 223 578.5 c 128,-1,43
 306 625 306 625 412 625 c 0,44,45
 520 625 520 625 603 579.5 c 128,-1,46
 686 534 686 534 731.5 451 c 128,-1,47
 777 368 777 368 777 260 c 0,48,49
 777 140 777 140 718 50 c 1,50,-1
 550 50 l 1,0,-1
510.5 107 m 128,-1,52
 550 154 550 154 550 240 c 2,53,-1
 550 280 l 2,54,55
 550 366 550 366 510.5 413 c 128,-1,56
 471 460 471 460 399 460 c 0,57,58
 329 460 329 460 288 406 c 128,-1,59
 247 352 247 352 247 260 c 0,60,61
 247 166 247 166 287.5 113 c 128,-1,62
 328 60 328 60 399 60 c 0,63,51
 471 60 471 60 510.5 107 c 128,-1,52
EndSplineSet
EndChar

StartChar: ampersand
Encoding: 38 38 517
Width: 650
Flags: W
LayerCount: 2
Fore
SplineSet
633 -3 m 1,0,-1
 530 111 l 1,1,2
 483 52 483 52 416 21 c 128,-1,3
 349 -10 349 -10 268 -10 c 0,4,5
 166 -10 166 -10 107 38.5 c 128,-1,6
 48 87 48 87 48 170 c 0,7,8
 48 212 48 212 66 247.5 c 128,-1,9
 84 283 84 283 125.5 320.5 c 128,-1,10
 167 358 167 358 242 408 c 2,11,-1
 255 417 l 1,12,-1
 240 433 l 2,13,14
 184 495 184 495 161 537.5 c 128,-1,15
 138 580 138 580 138 620 c 0,16,17
 138 677 138 677 178.5 708.5 c 128,-1,18
 219 740 219 740 293 740 c 256,19,20
 367 740 367 740 407.5 709 c 128,-1,21
 448 678 448 678 448 620 c 0,22,23
 448 569 448 569 411 522.5 c 128,-1,24
 374 476 374 476 285 414 c 1,25,-1
 522 150 l 1,26,-1
 523 430 l 1,27,-1
 543 430 l 1,28,-1
 542 128 l 1,29,-1
 648 10 l 1,30,-1
 633 -3 l 1,0,-1
272 428 m 1,31,32
 358 488 358 488 393 531.5 c 128,-1,33
 428 575 428 575 428 620 c 0,34,35
 428 669 428 669 393.5 694.5 c 128,-1,36
 359 720 359 720 293 720 c 0,37,38
 228 720 228 720 193 694 c 128,-1,39
 158 668 158 668 158 620 c 0,40,41
 158 584 158 584 180 544.5 c 128,-1,42
 202 505 202 505 255 447 c 2,43,-1
 272 428 l 1,31,32
408.5 39.5 m 128,-1,45
 472 69 472 69 517 126 c 1,46,-1
 268 402 l 1,47,-1
 253 392 l 2,48,49
 180 344 180 344 140.5 308.5 c 128,-1,50
 101 273 101 273 84.5 240.5 c 128,-1,51
 68 208 68 208 68 170 c 0,52,53
 68 96 68 96 121 53 c 128,-1,54
 174 10 174 10 268 10 c 0,55,44
 345 10 345 10 408.5 39.5 c 128,-1,45
EndSplineSet
EndChar

StartChar: paragraph
Encoding: 182 182 518
Width: 556
Flags: W
LayerCount: 2
Fore
SplineSet
126 301 m 128,-1,1
 73 332 73 332 42 385 c 128,-1,2
 11 438 11 438 11 500 c 256,3,4
 11 562 11 562 42 615 c 128,-1,5
 73 668 73 668 126 699 c 128,-1,6
 179 730 179 730 241 730 c 2,7,-1
 461 730 l 1,8,-1
 461 -110 l 1,9,-1
 441 -110 l 1,10,-1
 441 710 l 1,11,-1
 261 710 l 1,12,-1
 261 -110 l 1,13,-1
 241 -110 l 1,14,-1
 241 270 l 1,15,0
 179 270 179 270 126 301 c 128,-1,1
EndSplineSet
EndChar

StartChar: section
Encoding: 167 167 519
Width: 522
Flags: W
LayerCount: 2
Fore
SplineSet
421 99 m 128,-1,1
 436 70 436 70 436 30 c 0,2,3
 436 -38 436 -38 388 -79 c 128,-1,4
 340 -120 340 -120 261 -120 c 0,5,6
 215 -120 215 -120 174.5 -109 c 128,-1,7
 134 -98 134 -98 91 -74 c 1,8,-1
 101 -56 l 1,9,10
 142 -79 142 -79 180.5 -89.5 c 128,-1,11
 219 -100 219 -100 261 -100 c 0,12,13
 332 -100 332 -100 374 -64.5 c 128,-1,14
 416 -29 416 -29 416 30 c 0,15,16
 416 82 416 82 383 116 c 128,-1,17
 350 150 350 150 259 170 c 0,18,19
 163 192 163 192 119.5 232 c 128,-1,20
 76 272 76 272 76 340 c 0,21,22
 76 381 76 381 95 415 c 128,-1,23
 114 449 114 449 149 471 c 1,24,25
 116 492 116 492 101 521 c 128,-1,26
 86 550 86 550 86 590 c 0,27,28
 86 658 86 658 134 699 c 128,-1,29
 182 740 182 740 261 740 c 0,30,31
 307 740 307 740 347.5 729 c 128,-1,32
 388 718 388 718 431 694 c 1,33,-1
 421 676 l 1,34,35
 381 699 381 699 342.5 709.5 c 128,-1,36
 304 720 304 720 261 720 c 0,37,38
 190 720 190 720 148 684.5 c 128,-1,39
 106 649 106 649 106 590 c 0,40,41
 106 538 106 538 139 504 c 128,-1,42
 172 470 172 470 263 450 c 0,43,44
 359 428 359 428 402.5 388 c 128,-1,45
 446 348 446 348 446 280 c 0,46,47
 446 239 446 239 427 205 c 128,-1,48
 408 171 408 171 373 149 c 1,49,0
 406 128 406 128 421 99 c 128,-1,1
135 244.5 m 128,-1,51
 174 209 174 209 263 190 c 0,52,53
 317 178 317 178 353 160 c 1,54,55
 388 179 388 179 407 210 c 128,-1,56
 426 241 426 241 426 280 c 0,57,58
 426 340 426 340 387 375.5 c 128,-1,59
 348 411 348 411 259 430 c 0,60,61
 205 442 205 442 169 460 c 1,62,63
 134 441 134 441 115 410 c 128,-1,64
 96 379 96 379 96 340 c 0,65,50
 96 280 96 280 135 244.5 c 128,-1,51
EndSplineSet
EndChar

StartChar: copyright
Encoding: 169 169 520
Width: 824
Flags: W
LayerCount: 2
Fore
SplineSet
229 49 m 128,-1,1
 145 98 145 98 96 182 c 128,-1,2
 47 266 47 266 47 365 c 256,3,4
 47 464 47 464 96 548 c 128,-1,5
 145 632 145 632 229 681 c 128,-1,6
 313 730 313 730 412 730 c 256,7,8
 511 730 511 730 595 681 c 128,-1,9
 679 632 679 632 728 548 c 128,-1,10
 777 464 777 464 777 365 c 256,11,12
 777 266 777 266 728 182 c 128,-1,13
 679 98 679 98 595 49 c 128,-1,14
 511 0 511 0 412 0 c 256,15,0
 313 0 313 0 229 49 c 128,-1,1
585 66.5 m 128,-1,17
 664 113 664 113 710.5 192 c 128,-1,18
 757 271 757 271 757 365 c 256,19,20
 757 459 757 459 710.5 538 c 128,-1,21
 664 617 664 617 585 663.5 c 128,-1,22
 506 710 506 710 412 710 c 256,23,24
 318 710 318 710 239 663.5 c 128,-1,25
 160 617 160 617 113.5 538 c 128,-1,26
 67 459 67 459 67 365 c 256,27,28
 67 271 67 271 113.5 192 c 128,-1,29
 160 113 160 113 239 66.5 c 128,-1,30
 318 20 318 20 412 20 c 256,31,16
 506 20 506 20 585 66.5 c 128,-1,17
309.5 168 m 128,-1,33
 261 196 261 196 234.5 247 c 128,-1,34
 208 298 208 298 208 365 c 256,35,36
 208 432 208 432 234.5 483 c 128,-1,37
 261 534 261 534 309.5 562 c 128,-1,38
 358 590 358 590 422 590 c 0,39,40
 499 590 499 590 556 551 c 1,41,-1
 545 534 l 1,42,43
 493 570 493 570 422 570 c 0,44,45
 333 570 333 570 280.5 514.5 c 128,-1,46
 228 459 228 459 228 365 c 256,47,48
 228 271 228 271 280.5 215.5 c 128,-1,49
 333 160 333 160 422 160 c 0,50,51
 493 160 493 160 545 196 c 1,52,-1
 556 179 l 1,53,54
 499 140 499 140 422 140 c 0,55,32
 358 140 358 140 309.5 168 c 128,-1,33
EndSplineSet
EndChar

StartChar: registered
Encoding: 174 174 521
Width: 824
Flags: W
LayerCount: 2
Fore
SplineSet
595 681 m 128,-1,1
 679 632 679 632 728 548 c 128,-1,2
 777 464 777 464 777 365 c 256,3,4
 777 266 777 266 728 182 c 128,-1,5
 679 98 679 98 595 49 c 128,-1,6
 511 0 511 0 412 0 c 256,7,8
 313 0 313 0 229 49 c 128,-1,9
 145 98 145 98 96 182 c 128,-1,10
 47 266 47 266 47 365 c 256,11,12
 47 464 47 464 96 548 c 128,-1,13
 145 632 145 632 229 681 c 128,-1,14
 313 730 313 730 412 730 c 256,15,0
 511 730 511 730 595 681 c 128,-1,1
585 66.5 m 128,-1,17
 664 113 664 113 710.5 192 c 128,-1,18
 757 271 757 271 757 365 c 256,19,20
 757 459 757 459 710.5 538 c 128,-1,21
 664 617 664 617 585 663.5 c 128,-1,22
 506 710 506 710 412 710 c 256,23,24
 318 710 318 710 239 663.5 c 128,-1,25
 160 617 160 617 113.5 538 c 128,-1,26
 67 459 67 459 67 365 c 256,27,28
 67 271 67 271 113.5 192 c 128,-1,29
 160 113 160 113 239 66.5 c 128,-1,30
 318 20 318 20 412 20 c 256,31,16
 506 20 506 20 585 66.5 c 128,-1,17
342 356 m 1,32,-1
 571 146 l 1,33,-1
 540 146 l 1,34,-1
 312 356 l 1,35,-1
 312 146 l 1,36,-1
 292 146 l 1,37,-1
 292 584 l 1,38,-1
 382 584 l 2,39,40
 473 584 473 584 514.5 557 c 128,-1,41
 556 530 556 530 556 470 c 256,42,43
 556 410 556 410 514.5 383 c 128,-1,44
 473 356 473 356 382 356 c 2,45,-1
 342 356 l 1,32,-1
312 564 m 1,46,-1
 312 376 l 1,47,-1
 382 376 l 2,48,49
 465 376 465 376 500.5 398 c 128,-1,50
 536 420 536 420 536 470 c 256,51,52
 536 520 536 520 500.5 542 c 128,-1,53
 465 564 465 564 382 564 c 2,54,-1
 312 564 l 1,46,-1
EndSplineSet
EndChar

StartChar: trademark
Encoding: 8482 8482 522
Width: 747
Flags: W
LayerCount: 2
Fore
SplineSet
158 710 m 1,0,-1
 28 710 l 1,1,-1
 28 730 l 1,2,-1
 308 730 l 1,3,-1
 308 710 l 1,4,-1
 178 710 l 1,5,-1
 178 365 l 1,6,-1
 158 365 l 1,7,-1
 158 710 l 1,0,-1
370 730 m 1,8,-1
 399 730 l 1,9,-1
 535 463 l 1,10,-1
 536 463 l 1,11,-1
 672 730 l 1,12,-1
 701 730 l 1,13,-1
 701 365 l 1,14,-1
 681 365 l 1,15,-1
 681 702 l 1,16,-1
 680 702 l 1,17,-1
 548 443 l 1,18,-1
 523 443 l 1,19,-1
 391 702 l 1,20,-1
 390 702 l 1,21,-1
 390 365 l 1,22,-1
 370 365 l 1,23,-1
 370 730 l 1,8,-1
EndSplineSet
EndChar

StartChar: degree
Encoding: 176 176 523
Width: 401
Flags: W
LayerCount: 2
Fore
SplineSet
122 441.5 m 128,-1,1
 86 463 86 463 64.5 499 c 128,-1,2
 43 535 43 535 43 578 c 0,3,4
 43 620 43 620 64.5 656 c 128,-1,5
 86 692 86 692 122 713.5 c 128,-1,6
 158 735 158 735 201 735 c 0,7,8
 243 735 243 735 279 713.5 c 128,-1,9
 315 692 315 692 336.5 656 c 128,-1,10
 358 620 358 620 358 578 c 0,11,12
 358 535 358 535 336.5 499 c 128,-1,13
 315 463 315 463 279 441.5 c 128,-1,14
 243 420 243 420 201 420 c 0,15,0
 158 420 158 420 122 441.5 c 128,-1,1
269.5 458.5 m 128,-1,17
 301 477 301 477 319.5 509 c 128,-1,18
 338 541 338 541 338 578 c 256,19,20
 338 615 338 615 319.5 646.5 c 128,-1,21
 301 678 301 678 269.5 696.5 c 128,-1,22
 238 715 238 715 201 715 c 256,23,24
 164 715 164 715 132 696.5 c 128,-1,25
 100 678 100 678 81.5 646.5 c 128,-1,26
 63 615 63 615 63 578 c 256,27,28
 63 541 63 541 81.5 509 c 128,-1,29
 100 477 100 477 132 458.5 c 128,-1,30
 164 440 164 440 201 440 c 256,31,16
 238 440 238 440 269.5 458.5 c 128,-1,17
EndSplineSet
EndChar

StartChar: bar
Encoding: 124 124 524
Width: 230
Flags: W
LayerCount: 2
Fore
SplineSet
105 810 m 1,0,-1
 125 810 l 1,1,-1
 125 -220 l 1,2,-1
 105 -220 l 1,3,-1
 105 810 l 1,0,-1
EndSplineSet
EndChar

StartChar: brokenbar
Encoding: 166 166 525
Width: 230
Flags: W
LayerCount: 2
Fore
SplineSet
105 810 m 1,0,-1
 125 810 l 1,1,-1
 125 370 l 1,2,-1
 105 370 l 1,3,-1
 105 810 l 1,0,-1
105 220 m 1,4,-1
 125 220 l 1,5,-1
 125 -220 l 1,6,-1
 105 -220 l 1,7,-1
 105 220 l 1,4,-1
EndSplineSet
EndChar

StartChar: dagger
Encoding: 8224 8224 526
Width: 476
Flags: W
LayerCount: 2
Fore
SplineSet
228 500 m 1,0,-1
 28 500 l 1,1,-1
 28 520 l 1,2,-1
 228 520 l 1,3,-1
 228 730 l 1,4,-1
 248 730 l 1,5,-1
 248 520 l 1,6,-1
 448 520 l 1,7,-1
 448 500 l 1,8,-1
 248 500 l 1,9,-1
 248 -110 l 1,10,-1
 228 -110 l 1,11,-1
 228 500 l 1,0,-1
EndSplineSet
EndChar

StartChar: daggerdbl
Encoding: 8225 8225 527
Width: 498
Flags: W
LayerCount: 2
Fore
SplineSet
239 100 m 1,0,-1
 39 100 l 1,1,-1
 39 120 l 1,2,-1
 239 120 l 1,3,-1
 239 500 l 1,4,-1
 39 500 l 1,5,-1
 39 520 l 1,6,-1
 239 520 l 1,7,-1
 239 730 l 1,8,-1
 259 730 l 1,9,-1
 259 520 l 1,10,-1
 459 520 l 1,11,-1
 459 500 l 1,12,-1
 259 500 l 1,13,-1
 259 120 l 1,14,-1
 459 120 l 1,15,-1
 459 100 l 1,16,-1
 259 100 l 1,17,-1
 259 -110 l 1,18,-1
 239 -110 l 1,19,-1
 239 100 l 1,0,-1
EndSplineSet
EndChar

StartChar: uni2116
Encoding: 8470 8470 528
Width: 1159
GlyphClass: 2
Flags: W
AnchorPoint: "Anchor-1" 355 730 basechar 0
AnchorPoint: "Anchor-0" 355 0 basechar 0
LayerCount: 2
Fore
SplineSet
773 366 m 128,-1,1
 724 424 724 424 724 524 c 256,2,3
 724 624 724 624 773 682 c 128,-1,4
 822 740 822 740 908 740 c 256,5,6
 994 740 994 740 1043 682.5 c 128,-1,7
 1092 625 1092 625 1092 524 c 256,8,9
 1092 423 1092 423 1043 365.5 c 128,-1,10
 994 308 994 308 908 308 c 256,11,0
 822 308 822 308 773 366 c 128,-1,1
127 730 m 1,12,-1
 593 21 l 1,13,-1
 595 21 l 1,14,-1
 595 730 l 1,15,-1
 615 730 l 1,16,-1
 615 0 l 1,17,-1
 583 0 l 1,18,-1
 117 709 l 1,19,-1
 115 709 l 1,20,-1
 115 0 l 1,21,-1
 95 0 l 1,22,-1
 95 730 l 1,23,-1
 127 730 l 1,12,-1
1028.5 379.5 m 128,-1,25
 1072 431 1072 431 1072 524 c 256,26,27
 1072 617 1072 617 1028.5 668.5 c 128,-1,28
 985 720 985 720 908 720 c 256,29,30
 831 720 831 720 787.5 668.5 c 128,-1,31
 744 617 744 617 744 524 c 256,32,33
 744 431 744 431 787.5 379.5 c 128,-1,34
 831 328 831 328 908 328 c 256,35,24
 985 328 985 328 1028.5 379.5 c 128,-1,25
734 230 m 1,36,-1
 1082 230 l 1,37,-1
 1082 210 l 1,38,-1
 734 210 l 1,39,-1
 734 230 l 1,36,-1
EndSplineSet
Ligature2: "'ordn' Ordinals in Latin lookup 9 subtable" N o period
EndChar

StartChar: uni0308
Encoding: 776 776 531
Width: 0
GlyphClass: 4
Flags: W
AnchorPoint: "Anchor-10" -178 695 basemark 0
AnchorPoint: "Anchor-10" -178 520 mark 0
AnchorPoint: "Anchor-6" -178 520 mark 0
AnchorPoint: "Anchor-1" -178 520 mark 0
LayerCount: 2
Fore
SplineSet
-328 695 m 1,0,-1
 -268 695 l 1,1,-1
 -268 635 l 1,2,-1
 -328 635 l 1,3,-1
 -328 695 l 1,0,-1
-88 695 m 1,4,-1
 -28 695 l 1,5,-1
 -28 635 l 1,6,-1
 -88 635 l 1,7,-1
 -88 695 l 1,4,-1
EndSplineSet
EndChar

StartChar: uni0307
Encoding: 775 775 532
Width: 0
GlyphClass: 4
Flags: W
AnchorPoint: "Anchor-10" -58 695 basemark 0
AnchorPoint: "Anchor-10" -58 520 mark 0
AnchorPoint: "Anchor-6" -58 520 mark 0
AnchorPoint: "Anchor-1" -58 520 mark 0
LayerCount: 2
Fore
SplineSet
-88 695 m 1,0,-1
 -28 695 l 1,1,-1
 -28 635 l 1,2,-1
 -88 635 l 1,3,-1
 -88 695 l 1,0,-1
EndSplineSet
EndChar

StartChar: gravecomb
Encoding: 768 768 533
Width: 0
GlyphClass: 4
Flags: W
AnchorPoint: "Anchor-10" -120 520 mark 0
AnchorPoint: "Anchor-6" -120 520 mark 0
AnchorPoint: "Anchor-1" -120 520 mark 0
LayerCount: 2
Fore
SplineSet
-192 770 m 1,0,-1
 -169 770 l 1,1,-1
 -48 560 l 1,2,-1
 -71 560 l 1,3,-1
 -192 770 l 1,0,-1
EndSplineSet
EndChar

StartChar: acutecomb
Encoding: 769 769 534
Width: 0
GlyphClass: 4
Flags: W
AnchorPoint: "Anchor-10" -101 520 mark 0
AnchorPoint: "Anchor-6" -101 520 mark 0
AnchorPoint: "Anchor-1" -101 520 mark 0
LayerCount: 2
Fore
SplineSet
-150 560 m 1,0,-1
 -173 560 l 1,1,-1
 -52 770 l 1,2,-1
 -29 770 l 1,3,-1
 -150 560 l 1,0,-1
EndSplineSet
EndChar

StartChar: uni0302
Encoding: 770 770 536
Width: 0
GlyphClass: 4
Flags: W
AnchorPoint: "Anchor-10" -201 520 mark 0
AnchorPoint: "Anchor-6" -201 520 mark 0
AnchorPoint: "Anchor-1" -201 520 mark 0
LayerCount: 2
Fore
SplineSet
-216 770 m 1,0,-1
 -186 770 l 1,1,-1
 -29 560 l 1,2,-1
 -54 560 l 1,3,-1
 -200 755 l 1,4,-1
 -202 755 l 1,5,-1
 -348 560 l 1,6,-1
 -373 560 l 1,7,-1
 -216 770 l 1,0,-1
EndSplineSet
EndChar

StartChar: uni030C
Encoding: 780 780 537
Width: 0
GlyphClass: 4
Flags: W
AnchorPoint: "Anchor-10" -201 770 basemark 0
AnchorPoint: "Anchor-10" -201 520 mark 0
AnchorPoint: "Anchor-6" -201 520 mark 0
AnchorPoint: "Anchor-1" -201 520 mark 0
LayerCount: 2
Fore
SplineSet
-373 770 m 1,0,-1
 -348 770 l 1,1,-1
 -202 575 l 1,2,-1
 -200 575 l 1,3,-1
 -54 770 l 1,4,-1
 -29 770 l 1,5,-1
 -186 560 l 1,6,-1
 -216 560 l 1,7,-1
 -373 770 l 1,0,-1
EndSplineSet
EndChar

StartChar: uni0306
Encoding: 774 774 538
Width: 0
GlyphClass: 4
Flags: W
AnchorPoint: "Anchor-10" -176 520 mark 0
AnchorPoint: "Anchor-6" -176 520 mark 0
AnchorPoint: "Anchor-1" -176 520 mark 0
LayerCount: 2
Fore
SplineSet
-282.5 628 m 128,-1,1
 -326 661 -326 661 -335 715 c 1,2,-1
 -315 715 l 1,3,4
 -306 670 -306 670 -268 642.5 c 128,-1,5
 -230 615 -230 615 -176 615 c 256,6,7
 -122 615 -122 615 -84 642.5 c 128,-1,8
 -46 670 -46 670 -37 715 c 1,9,-1
 -17 715 l 1,10,11
 -26 661 -26 661 -69.5 628 c 128,-1,12
 -113 595 -113 595 -176 595 c 256,13,0
 -239 595 -239 595 -282.5 628 c 128,-1,1
EndSplineSet
EndChar

StartChar: uni030A
Encoding: 778 778 539
Width: 0
GlyphClass: 4
Flags: W
AnchorPoint: "Anchor-10" -147 710 basemark 0
AnchorPoint: "Anchor-10" -147 520 mark 0
AnchorPoint: "Anchor-6" -147 520 mark 0
AnchorPoint: "Anchor-1" -147 520 mark 0
LayerCount: 2
Fore
SplineSet
-235.5 561.5 m 128,-1,1
 -272 598 -272 598 -272 650 c 256,2,3
 -272 702 -272 702 -235.5 738.5 c 128,-1,4
 -199 775 -199 775 -147 775 c 256,5,6
 -95 775 -95 775 -58.5 738.5 c 128,-1,7
 -22 702 -22 702 -22 650 c 256,8,9
 -22 598 -22 598 -58.5 561.5 c 128,-1,10
 -95 525 -95 525 -147 525 c 256,11,0
 -199 525 -199 525 -235.5 561.5 c 128,-1,1
-73 576 m 128,-1,13
 -42 607 -42 607 -42 650 c 0,14,15
 -42 694 -42 694 -73 724.5 c 128,-1,16
 -104 755 -104 755 -147 755 c 0,17,18
 -191 755 -191 755 -221.5 724.5 c 128,-1,19
 -252 694 -252 694 -252 650 c 0,20,21
 -252 607 -252 607 -221.5 576 c 128,-1,22
 -191 545 -191 545 -147 545 c 0,23,12
 -104 545 -104 545 -73 576 c 128,-1,13
EndSplineSet
EndChar

StartChar: tildecomb
Encoding: 771 771 540
Width: 0
GlyphClass: 4
Flags: W
AnchorPoint: "Anchor-10" -187 725 basemark 0
AnchorPoint: "Anchor-10" -187 520 mark 0
AnchorPoint: "Anchor-6" -187 520 mark 0
AnchorPoint: "Anchor-1" -187 520 mark 0
LayerCount: 2
Fore
SplineSet
-193 657 m 0,1,2
 -257 705 -257 705 -288 705 c 0,3,4
 -326 705 -326 705 -326 615 c 1,5,-1
 -346 615 l 1,6,7
 -346 670 -346 670 -332 697.5 c 128,-1,8
 -318 725 -318 725 -288 725 c 0,9,10
 -250 725 -250 725 -181 673 c 0,11,12
 -116 625 -116 625 -86 625 c 0,13,14
 -48 625 -48 625 -48 715 c 1,15,-1
 -28 715 l 1,16,17
 -28 605 -28 605 -86 605 c 0,18,0
 -122 605 -122 605 -193 657 c 0,1,2
EndSplineSet
EndChar

StartChar: uni0304
Encoding: 772 772 541
Width: 0
GlyphClass: 4
Flags: W
AnchorPoint: "Anchor-10" -195 675 basemark 0
AnchorPoint: "Anchor-10" -195 520 mark 0
AnchorPoint: "Anchor-6" -195 520 mark 0
AnchorPoint: "Anchor-1" -195 520 mark 0
LayerCount: 2
Fore
SplineSet
-362 675 m 1,0,-1
 -28 675 l 1,1,-1
 -28 655 l 1,2,-1
 -362 655 l 1,3,-1
 -362 675 l 1,0,-1
EndSplineSet
EndChar

StartChar: uni0305
Encoding: 773 773 542
Width: 0
GlyphClass: 4
Flags: W
LayerCount: 2
Fore
SplineSet
-560 820 m 1,0,-1
 0 820 l 1,1,-1
 0 800 l 1,2,-1
 -560 800 l 1,3,-1
 -560 820 l 1,0,-1
EndSplineSet
EndChar

StartChar: hookabovecomb
Encoding: 777 777 543
Width: 0
GlyphClass: 4
Flags: W
AnchorPoint: "Anchor-10" -152 765 basemark 0
AnchorPoint: "Anchor-10" -152 520 mark 0
AnchorPoint: "Anchor-6" -152 520 mark 0
AnchorPoint: "Anchor-1" -152 520 mark 0
LayerCount: 2
Fore
SplineSet
-53.5 646.5 m 128,-1,1
 -48 673 -48 673 -48 693 c 0,2,3
 -48 723 -48 723 -69.5 734 c 128,-1,4
 -91 745 -91 745 -152 745 c 0,5,6
 -212 745 -212 745 -271 730 c 1,7,-1
 -276 749 l 1,8,9
 -213 765 -213 765 -152 765 c 0,10,11
 -83 765 -83 765 -55.5 749 c 128,-1,12
 -28 733 -28 733 -28 693 c 0,13,14
 -28 674 -28 674 -32.5 649 c 128,-1,15
 -37 624 -37 624 -44 605 c 1,16,-1
 -66 605 l 1,17,0
 -59 620 -59 620 -53.5 646.5 c 128,-1,1
EndSplineSet
EndChar

StartChar: uni030F
Encoding: 783 783 544
Width: 0
GlyphClass: 4
Flags: W
AnchorPoint: "Anchor-10" -201 770 basemark 0
AnchorPoint: "Anchor-10" -201 520 mark 0
AnchorPoint: "Anchor-6" -201 520 mark 0
AnchorPoint: "Anchor-1" -201 520 mark 0
LayerCount: 2
Fore
SplineSet
-372 770 m 1,0,-1
 -349 770 l 1,1,-1
 -228 560 l 1,2,-1
 -251 560 l 1,3,-1
 -372 770 l 1,0,-1
-192 770 m 1,4,-1
 -169 770 l 1,5,-1
 -48 560 l 1,6,-1
 -71 560 l 1,7,-1
 -192 770 l 1,4,-1
EndSplineSet
EndChar

StartChar: uni0311
Encoding: 785 785 545
Width: 0
GlyphClass: 4
Flags: W
AnchorPoint: "Anchor-10" -176 735 basemark 0
AnchorPoint: "Anchor-10" -176 520 mark 0
AnchorPoint: "Anchor-6" -176 520 mark 0
AnchorPoint: "Anchor-1" -176 520 mark 0
LayerCount: 2
Fore
SplineSet
-69.5 702 m 128,-1,1
 -26 669 -26 669 -17 615 c 1,2,-1
 -37 615 l 1,3,4
 -46 660 -46 660 -84 687.5 c 128,-1,5
 -122 715 -122 715 -176 715 c 256,6,7
 -230 715 -230 715 -268 687.5 c 128,-1,8
 -306 660 -306 660 -315 615 c 1,9,-1
 -335 615 l 1,10,11
 -326 669 -326 669 -282.5 702 c 128,-1,12
 -239 735 -239 735 -176 735 c 256,13,0
 -113 735 -113 735 -69.5 702 c 128,-1,1
EndSplineSet
EndChar

StartChar: uni0312
Encoding: 786 786 546
Width: 0
GlyphClass: 4
Flags: W
AnchorPoint: "Anchor-10" -120 770 basemark 0
AnchorPoint: "Anchor-10" -120 520 mark 0
AnchorPoint: "Anchor-6" -120 520 mark 0
AnchorPoint: "Anchor-1" -120 520 mark 0
LayerCount: 2
Fore
SplineSet
-71 770 m 1,0,-1
 -48 770 l 1,1,-1
 -169 560 l 1,2,-1
 -192 560 l 1,3,-1
 -71 770 l 1,0,-1
EndSplineSet
EndChar

StartChar: uni031B
Encoding: 795 795 547
Width: 0
GlyphClass: 4
Flags: W
AnchorPoint: "Anchor-11" -75 770 basemark 0
AnchorPoint: "Anchor-11" -240 615 mark 0
AnchorPoint: "Anchor-7" -240 615 mark 0
AnchorPoint: "Anchor-3" -240 615 mark 0
LayerCount: 2
Fore
SplineSet
-243 594 m 1,1,-1
 -240 615 l 1,2,3
 -210 600 -210 600 -180 600 c 0,4,5
 -115 600 -115 600 -115 678 c 0,6,7
 -115 701 -115 701 -120 726.5 c 128,-1,8
 -125 752 -125 752 -132 770 c 1,9,-1
 -111 770 l 1,10,11
 -95 722 -95 722 -95 678 c 0,12,13
 -95 631 -95 631 -117 605.5 c 128,-1,14
 -139 580 -139 580 -180 580 c 0,15,0
 -212 580 -212 580 -243 594 c 1,1,-1
EndSplineSet
EndChar

StartChar: uni0326
Encoding: 806 806 550
Width: 0
GlyphClass: 4
Flags: W
AnchorPoint: "Anchor-10" -101 -290 mark 0
AnchorPoint: "Anchor-9" -101 -210 basemark 0
AnchorPoint: "Anchor-6" -101 -290 mark 0
AnchorPoint: "Anchor-1" -101 -290 mark 0
LayerCount: 2
Fore
SplineSet
-150 -250 m 1,0,-1
 -173 -250 l 1,1,-1
 -52 -40 l 1,2,-1
 -29 -40 l 1,3,-1
 -150 -250 l 1,0,-1
EndSplineSet
EndChar

StartChar: uni0327
Encoding: 807 807 551
Width: 0
GlyphClass: 4
Flags: W
AnchorPoint: "Anchor-8" -199 0 mark 0
LayerCount: 2
Fore
SplineSet
-286 -199 m 1,1,-1
 -278 -181 l 1,2,3
 -237 -200 -237 -200 -185 -200 c 0,4,5
 -140 -200 -140 -200 -108.5 -186 c 128,-1,6
 -77 -172 -77 -172 -77 -135 c 0,7,8
 -77 -101 -77 -101 -108.5 -66.5 c 128,-1,9
 -140 -32 -140 -32 -199 0 c 1,10,-1
 -179 11 l 1,11,12
 -121 -21 -121 -21 -89 -58.5 c 128,-1,13
 -57 -96 -57 -96 -57 -135 c 0,14,15
 -57 -168 -57 -168 -84 -194 c 128,-1,16
 -111 -220 -111 -220 -185 -220 c 0,17,0
 -241 -220 -241 -220 -286 -199 c 1,1,-1
EndSplineSet
EndChar

StartChar: uni0328
Encoding: 808 808 552
Width: 0
GlyphClass: 4
Flags: W
AnchorPoint: "Anchor-5" -144 0 mark 0
AnchorPoint: "Anchor-2" -144 0 mark 0
LayerCount: 2
Fore
SplineSet
-259 -194 m 128,-1,1
 -286 -168 -286 -168 -286 -135 c 0,2,3
 -286 -96 -286 -96 -254 -58.5 c 128,-1,4
 -222 -21 -222 -21 -164 11 c 1,5,-1
 -144 0 l 1,6,7
 -203 -32 -203 -32 -234.5 -66.5 c 128,-1,8
 -266 -101 -266 -101 -266 -135 c 0,9,10
 -266 -172 -266 -172 -234.5 -186 c 128,-1,11
 -203 -200 -203 -200 -158 -200 c 0,12,13
 -106 -200 -106 -200 -65 -181 c 1,14,-1
 -57 -199 l 1,15,16
 -102 -220 -102 -220 -158 -220 c 0,17,0
 -232 -220 -232 -220 -259 -194 c 128,-1,1
EndSplineSet
EndChar

StartChar: uni0370
Encoding: 880 880 568
Width: 562
Flags: W
LayerCount: 2
Fore
SplineSet
511 410 m 1,0,-1
 511 390 l 1,1,-1
 111 390 l 1,2,-1
 111 0 l 1,3,-1
 91 0 l 1,4,-1
 91 730 l 1,5,-1
 111 730 l 1,6,-1
 111 410 l 1,7,-1
 511 410 l 1,0,-1
EndSplineSet
EndChar

StartChar: uni0371
Encoding: 881 881 569
Width: 432
Flags: W
LayerCount: 2
Fore
SplineSet
381 295 m 1,0,-1
 381 275 l 1,1,-1
 101 275 l 1,2,-1
 101 0 l 1,3,-1
 81 0 l 1,4,-1
 81 520 l 1,5,-1
 101 520 l 1,6,-1
 101 295 l 1,7,-1
 381 295 l 1,0,-1
EndSplineSet
EndChar

StartChar: uni0372
Encoding: 882 882 570
Width: 702
Flags: W
LayerCount: 2
Fore
SplineSet
341 710 m 1,0,-1
 91 710 l 1,1,-1
 91 390 l 1,2,-1
 71 390 l 1,3,-1
 71 730 l 1,4,-1
 631 730 l 1,5,-1
 631 390 l 1,6,-1
 611 390 l 1,7,-1
 611 710 l 1,8,-1
 361 710 l 1,9,-1
 361 0 l 1,10,-1
 341 0 l 1,11,-1
 341 710 l 1,0,-1
EndSplineSet
EndChar

StartChar: uni0373
Encoding: 883 883 571
Width: 572
Flags: W
LayerCount: 2
Fore
SplineSet
276 710 m 1,0,-1
 86 710 l 1,1,-1
 86 490 l 1,2,-1
 66 490 l 1,3,-1
 66 730 l 1,4,-1
 506 730 l 1,5,-1
 506 490 l 1,6,-1
 486 490 l 1,7,-1
 486 710 l 1,8,-1
 296 710 l 1,9,-1
 296 0 l 1,10,-1
 276 0 l 1,11,-1
 276 710 l 1,0,-1
EndSplineSet
EndChar

StartChar: uni0374
Encoding: 884 884 572
Width: 228
Flags: W
LayerCount: 2
Fore
SplineSet
97 550 m 1,0,-1
 76 550 l 1,1,-1
 156 770 l 1,2,-1
 177 770 l 1,3,-1
 97 550 l 1,0,-1
EndSplineSet
EndChar

StartChar: uni0375
Encoding: 885 885 573
Width: 229
Flags: W
LayerCount: 2
Fore
SplineSet
73 -110 m 1,0,-1
 51 -110 l 1,1,-1
 131 110 l 1,2,-1
 153 110 l 1,3,-1
 73 -110 l 1,0,-1
EndSplineSet
EndChar

StartChar: uni0376
Encoding: 886 886 574
Width: 692
Flags: W
LayerCount: 2
Fore
SplineSet
111 21 m 1,0,-1
 113 21 l 1,1,-1
 569 730 l 1,2,-1
 601 730 l 1,3,-1
 601 0 l 1,4,-1
 581 0 l 1,5,-1
 581 709 l 1,6,-1
 579 709 l 1,7,-1
 123 0 l 1,8,-1
 91 0 l 1,9,-1
 91 730 l 1,10,-1
 111 730 l 1,11,-1
 111 21 l 1,0,-1
EndSplineSet
EndChar

StartChar: uni0377
Encoding: 887 887 575
Width: 590
Flags: W
LayerCount: 2
Fore
SplineSet
101 23 m 1,0,-1
 102 23 l 1,1,-1
 480 520 l 1,2,-1
 509 520 l 1,3,-1
 509 0 l 1,4,-1
 489 0 l 1,5,-1
 489 497 l 1,6,-1
 488 497 l 1,7,-1
 110 0 l 1,8,-1
 81 0 l 1,9,-1
 81 520 l 1,10,-1
 101 520 l 1,11,-1
 101 23 l 1,0,-1
EndSplineSet
EndChar

StartChar: uni037A
Encoding: 890 890 576
Width: 322
Flags: W
LayerCount: 2
Fore
SplineSet
91 -120 m 2,0,-1
 91 -60 l 1,1,-1
 111 -60 l 1,2,-1
 111 -120 l 2,3,4
 111 -197 111 -197 123 -213.5 c 128,-1,5
 135 -230 135 -230 191 -230 c 0,6,7
 230 -230 230 -230 264 -216 c 1,8,-1
 271 -235 l 1,9,10
 235 -250 235 -250 191 -250 c 0,11,12
 125 -250 125 -250 108 -226.5 c 128,-1,13
 91 -203 91 -203 91 -120 c 2,0,-1
EndSplineSet
EndChar

StartChar: uni037B
Encoding: 891 891 577
Width: 507
Flags: W
LayerCount: 2
Fore
SplineSet
80 43 m 1,0,1
 143 10 143 10 211 10 c 0,2,3
 314 10 314 10 377.5 78.5 c 128,-1,4
 441 147 441 147 441 260 c 0,5,6
 441 378 441 378 380 444 c 128,-1,7
 319 510 319 510 211 510 c 0,8,9
 143 510 143 510 80 477 c 1,10,-1
 71 495 l 1,11,12
 137 530 137 530 211 530 c 0,13,14
 327 530 327 530 394 457.5 c 128,-1,15
 461 385 461 385 461 260 c 0,16,17
 461 139 461 139 392 64.5 c 128,-1,18
 323 -10 323 -10 211 -10 c 0,19,20
 137 -10 137 -10 71 25 c 1,21,-1
 80 43 l 1,0,1
EndSplineSet
EndChar

StartChar: uni037C
Encoding: 892 892 578
Width: 507
Flags: W
LayerCount: 2
Fore
SplineSet
306 200 m 1,0,-1
 306 320 l 1,1,-1
 326 320 l 1,2,-1
 326 200 l 1,3,-1
 306 200 l 1,0,-1
427 43 m 1,4,-1
 436 25 l 1,5,6
 370 -10 370 -10 296 -10 c 0,7,8
 184 -10 184 -10 115 64.5 c 128,-1,9
 46 139 46 139 46 260 c 0,10,11
 46 385 46 385 113 457.5 c 128,-1,12
 180 530 180 530 296 530 c 0,13,14
 370 530 370 530 436 495 c 1,15,-1
 427 477 l 1,16,17
 364 510 364 510 296 510 c 0,18,19
 188 510 188 510 127 444 c 128,-1,20
 66 378 66 378 66 260 c 0,21,22
 66 147 66 147 129 78.5 c 128,-1,23
 192 10 192 10 296 10 c 0,24,25
 364 10 364 10 427 43 c 1,4,-1
EndSplineSet
EndChar

StartChar: uni037D
Encoding: 893 893 579
Width: 507
Flags: W
LayerCount: 2
Fore
SplineSet
181 200 m 1,0,-1
 181 320 l 1,1,-1
 201 320 l 1,2,-1
 201 200 l 1,3,-1
 181 200 l 1,0,-1
80 43 m 1,4,5
 143 10 143 10 211 10 c 0,6,7
 314 10 314 10 377.5 78.5 c 128,-1,8
 441 147 441 147 441 260 c 0,9,10
 441 378 441 378 380 444 c 128,-1,11
 319 510 319 510 211 510 c 0,12,13
 143 510 143 510 80 477 c 1,14,-1
 71 495 l 1,15,16
 137 530 137 530 211 530 c 0,17,18
 327 530 327 530 394 457.5 c 128,-1,19
 461 385 461 385 461 260 c 0,20,21
 461 139 461 139 392 64.5 c 128,-1,22
 323 -10 323 -10 211 -10 c 0,23,24
 137 -10 137 -10 71 25 c 1,25,-1
 80 43 l 1,4,5
EndSplineSet
EndChar

StartChar: uni037E
Encoding: 894 894 580
Width: 324
Flags: W
LayerCount: 2
Fore
SplineSet
166 110 m 1,0,-1
 188 110 l 1,1,-1
 108 -110 l 1,2,-1
 86 -110 l 1,3,-1
 166 110 l 1,0,-1
151 380 m 1,4,-1
 151 500 l 1,5,-1
 171 500 l 1,6,-1
 171 380 l 1,7,-1
 151 380 l 1,4,-1
EndSplineSet
EndChar

StartChar: tonos
Encoding: 900 900 581
Width: 272
Flags: W
LayerCount: 2
Fore
SplineSet
101 590 m 1,0,-1
 76 590 l 1,1,-1
 196 750 l 1,2,-1
 221 750 l 1,3,-1
 101 590 l 1,0,-1
EndSplineSet
EndChar

StartChar: dieresistonos
Encoding: 901 901 582
Width: 397
Flags: W
LayerCount: 2
Fore
SplineSet
191 790 m 1,0,-1
 166 790 l 1,1,-1
 286 950 l 1,2,-1
 311 950 l 1,3,-1
 191 790 l 1,0,-1
286 610 m 1,4,-1
 286 730 l 1,5,-1
 306 730 l 1,6,-1
 306 610 l 1,7,-1
 286 610 l 1,4,-1
86 610 m 1,8,-1
 86 730 l 1,9,-1
 106 730 l 1,10,-1
 106 610 l 1,11,-1
 86 610 l 1,8,-1
EndSplineSet
EndChar

StartChar: Alphatonos
Encoding: 902 902 583
Width: 662
Flags: W
LayerCount: 2
Fore
SplineSet
327 713 m 1,0,-1
 325 713 l 1,1,-1
 156 270 l 1,2,-1
 496 270 l 1,3,-1
 327 713 l 1,0,-1
78 590 m 1,4,-1
 53 590 l 1,5,-1
 173 750 l 1,6,-1
 198 750 l 1,7,-1
 78 590 l 1,4,-1
504 250 m 1,8,-1
 148 250 l 1,9,-1
 52 0 l 1,10,-1
 31 0 l 1,11,-1
 311 730 l 1,12,-1
 341 730 l 1,13,-1
 621 0 l 1,14,-1
 600 0 l 1,15,-1
 504 250 l 1,8,-1
EndSplineSet
EndChar

StartChar: anoteleia
Encoding: 903 903 584
Width: 222
Flags: W
LayerCount: 2
Fore
SplineSet
101 230 m 1,0,-1
 101 350 l 1,1,-1
 121 350 l 1,2,-1
 121 230 l 1,3,-1
 101 230 l 1,0,-1
EndSplineSet
EndChar

StartChar: Epsilontonos
Encoding: 904 904 585
Width: 710
Flags: W
LayerCount: 2
Fore
SplineSet
249 390 m 1,0,-1
 249 20 l 1,1,-1
 629 20 l 1,2,-1
 629 0 l 1,3,-1
 229 0 l 1,4,-1
 229 730 l 1,5,-1
 629 730 l 1,6,-1
 629 710 l 1,7,-1
 249 710 l 1,8,-1
 249 410 l 1,9,-1
 609 410 l 1,10,-1
 609 390 l 1,11,-1
 249 390 l 1,0,-1
56 590 m 1,12,-1
 31 590 l 1,13,-1
 151 750 l 1,14,-1
 176 750 l 1,15,-1
 56 590 l 1,12,-1
EndSplineSet
EndChar

StartChar: Etatonos
Encoding: 905 905 586
Width: 820
Flags: W
LayerCount: 2
Fore
SplineSet
709 730 m 1,0,-1
 729 730 l 1,1,-1
 729 0 l 1,2,-1
 709 0 l 1,3,-1
 709 390 l 1,4,-1
 249 390 l 1,5,-1
 249 0 l 1,6,-1
 229 0 l 1,7,-1
 229 730 l 1,8,-1
 249 730 l 1,9,-1
 249 410 l 1,10,-1
 709 410 l 1,11,-1
 709 730 l 1,0,-1
56 590 m 1,12,-1
 31 590 l 1,13,-1
 151 750 l 1,14,-1
 176 750 l 1,15,-1
 56 590 l 1,12,-1
EndSplineSet
EndChar

StartChar: Iotatonos
Encoding: 906 906 587
Width: 410
Flags: W
LayerCount: 2
Fore
SplineSet
259 0 m 1,0,-1
 259 730 l 1,1,-1
 279 730 l 1,2,-1
 279 0 l 1,3,-1
 259 0 l 1,0,-1
86 590 m 1,4,-1
 61 590 l 1,5,-1
 181 750 l 1,6,-1
 206 750 l 1,7,-1
 86 590 l 1,4,-1
EndSplineSet
EndChar

StartChar: Omicrontonos
Encoding: 908 908 588
Width: 890
Flags: W
LayerCount: 2
Fore
SplineSet
144 365 m 128,-1,1
 144 533 144 533 240.5 636.5 c 128,-1,2
 337 740 337 740 494 740 c 128,-1,3
 651 740 651 740 747.5 636.5 c 128,-1,4
 844 533 844 533 844 365 c 128,-1,5
 844 197 844 197 747.5 93.5 c 128,-1,6
 651 -10 651 -10 494 -10 c 128,-1,7
 337 -10 337 -10 240.5 93.5 c 128,-1,0
 144 197 144 197 144 365 c 128,-1,1
56 590 m 1,8,-1
 31 590 l 1,9,-1
 151 750 l 1,10,-1
 176 750 l 1,11,-1
 56 590 l 1,8,-1
494 10 m 128,-1,13
 642 10 642 10 733 108 c 128,-1,14
 824 206 824 206 824 365 c 128,-1,15
 824 524 824 524 733 622 c 128,-1,16
 642 720 642 720 494 720 c 128,-1,17
 346 720 346 720 255 622 c 128,-1,18
 164 524 164 524 164 365 c 128,-1,19
 164 206 164 206 255 108 c 128,-1,12
 346 10 346 10 494 10 c 128,-1,13
EndSplineSet
EndChar

StartChar: Upsilontonos
Encoding: 910 910 589
Width: 825
Flags: W
LayerCount: 2
Fore
SplineSet
503 348 m 1,0,-1
 505 348 l 1,1,-1
 765 730 l 1,2,-1
 789 730 l 1,3,-1
 514 327 l 1,4,-1
 514 0 l 1,5,-1
 494 0 l 1,6,-1
 494 327 l 1,7,-1
 219 730 l 1,8,-1
 243 730 l 1,9,-1
 503 348 l 1,0,-1
56 590 m 1,10,-1
 31 590 l 1,11,-1
 151 750 l 1,12,-1
 176 750 l 1,13,-1
 56 590 l 1,10,-1
EndSplineSet
EndChar

StartChar: Omegatonos
Encoding: 911 911 590
Width: 920
Flags: W
LayerCount: 2
Fore
SplineSet
494 740 m 128,-1,1
 649 740 649 740 746.5 638 c 128,-1,2
 844 536 844 536 844 375 c 0,3,4
 844 251 844 251 785.5 157.5 c 128,-1,5
 727 64 727 64 626 22 c 1,6,-1
 626 20 l 1,7,-1
 859 20 l 1,8,-1
 859 0 l 1,9,-1
 559 0 l 1,10,-1
 559 20 l 1,11,12
 680 45 680 45 752 142 c 128,-1,13
 824 239 824 239 824 375 c 0,14,15
 824 527 824 527 732 623.5 c 128,-1,16
 640 720 640 720 494 720 c 128,-1,17
 348 720 348 720 256 623.5 c 128,-1,18
 164 527 164 527 164 375 c 0,19,20
 164 239 164 239 236 142 c 128,-1,21
 308 45 308 45 429 20 c 1,22,-1
 429 0 l 1,23,-1
 129 0 l 1,24,-1
 129 20 l 1,25,-1
 362 20 l 1,26,-1
 362 22 l 1,27,28
 261 64 261 64 202.5 157.5 c 128,-1,29
 144 251 144 251 144 375 c 0,30,31
 144 536 144 536 241.5 638 c 128,-1,0
 339 740 339 740 494 740 c 128,-1,1
56 590 m 1,32,-1
 31 590 l 1,33,-1
 151 750 l 1,34,-1
 176 750 l 1,35,-1
 56 590 l 1,32,-1
EndSplineSet
EndChar

StartChar: iotadieresistonos
Encoding: 912 912 591
Width: 447
Flags: W
LayerCount: 2
Fore
SplineSet
191 520 m 1,0,-1
 191 140 l 2,1,2
 191 60 191 60 215.5 35 c 128,-1,3
 240 10 240 10 306 10 c 0,4,5
 349 10 349 10 389 24 c 1,6,-1
 396 5 l 1,7,8
 354 -10 354 -10 306 -10 c 0,9,10
 229 -10 229 -10 200 22 c 128,-1,11
 171 54 171 54 171 140 c 2,12,-1
 171 520 l 1,13,-1
 191 520 l 1,0,-1
271 610 m 1,14,-1
 271 730 l 1,15,-1
 291 730 l 1,16,-1
 291 610 l 1,17,-1
 271 610 l 1,14,-1
71 610 m 1,18,-1
 71 730 l 1,19,-1
 91 730 l 1,20,-1
 91 610 l 1,21,-1
 71 610 l 1,18,-1
196 790 m 1,22,-1
 171 790 l 1,23,-1
 291 950 l 1,24,-1
 316 950 l 1,25,-1
 196 790 l 1,22,-1
EndSplineSet
EndChar

StartChar: Alpha
Encoding: 913 913 592
Width: 672
Flags: W
LayerCount: 2
Fore
SplineSet
337 713 m 1,0,-1
 335 713 l 1,1,-1
 166 270 l 1,2,-1
 506 270 l 1,3,-1
 337 713 l 1,0,-1
514 250 m 1,4,-1
 158 250 l 1,5,-1
 62 0 l 1,6,-1
 41 0 l 1,7,-1
 321 730 l 1,8,-1
 351 730 l 1,9,-1
 631 0 l 1,10,-1
 610 0 l 1,11,-1
 514 250 l 1,4,-1
EndSplineSet
EndChar

StartChar: Gamma
Encoding: 915 915 594
Width: 542
Flags: W
LayerCount: 2
Fore
SplineSet
111 710 m 1,0,-1
 111 0 l 1,1,-1
 91 0 l 1,2,-1
 91 730 l 1,3,-1
 481 730 l 1,4,-1
 481 710 l 1,5,-1
 111 710 l 1,0,-1
EndSplineSet
EndChar

StartChar: uni0394
Encoding: 916 916 595
Width: 672
Flags: W
LayerCount: 2
Fore
SplineSet
337 713 m 1,0,-1
 335 713 l 1,1,-1
 70 20 l 1,2,-1
 602 20 l 1,3,-1
 337 713 l 1,0,-1
610 0 m 1,4,-1
 62 0 l 1,5,-1
 56 0 l 1,6,-1
 41 0 l 1,7,-1
 321 730 l 1,8,-1
 351 730 l 1,9,-1
 631 0 l 1,10,-1
 616 0 l 1,11,-1
 610 0 l 1,4,-1
EndSplineSet
EndChar

StartChar: Epsilon
Encoding: 917 917 596
Width: 572
Flags: W
LayerCount: 2
Fore
SplineSet
111 390 m 1,0,-1
 111 20 l 1,1,-1
 491 20 l 1,2,-1
 491 0 l 1,3,-1
 91 0 l 1,4,-1
 91 730 l 1,5,-1
 491 730 l 1,6,-1
 491 710 l 1,7,-1
 111 710 l 1,8,-1
 111 410 l 1,9,-1
 471 410 l 1,10,-1
 471 390 l 1,11,-1
 111 390 l 1,0,-1
EndSplineSet
EndChar

StartChar: Zeta
Encoding: 918 918 597
Width: 622
Flags: W
LayerCount: 2
Fore
SplineSet
516 708 m 1,0,-1
 516 710 l 1,1,-1
 81 710 l 1,2,-1
 81 730 l 1,3,-1
 541 730 l 1,4,-1
 541 710 l 1,5,-1
 106 22 l 1,6,-1
 106 20 l 1,7,-1
 541 20 l 1,8,-1
 541 0 l 1,9,-1
 81 0 l 1,10,-1
 81 20 l 1,11,-1
 516 708 l 1,0,-1
EndSplineSet
EndChar

StartChar: Eta
Encoding: 919 919 598
Width: 682
Flags: W
LayerCount: 2
Fore
SplineSet
571 730 m 1,0,-1
 591 730 l 1,1,-1
 591 0 l 1,2,-1
 571 0 l 1,3,-1
 571 390 l 1,4,-1
 111 390 l 1,5,-1
 111 0 l 1,6,-1
 91 0 l 1,7,-1
 91 730 l 1,8,-1
 111 730 l 1,9,-1
 111 410 l 1,10,-1
 571 410 l 1,11,-1
 571 730 l 1,0,-1
EndSplineSet
EndChar

StartChar: Theta
Encoding: 920 920 599
Width: 792
Flags: W
LayerCount: 2
Fore
SplineSet
176 355 m 1,0,-1
 176 375 l 1,1,-1
 616 375 l 1,2,-1
 616 355 l 1,3,-1
 176 355 l 1,0,-1
46 365 m 128,-1,5
 46 533 46 533 142.5 636.5 c 128,-1,6
 239 740 239 740 396 740 c 128,-1,7
 553 740 553 740 649.5 636.5 c 128,-1,8
 746 533 746 533 746 365 c 128,-1,9
 746 197 746 197 649.5 93.5 c 128,-1,10
 553 -10 553 -10 396 -10 c 128,-1,11
 239 -10 239 -10 142.5 93.5 c 128,-1,4
 46 197 46 197 46 365 c 128,-1,5
396 10 m 128,-1,13
 544 10 544 10 635 108 c 128,-1,14
 726 206 726 206 726 365 c 128,-1,15
 726 524 726 524 635 622 c 128,-1,16
 544 720 544 720 396 720 c 128,-1,17
 248 720 248 720 157 622 c 128,-1,18
 66 524 66 524 66 365 c 128,-1,19
 66 206 66 206 157 108 c 128,-1,12
 248 10 248 10 396 10 c 128,-1,13
EndSplineSet
EndChar

StartChar: Iota
Encoding: 921 921 600
Width: 282
Flags: W
LayerCount: 2
Fore
SplineSet
131 0 m 1,0,-1
 131 730 l 1,1,-1
 151 730 l 1,2,-1
 151 0 l 1,3,-1
 131 0 l 1,0,-1
EndSplineSet
EndChar

StartChar: Kappa
Encoding: 922 922 601
Width: 592
Flags: W
LayerCount: 2
Fore
SplineSet
113 367 m 1,0,-1
 111 367 l 1,1,-1
 111 0 l 1,2,-1
 91 0 l 1,3,-1
 91 730 l 1,4,-1
 111 730 l 1,5,-1
 111 394 l 1,6,-1
 113 394 l 1,7,-1
 510 730 l 1,8,-1
 541 730 l 1,9,-1
 126 380 l 1,10,-1
 551 0 l 1,11,-1
 521 0 l 1,12,-1
 113 367 l 1,0,-1
EndSplineSet
EndChar

StartChar: Lambda
Encoding: 923 923 602
Width: 672
Flags: W
LayerCount: 2
Fore
SplineSet
337 713 m 1,0,-1
 335 713 l 1,1,-1
 62 0 l 1,2,-1
 41 0 l 1,3,-1
 321 730 l 1,4,-1
 351 730 l 1,5,-1
 631 0 l 1,6,-1
 610 0 l 1,7,-1
 337 713 l 1,0,-1
EndSplineSet
EndChar

StartChar: Mu
Encoding: 924 924 603
Width: 842
Flags: W
LayerCount: 2
Fore
SplineSet
731 0 m 1,0,-1
 731 709 l 1,1,-1
 729 709 l 1,2,-1
 433 250 l 1,3,-1
 409 250 l 1,4,-1
 113 709 l 1,5,-1
 111 709 l 1,6,-1
 111 0 l 1,7,-1
 91 0 l 1,8,-1
 91 730 l 1,9,-1
 123 730 l 1,10,-1
 420 270 l 1,11,-1
 422 270 l 1,12,-1
 719 730 l 1,13,-1
 751 730 l 1,14,-1
 751 0 l 1,15,-1
 731 0 l 1,0,-1
EndSplineSet
EndChar

StartChar: Nu
Encoding: 925 925 604
Width: 692
Flags: W
LayerCount: 2
Fore
SplineSet
581 21 m 1,0,-1
 581 730 l 1,1,-1
 601 730 l 1,2,-1
 601 0 l 1,3,-1
 569 0 l 1,4,-1
 113 709 l 1,5,-1
 111 709 l 1,6,-1
 111 0 l 1,7,-1
 91 0 l 1,8,-1
 91 730 l 1,9,-1
 123 730 l 1,10,-1
 579 21 l 1,11,-1
 581 21 l 1,0,-1
EndSplineSet
EndChar

StartChar: Xi
Encoding: 926 926 605
Width: 592
Flags: W
LayerCount: 2
Fore
SplineSet
81 0 m 1,0,-1
 81 20 l 1,1,-1
 511 20 l 1,2,-1
 511 0 l 1,3,-1
 81 0 l 1,0,-1
101 390 m 1,4,-1
 101 410 l 1,5,-1
 491 410 l 1,6,-1
 491 390 l 1,7,-1
 101 390 l 1,4,-1
81 710 m 1,8,-1
 81 730 l 1,9,-1
 511 730 l 1,10,-1
 511 710 l 1,11,-1
 81 710 l 1,8,-1
EndSplineSet
EndChar

StartChar: Pi
Encoding: 928 928 607
Width: 682
Flags: W
LayerCount: 2
Fore
SplineSet
91 730 m 1,0,-1
 591 730 l 1,1,-1
 591 0 l 1,2,-1
 571 0 l 1,3,-1
 571 710 l 1,4,-1
 111 710 l 1,5,-1
 111 0 l 1,6,-1
 91 0 l 1,7,-1
 91 730 l 1,0,-1
EndSplineSet
EndChar

StartChar: Sigma
Encoding: 931 931 609
Width: 552
Flags: W
LayerCount: 2
Fore
SplineSet
101 710 m 1,0,-1
 340 386 l 1,1,-1
 100 20 l 1,2,-1
 476 20 l 1,3,-1
 476 0 l 1,4,-1
 76 0 l 1,5,-1
 76 20 l 1,6,-1
 316 385 l 1,7,-1
 76 710 l 1,8,-1
 76 730 l 1,9,-1
 476 730 l 1,10,-1
 476 710 l 1,11,-1
 101 710 l 1,0,-1
EndSplineSet
EndChar

StartChar: Tau
Encoding: 932 932 610
Width: 652
Flags: W
LayerCount: 2
Fore
SplineSet
586 730 m 1,0,-1
 586 710 l 1,1,-1
 336 710 l 1,2,-1
 336 0 l 1,3,-1
 316 0 l 1,4,-1
 316 710 l 1,5,-1
 66 710 l 1,6,-1
 66 730 l 1,7,-1
 586 730 l 1,0,-1
EndSplineSet
EndChar

StartChar: Upsilon
Encoding: 933 933 611
Width: 642
Flags: W
LayerCount: 2
Fore
SplineSet
320 348 m 1,0,-1
 322 348 l 1,1,-1
 582 730 l 1,2,-1
 606 730 l 1,3,-1
 331 327 l 1,4,-1
 331 0 l 1,5,-1
 311 0 l 1,6,-1
 311 327 l 1,7,-1
 36 730 l 1,8,-1
 60 730 l 1,9,-1
 320 348 l 1,0,-1
EndSplineSet
EndChar

StartChar: Phi
Encoding: 934 934 612
Width: 702
Flags: W
LayerCount: 2
Fore
SplineSet
361 120 m 1,0,1
 489 123 489 123 565 190.5 c 128,-1,2
 641 258 641 258 641 370 c 128,-1,3
 641 482 641 482 565 549.5 c 128,-1,4
 489 617 489 617 361 620 c 1,5,-1
 361 120 l 1,0,1
361 640 m 1,6,7
 497 637 497 637 579 563 c 128,-1,8
 661 489 661 489 661 370 c 128,-1,9
 661 251 661 251 579 177 c 128,-1,10
 497 103 497 103 361 100 c 1,11,-1
 361 0 l 1,12,-1
 341 0 l 1,13,-1
 341 100 l 1,14,15
 205 103 205 103 123 177 c 128,-1,16
 41 251 41 251 41 370 c 128,-1,17
 41 489 41 489 123 563 c 128,-1,18
 205 637 205 637 341 640 c 1,19,-1
 341 730 l 1,20,-1
 361 730 l 1,21,-1
 361 640 l 1,6,7
341 620 m 1,22,23
 213 617 213 617 137 549.5 c 128,-1,24
 61 482 61 482 61 370 c 128,-1,25
 61 258 61 258 137 190.5 c 128,-1,26
 213 123 213 123 341 120 c 1,27,-1
 341 620 l 1,22,23
EndSplineSet
EndChar

StartChar: Chi
Encoding: 935 935 613
Width: 622
Flags: W
LayerCount: 2
Fore
SplineSet
312 351 m 1,0,-1
 310 351 l 1,1,-1
 75 0 l 1,2,-1
 51 0 l 1,3,-1
 299 369 l 1,4,-1
 56 730 l 1,5,-1
 80 730 l 1,6,-1
 310 387 l 1,7,-1
 312 387 l 1,8,-1
 542 730 l 1,9,-1
 566 730 l 1,10,-1
 323 369 l 1,11,-1
 571 0 l 1,12,-1
 547 0 l 1,13,-1
 312 351 l 1,0,-1
EndSplineSet
EndChar

StartChar: Psi
Encoding: 936 936 614
Width: 772
Flags: W
LayerCount: 2
Fore
SplineSet
396 190 m 1,0,1
 529 192 529 192 602.5 260 c 128,-1,2
 676 328 676 328 676 450 c 2,3,-1
 676 730 l 1,4,-1
 696 730 l 1,5,-1
 696 450 l 2,6,7
 696 319 696 319 617.5 245.5 c 128,-1,8
 539 172 539 172 396 170 c 1,9,-1
 396 0 l 1,10,-1
 376 0 l 1,11,-1
 376 170 l 1,12,13
 233 172 233 172 154.5 245.5 c 128,-1,14
 76 319 76 319 76 450 c 2,15,-1
 76 730 l 1,16,-1
 96 730 l 1,17,-1
 96 450 l 2,18,19
 96 328 96 328 169.5 260 c 128,-1,20
 243 192 243 192 376 190 c 1,21,-1
 376 730 l 1,22,-1
 396 730 l 1,23,-1
 396 190 l 1,0,1
EndSplineSet
EndChar

StartChar: uni03A9
Encoding: 937 937 615
Width: 852
Flags: W
LayerCount: 2
Fore
SplineSet
426 740 m 128,-1,1
 581 740 581 740 678.5 638 c 128,-1,2
 776 536 776 536 776 375 c 0,3,4
 776 251 776 251 717.5 157.5 c 128,-1,5
 659 64 659 64 558 22 c 1,6,-1
 558 20 l 1,7,-1
 791 20 l 1,8,-1
 791 0 l 1,9,-1
 491 0 l 1,10,-1
 491 20 l 1,11,12
 612 45 612 45 684 142 c 128,-1,13
 756 239 756 239 756 375 c 0,14,15
 756 527 756 527 664 623.5 c 128,-1,16
 572 720 572 720 426 720 c 128,-1,17
 280 720 280 720 188 623.5 c 128,-1,18
 96 527 96 527 96 375 c 0,19,20
 96 239 96 239 168 142 c 128,-1,21
 240 45 240 45 361 20 c 1,22,-1
 361 0 l 1,23,-1
 61 0 l 1,24,-1
 61 20 l 1,25,-1
 294 20 l 1,26,-1
 294 22 l 1,27,28
 193 64 193 64 134.5 157.5 c 128,-1,29
 76 251 76 251 76 375 c 0,30,31
 76 536 76 536 173.5 638 c 128,-1,0
 271 740 271 740 426 740 c 128,-1,1
EndSplineSet
EndChar

StartChar: Iotadieresis
Encoding: 938 938 616
Width: 284
Flags: W
LayerCount: 2
Fore
SplineSet
232 810 m 1,0,-1
 232 930 l 1,1,-1
 252 930 l 1,2,-1
 252 810 l 1,3,-1
 232 810 l 1,0,-1
32 810 m 1,4,-1
 32 930 l 1,5,-1
 52 930 l 1,6,-1
 52 810 l 1,7,-1
 32 810 l 1,4,-1
132 0 m 1,8,-1
 132 730 l 1,9,-1
 152 730 l 1,10,-1
 152 0 l 1,11,-1
 132 0 l 1,8,-1
EndSplineSet
EndChar

StartChar: Upsilondieresis
Encoding: 939 939 617
Width: 642
Flags: W
LayerCount: 2
Fore
SplineSet
411 810 m 1,0,-1
 411 930 l 1,1,-1
 431 930 l 1,2,-1
 431 810 l 1,3,-1
 411 810 l 1,0,-1
211 810 m 1,4,-1
 211 930 l 1,5,-1
 231 930 l 1,6,-1
 231 810 l 1,7,-1
 211 810 l 1,4,-1
320 348 m 1,8,-1
 322 348 l 1,9,-1
 582 730 l 1,10,-1
 606 730 l 1,11,-1
 331 327 l 1,12,-1
 331 0 l 1,13,-1
 311 0 l 1,14,-1
 311 327 l 1,15,-1
 36 730 l 1,16,-1
 60 730 l 1,17,-1
 320 348 l 1,8,-1
EndSplineSet
EndChar

StartChar: alphatonos
Encoding: 940 940 618
Width: 607
Flags: W
LayerCount: 2
Fore
SplineSet
288 590 m 1,0,-1
 263 590 l 1,1,-1
 383 750 l 1,2,-1
 408 750 l 1,3,-1
 288 590 l 1,0,-1
438 246 m 1,4,5
 392 359 392 359 355 418 c 128,-1,6
 318 477 318 477 291 493.5 c 128,-1,7
 264 510 264 510 226 510 c 0,8,9
 155 510 155 510 113 442 c 128,-1,10
 71 374 71 374 71 260 c 128,-1,11
 71 146 71 146 113 78 c 128,-1,12
 155 10 155 10 226 10 c 0,13,14
 345 10 345 10 438 246 c 1,4,5
449 219 m 1,15,16
 355 -10 355 -10 226 -10 c 0,17,18
 149 -10 149 -10 100 62 c 128,-1,19
 51 134 51 134 51 260 c 128,-1,20
 51 386 51 386 100 458 c 128,-1,21
 149 530 149 530 226 530 c 0,22,23
 269 530 269 530 299.5 512.5 c 128,-1,24
 330 495 330 495 367 438.5 c 128,-1,25
 404 382 404 382 449 274 c 1,26,27
 485 372 485 372 520 520 c 1,28,-1
 541 520 l 1,29,30
 503 357 503 357 460 246 c 1,31,32
 490 173 490 173 551 0 c 1,33,-1
 530 0 l 1,34,35
 489 120 489 120 449 219 c 1,15,16
EndSplineSet
EndChar

StartChar: epsilontonos
Encoding: 941 941 619
Width: 506
Flags: W
LayerCount: 2
Fore
SplineSet
203 284 m 1,0,-1
 203 286 l 1,1,2
 130 301 130 301 95.5 333.5 c 128,-1,3
 61 366 61 366 61 405 c 0,4,5
 61 464 61 464 118 497 c 128,-1,6
 175 530 175 530 276 530 c 0,7,8
 369 530 369 530 450 494 c 1,9,-1
 442 476 l 1,10,11
 363 510 363 510 276 510 c 0,12,13
 184 510 184 510 132.5 482 c 128,-1,14
 81 454 81 454 81 405 c 0,15,16
 81 354 81 354 144 324.5 c 128,-1,17
 207 295 207 295 316 295 c 2,18,-1
 366 295 l 1,19,-1
 366 275 l 1,20,-1
 316 275 l 2,21,22
 196 275 196 275 133.5 240.5 c 128,-1,23
 71 206 71 206 71 140 c 0,24,25
 71 77 71 77 124 43.5 c 128,-1,26
 177 10 177 10 276 10 c 0,27,28
 364 10 364 10 447 44 c 1,29,-1
 455 26 l 1,30,31
 366 -10 366 -10 276 -10 c 0,32,33
 169 -10 169 -10 110 29.5 c 128,-1,34
 51 69 51 69 51 140 c 0,35,36
 51 168 51 168 60.5 193 c 128,-1,37
 70 218 70 218 106.5 245 c 128,-1,38
 143 272 143 272 203 284 c 1,0,-1
233 590 m 1,39,-1
 208 590 l 1,40,-1
 328 750 l 1,41,-1
 353 750 l 1,42,-1
 233 590 l 1,39,-1
EndSplineSet
EndChar

StartChar: etatonos
Encoding: 942 942 620
Width: 547
Flags: W
LayerCount: 2
Fore
SplineSet
101 392 m 1,0,-1
 103 392 l 1,1,2
 129 454 129 454 179 492 c 128,-1,3
 229 530 229 530 291 530 c 0,4,5
 386 530 386 530 428.5 478 c 128,-1,6
 471 426 471 426 471 310 c 2,7,-1
 471 -220 l 1,8,-1
 451 -220 l 1,9,-1
 451 310 l 2,10,11
 451 418 451 418 414 464 c 128,-1,12
 377 510 377 510 291 510 c 0,13,14
 212 510 212 510 156.5 445.5 c 128,-1,15
 101 381 101 381 101 290 c 2,16,-1
 101 0 l 1,17,-1
 81 0 l 1,18,-1
 81 520 l 1,19,-1
 101 520 l 1,20,-1
 101 392 l 1,0,-1
243 590 m 1,21,-1
 218 590 l 1,22,-1
 338 750 l 1,23,-1
 363 750 l 1,24,-1
 243 590 l 1,21,-1
EndSplineSet
EndChar

StartChar: iotatonos
Encoding: 943 943 621
Width: 432
Flags: W
LayerCount: 2
Fore
SplineSet
146 520 m 1,0,-1
 146 140 l 2,1,2
 146 60 146 60 170.5 35 c 128,-1,3
 195 10 195 10 261 10 c 0,4,5
 304 10 304 10 344 24 c 1,6,-1
 351 5 l 1,7,8
 309 -10 309 -10 261 -10 c 0,9,10
 184 -10 184 -10 155 22 c 128,-1,11
 126 54 126 54 126 140 c 2,12,-1
 126 520 l 1,13,-1
 146 520 l 1,0,-1
151 590 m 1,14,-1
 126 590 l 1,15,-1
 246 750 l 1,16,-1
 271 750 l 1,17,-1
 151 590 l 1,14,-1
EndSplineSet
EndChar

StartChar: upsilondieresistonos
Encoding: 944 944 622
Width: 547
Flags: W
LayerCount: 2
Fore
SplineSet
366 610 m 1,0,-1
 366 730 l 1,1,-1
 386 730 l 1,2,-1
 386 610 l 1,3,-1
 366 610 l 1,0,-1
166 610 m 1,4,-1
 166 730 l 1,5,-1
 186 730 l 1,6,-1
 186 610 l 1,7,-1
 166 610 l 1,4,-1
402 531 m 1,8,-1
 420 539 l 1,9,10
 486 392 486 392 486 270 c 0,11,12
 486 203 486 203 473 152.5 c 128,-1,13
 460 102 460 102 440 71.5 c 128,-1,14
 420 41 420 41 391.5 22 c 128,-1,15
 363 3 363 3 335 -3.5 c 128,-1,16
 307 -10 307 -10 276 -10 c 0,17,18
 174 -10 174 -10 125 39 c 128,-1,19
 76 88 76 88 76 190 c 2,20,-1
 76 520 l 1,21,-1
 96 520 l 1,22,-1
 96 190 l 2,23,24
 96 97 96 97 139.5 53.5 c 128,-1,25
 183 10 183 10 276 10 c 0,26,27
 466 10 466 10 466 270 c 0,28,29
 466 389 466 389 402 531 c 1,8,-1
248 790 m 1,30,-1
 223 790 l 1,31,-1
 343 950 l 1,32,-1
 368 950 l 1,33,-1
 248 790 l 1,30,-1
EndSplineSet
EndChar

StartChar: alpha
Encoding: 945 945 623
Width: 607
Flags: W
LayerCount: 2
Fore
SplineSet
438 246 m 1,0,1
 392 359 392 359 355 418 c 128,-1,2
 318 477 318 477 291 493.5 c 128,-1,3
 264 510 264 510 226 510 c 0,4,5
 155 510 155 510 113 442 c 128,-1,6
 71 374 71 374 71 260 c 128,-1,7
 71 146 71 146 113 78 c 128,-1,8
 155 10 155 10 226 10 c 0,9,10
 345 10 345 10 438 246 c 1,0,1
449 219 m 1,11,12
 355 -10 355 -10 226 -10 c 0,13,14
 149 -10 149 -10 100 62 c 128,-1,15
 51 134 51 134 51 260 c 128,-1,16
 51 386 51 386 100 458 c 128,-1,17
 149 530 149 530 226 530 c 0,18,19
 269 530 269 530 299.5 512.5 c 128,-1,20
 330 495 330 495 367 438.5 c 128,-1,21
 404 382 404 382 449 274 c 1,22,23
 485 372 485 372 520 520 c 1,24,-1
 541 520 l 1,25,26
 503 357 503 357 460 246 c 1,27,28
 490 173 490 173 551 0 c 1,29,-1
 530 0 l 1,30,31
 489 120 489 120 449 219 c 1,11,12
EndSplineSet
EndChar

StartChar: beta
Encoding: 946 946 624
Width: 572
Flags: W
AnchorPoint: "Anchor-0" 288 -220 basechar 0
LayerCount: 2
Fore
SplineSet
286 720 m 0,0,1
 194 720 194 720 150 675 c 128,-1,2
 106 630 106 630 106 535 c 2,3,-1
 106 33 l 1,4,5
 191 10 191 10 256 10 c 0,6,7
 293 10 293 10 326 15 c 128,-1,8
 359 20 359 20 393 33.5 c 128,-1,9
 427 47 427 47 451 68.5 c 128,-1,10
 475 90 475 90 490.5 126 c 128,-1,11
 506 162 506 162 506 210 c 0,12,13
 506 390 506 390 226 390 c 2,14,-1
 166 390 l 1,15,-1
 166 410 l 1,16,-1
 226 410 l 2,17,18
 341 410 341 410 403.5 452 c 128,-1,19
 466 494 466 494 466 570 c 0,20,21
 466 638 466 638 416.5 679 c 128,-1,22
 367 720 367 720 286 720 c 0,0,1
106 12 m 1,23,-1
 106 -220 l 1,24,-1
 86 -220 l 1,25,-1
 86 535 l 2,26,27
 86 740 86 740 286 740 c 0,28,29
 376 740 376 740 431 692.5 c 128,-1,30
 486 645 486 645 486 570 c 0,31,32
 486 440 486 440 335 403 c 1,33,-1
 335 401 l 1,34,35
 526 368 526 368 526 210 c 0,36,37
 526 104 526 104 457 47 c 128,-1,38
 388 -10 388 -10 256 -10 c 0,39,40
 188 -10 188 -10 106 12 c 1,23,-1
EndSplineSet
EndChar

StartChar: gamma
Encoding: 947 947 625
Width: 562
Flags: W
LayerCount: 2
Fore
SplineSet
282 60 m 1,0,1
 340 258 340 258 498 520 c 1,2,-1
 521 520 l 1,3,4
 342 228 342 228 291 20 c 1,5,-1
 291 -220 l 1,6,-1
 271 -220 l 1,7,-1
 271 20 l 1,8,9
 220 228 220 228 41 520 c 1,10,-1
 64 520 l 1,11,12
 222 258 222 258 280 60 c 1,13,-1
 282 60 l 1,0,1
EndSplineSet
EndChar

StartChar: delta
Encoding: 948 948 626
Width: 562
Flags: W
LayerCount: 2
Fore
SplineSet
268 511 m 0,0,1
 174 507 174 507 120 439.5 c 128,-1,2
 66 372 66 372 66 260 c 0,3,4
 66 144 66 144 123.5 77 c 128,-1,5
 181 10 181 10 281 10 c 128,-1,6
 381 10 381 10 438.5 77 c 128,-1,7
 496 144 496 144 496 260 c 0,8,9
 496 495 496 495 280 510 c 0,10,11
 278 510 278 510 274 510.5 c 128,-1,12
 270 511 270 511 268 511 c 0,0,1
211 520 m 1,13,14
 106 546 106 546 106 630 c 0,15,16
 106 679 106 679 152.5 709.5 c 128,-1,17
 199 740 199 740 281 740 c 0,18,19
 368 740 368 740 451 700 c 1,20,-1
 442 682 l 1,21,22
 362 720 362 720 281 720 c 0,23,24
 207 720 207 720 166.5 694.5 c 128,-1,25
 126 669 126 669 126 630 c 0,26,27
 126 541 126 541 281 530 c 0,28,29
 396 522 396 522 456 453.5 c 128,-1,30
 516 385 516 385 516 260 c 128,-1,31
 516 135 516 135 453 62.5 c 128,-1,32
 390 -10 390 -10 281 -10 c 128,-1,33
 172 -10 172 -10 109 62.5 c 128,-1,34
 46 135 46 135 46 260 c 0,35,36
 46 363 46 363 89.5 431 c 128,-1,37
 133 499 133 499 211 520 c 1,13,14
EndSplineSet
EndChar

StartChar: epsilon
Encoding: 949 949 627
Width: 506
Flags: W
LayerCount: 2
Fore
SplineSet
203 284 m 1,0,-1
 203 286 l 1,1,2
 130 301 130 301 95.5 333.5 c 128,-1,3
 61 366 61 366 61 405 c 0,4,5
 61 464 61 464 118 497 c 128,-1,6
 175 530 175 530 276 530 c 0,7,8
 369 530 369 530 450 494 c 1,9,-1
 442 476 l 1,10,11
 363 510 363 510 276 510 c 0,12,13
 184 510 184 510 132.5 482 c 128,-1,14
 81 454 81 454 81 405 c 0,15,16
 81 354 81 354 144 324.5 c 128,-1,17
 207 295 207 295 316 295 c 2,18,-1
 366 295 l 1,19,-1
 366 275 l 1,20,-1
 316 275 l 2,21,22
 196 275 196 275 133.5 240.5 c 128,-1,23
 71 206 71 206 71 140 c 0,24,25
 71 77 71 77 124 43.5 c 128,-1,26
 177 10 177 10 276 10 c 0,27,28
 364 10 364 10 447 44 c 1,29,-1
 455 26 l 1,30,31
 366 -10 366 -10 276 -10 c 0,32,33
 169 -10 169 -10 110 29.5 c 128,-1,34
 51 69 51 69 51 140 c 0,35,36
 51 168 51 168 60.5 193 c 128,-1,37
 70 218 70 218 106.5 245 c 128,-1,38
 143 272 143 272 203 284 c 1,0,-1
EndSplineSet
EndChar

StartChar: zeta
Encoding: 950 950 628
Width: 542
Flags: W
LayerCount: 2
Fore
SplineSet
351 728 m 1,0,-1
 351 730 l 1,1,-1
 86 730 l 1,2,-1
 86 750 l 1,3,-1
 406 750 l 1,4,-1
 406 730 l 1,5,6
 327 708 327 708 251.5 632.5 c 128,-1,7
 176 557 176 557 128.5 453 c 128,-1,8
 81 349 81 349 81 250 c 0,9,10
 81 121 81 121 142.5 65.5 c 128,-1,11
 204 10 204 10 346 10 c 0,12,13
 433 10 433 10 472 -18 c 128,-1,14
 511 -46 511 -46 511 -100 c 0,15,16
 511 -230 511 -230 341 -230 c 0,17,18
 266 -230 266 -230 206 -205 c 1,19,-1
 214 -187 l 1,20,21
 270 -210 270 -210 341 -210 c 0,22,23
 389 -210 389 -210 420.5 -200 c 128,-1,24
 452 -190 452 -190 466.5 -172 c 128,-1,25
 481 -154 481 -154 486 -137.5 c 128,-1,26
 491 -121 491 -121 491 -100 c 0,27,28
 491 -60 491 -60 462 -35 c 128,-1,29
 433 -10 433 -10 346 -10 c 0,30,31
 196 -10 196 -10 128.5 51.5 c 128,-1,32
 61 113 61 113 61 250 c 0,33,34
 61 390 61 390 147 530 c 128,-1,35
 233 670 233 670 351 728 c 1,0,-1
EndSplineSet
EndChar

StartChar: eta
Encoding: 951 951 629
Width: 547
Flags: W
LayerCount: 2
Fore
SplineSet
101 392 m 1,0,-1
 103 392 l 1,1,2
 129 454 129 454 179 492 c 128,-1,3
 229 530 229 530 291 530 c 0,4,5
 386 530 386 530 428.5 478 c 128,-1,6
 471 426 471 426 471 310 c 2,7,-1
 471 -220 l 1,8,-1
 451 -220 l 1,9,-1
 451 310 l 2,10,11
 451 418 451 418 414 464 c 128,-1,12
 377 510 377 510 291 510 c 0,13,14
 212 510 212 510 156.5 445.5 c 128,-1,15
 101 381 101 381 101 290 c 2,16,-1
 101 0 l 1,17,-1
 81 0 l 1,18,-1
 81 520 l 1,19,-1
 101 520 l 1,20,-1
 101 392 l 1,0,-1
EndSplineSet
EndChar

